{"glyphs":{"0":{"ha":925,"x_min":56,"x_max":869,"o":"m 869 64 l 56 64 l 56 860 l 869 860 l 869 64 m 331 171 l 592 171 l 592 756 l 331 756 l 331 171 z "},"1":{"ha":392,"x_min":56,"x_max":336,"o":"m 336 64 l 56 64 l 56 863 l 336 863 l 336 64 z "},"2":{"ha":950,"x_min":56,"x_max":894,"o":"m 833 863 l 833 624 l 407 168 l 894 168 l 833 64 l 56 64 l 56 149 l 563 678 l 563 758 l 65 758 l 65 863 l 833 863 z "},"3":{"ha":928,"x_min":56,"x_max":872,"o":"m 589 519 l 589 760 l 65 760 l 65 863 l 857 863 l 857 526 l 725 475 l 872 393 l 872 64 l 56 64 l 56 165 l 589 165 l 589 414 l 104 414 l 104 519 l 589 519 z "},"4":{"ha":1000,"x_min":56,"x_max":944,"o":"m 871 204 l 790 204 l 790 64 l 531 64 l 531 204 l 56 204 l 56 307 l 560 860 l 790 860 l 790 307 l 944 307 l 871 204 m 215 307 l 531 307 l 531 653 l 215 307 z "},"5":{"ha":929,"x_min":56,"x_max":874,"o":"m 874 863 l 818 758 l 324 758 l 324 556 l 838 556 l 838 64 l 58 64 l 58 168 l 563 168 l 563 451 l 56 451 l 56 863 l 874 863 z "},"6":{"ha":961,"x_min":56,"x_max":906,"o":"m 594 565 l 514 458 l 336 458 l 336 168 l 594 168 l 594 565 l 874 565 l 874 64 l 56 64 l 56 863 l 906 863 l 847 756 l 336 756 l 336 565 l 594 565 z "},"7":{"ha":929,"x_min":56,"x_max":874,"o":"m 874 860 l 874 736 l 540 64 l 243 64 l 586 758 l 56 758 l 56 860 l 874 860 z "},"8":{"ha":904,"x_min":56,"x_max":849,"o":"m 58 863 l 838 863 l 838 556 l 763 486 l 849 418 l 849 63 l 56 63 l 56 421 l 164 486 l 58 556 l 58 863 m 563 533 l 565 757 l 336 757 l 336 533 l 563 533 m 322 168 l 581 168 l 581 431 l 322 428 l 322 168 z "},"9":{"ha":935,"x_min":56,"x_max":879,"o":"m 604 450 l 604 860 l 879 860 l 879 63 l 56 63 l 56 168 l 604 168 l 604 343 l 58 346 l 58 860 l 604 860 l 519 757 l 344 757 l 344 450 l 604 450 z "},"!":{"ha":382,"x_min":56,"x_max":326,"o":"m 326 363 l 56 363 l 56 922 l 326 922 l 326 363 m 56 121 l 56 318 l 326 318 l 326 121 l 56 121 z "},"\"":{"ha":568,"x_min":56,"x_max":513,"o":"m 56 971 l 254 971 l 254 682 l 56 682 l 56 971 m 513 971 l 513 682 l 314 682 l 314 971 l 513 971 z "},"#":{"ha":957,"x_min":56,"x_max":901,"o":"m 621 883 l 779 871 l 760 731 l 901 732 l 892 618 l 744 613 l 721 428 l 876 431 l 869 318 l 708 314 l 682 114 l 528 126 l 550 308 l 372 306 l 347 126 l 189 138 l 214 299 l 56 294 l 63 406 l 226 411 l 246 599 l 75 593 l 85 706 l 263 711 l 282 886 l 440 871 l 421 718 l 601 722 l 621 883 m 407 604 l 382 418 l 560 421 l 585 608 l 407 604 z "},"%":{"ha":1149,"x_min":56,"x_max":1093,"o":"m 618 100 l 618 503 l 282 76 l 208 76 l 525 488 l 56 488 l 56 900 l 531 900 l 531 493 l 869 924 l 944 924 l 624 514 l 1093 514 l 1093 100 l 618 100 m 257 585 l 328 585 l 328 797 l 257 797 l 257 585 m 821 200 l 893 200 l 893 417 l 821 417 l 821 200 z "},"&":{"ha":1144,"x_min":56,"x_max":1089,"o":"m 738 592 l 579 497 l 692 410 l 747 456 l 1050 456 l 863 283 l 967 206 l 1089 206 l 1021 100 l 772 100 l 711 146 l 654 100 l 56 100 l 56 404 l 224 504 l 99 597 l 99 900 l 738 900 l 738 592 m 411 619 l 485 661 l 485 797 l 356 797 l 356 663 l 411 619 m 394 378 l 336 344 l 336 206 l 467 206 l 540 271 l 394 378 z "},"'":{"ha":307,"x_min":56,"x_max":251,"o":"m 251 599 l 56 599 l 56 890 l 251 890 l 251 599 z "},"(":{"ha":638,"x_min":56,"x_max":582,"o":"m 572 968 q 510 892 540 929 q 458 817 479 854 q 382 649 408 732 q 371 396 343 525 q 399 303 379 350 q 446 208 418 256 q 582 32 497 121 l 249 32 q 163 142 199 81 q 103 276 126 203 q 65 544 56 419 q 87 652 71 597 q 126 764 103 707 q 246 968 171 868 l 572 968 l 572 968 z "},")":{"ha":640,"x_min":56,"x_max":585,"o":"m 569 544 q 535 276 585 417 q 473 142 510 203 q 386 32 436 81 l 56 32 q 131 122 97 78 q 189 208 165 167 q 238 303 218 257 q 267 396 258 350 q 253 649 293 522 q 222 732 239 689 q 178 817 204 775 q 65 968 132 889 l 389 968 q 456 868 428 919 q 508 764 485 817 q 569 544 557 653 z "},"*":{"ha":1061,"x_min":56,"x_max":1006,"o":"m 994 653 q 979 626 992 638 q 951 607 967 614 l 565 504 q 559 505 564 504 q 551 510 554 506 l 551 519 l 849 714 q 892 732 869 729 q 936 729 914 735 q 978 704 964 722 q 994 653 994 692 m 992 361 q 975 297 1006 322 q 935 278 956 282 q 890 275 914 274 l 861 286 l 554 481 q 549 494 542 488 q 568 497 554 497 l 951 397 q 964 393 957 397 q 978 383 971 389 l 992 361 m 603 863 q 614 817 621 840 l 551 554 q 549 551 549 554 q 549 546 549 549 l 549 536 q 536 522 543 522 q 527 521 531 519 q 519 524 524 522 l 444 801 q 442 815 442 808 q 442 826 442 821 q 456 865 442 853 q 549 890 488 901 q 603 863 575 890 m 504 475 l 193 278 q 110 275 156 260 q 64 339 56 297 q 97 388 64 369 l 490 497 l 494 497 l 504 497 q 514 488 514 494 l 504 475 m 147 594 q 121 601 132 597 q 103 607 110 604 q 83 622 90 614 q 68 636 75 629 q 61 660 63 647 q 67 690 60 674 q 139 729 83 725 q 200 717 179 732 l 504 519 q 507 510 510 513 q 503 506 504 507 q 497 504 501 504 l 147 594 m 532 485 q 544 474 550 483 l 622 176 q 578 117 622 140 q 485 119 528 100 q 444 178 444 139 q 446 194 444 185 q 454 215 447 204 l 517 475 q 523 483 519 482 q 532 485 526 485 z "},"+":{"ha":1039,"x_min":56,"x_max":983,"o":"m 424 581 l 424 872 l 611 872 l 611 581 l 983 581 l 983 442 l 611 442 l 611 129 l 424 129 l 424 442 l 56 442 l 56 581 l 424 581 z "},",":{"ha":389,"x_min":56,"x_max":333,"o":"m 188 215 l 92 215 l 228 375 l 56 375 l 56 583 l 333 583 l 333 385 l 188 215 z "},"-":{"ha":1047,"x_min":56,"x_max":992,"o":"m 56 392 l 56 521 l 992 521 l 992 392 l 56 392 z "},".":{"ha":431,"x_min":56,"x_max":375,"o":"m 363 389 q 365 362 363 376 q 375 331 368 347 l 56 331 q 65 357 61 343 q 68 389 68 371 l 68 494 q 65 526 68 513 q 56 553 61 539 l 375 553 q 365 522 368 538 q 363 494 363 507 l 363 389 z "},"/":{"ha":861,"x_min":56,"x_max":806,"o":"m 104 -32 l 56 -10 l 757 1033 l 806 1017 l 104 -32 z "},":":{"ha":399,"x_min":56,"x_max":343,"o":"m 56 751 l 343 751 l 343 543 l 56 543 l 56 751 m 343 133 l 56 133 l 56 340 l 343 340 l 343 133 z "},";":{"ha":407,"x_min":56,"x_max":351,"o":"m 351 257 l 193 85 l 88 85 l 249 257 l 56 257 l 56 469 l 351 469 l 351 257 m 56 783 l 351 783 l 351 572 l 56 572 l 56 783 z "},"<":{"ha":1181,"x_min":56,"x_max":1125,"o":"m 488 503 l 1125 286 l 1125 147 l 56 506 l 1125 854 l 1125 710 l 488 503 z "},"=":{"ha":1049,"x_min":56,"x_max":993,"o":"m 993 701 l 993 567 l 56 567 l 56 701 l 993 701 m 993 435 l 993 299 l 56 299 l 56 435 l 993 435 z "},">":{"ha":1186,"x_min":56,"x_max":1131,"o":"m 1131 496 l 56 150 l 56 296 l 694 496 l 56 711 l 56 851 l 1131 496 z "},"?":{"ha":815,"x_min":56,"x_max":760,"o":"m 760 425 l 490 350 l 490 257 l 207 257 l 207 474 l 481 544 l 481 735 l 56 735 l 56 840 l 760 840 l 760 425 m 490 215 l 490 43 l 207 43 l 207 215 l 490 215 z "},"@":{"ha":1217,"x_min":56,"x_max":1161,"o":"m 638 592 l 638 669 l 850 669 l 850 304 l 899 304 l 899 742 l 269 742 l 269 138 l 1161 138 l 1089 43 l 56 43 l 56 840 l 1113 840 l 1113 206 l 638 206 l 638 289 l 576 206 l 321 206 l 321 669 l 575 669 l 638 592 m 638 304 l 638 572 l 543 572 l 543 304 l 638 304 z "},"A":{"ha":1268,"x_min":56,"x_max":1213,"o":"m 472 363 l 806 363 l 724 253 l 426 253 l 353 63 l 56 63 l 378 861 l 889 861 l 1213 63 l 918 63 l 806 363 l 656 754 l 611 754 l 472 363 z "},"B":{"ha":1090,"x_min":56,"x_max":1035,"o":"m 869 482 l 1035 399 l 1035 63 l 56 63 l 56 861 l 738 861 l 635 754 l 336 754 l 336 524 l 738 524 l 738 861 l 1015 861 l 1015 557 l 869 482 m 750 169 l 750 418 l 336 418 l 336 169 l 750 169 z "},"C":{"ha":1110,"x_min":56,"x_max":1054,"o":"m 335 757 l 335 167 l 1054 167 l 993 63 l 56 63 l 56 861 l 1019 861 l 944 757 l 335 757 z "},"D":{"ha":1086,"x_min":56,"x_max":1031,"o":"m 1031 175 l 921 63 l 56 63 l 56 861 l 753 861 l 654 751 l 333 751 l 333 169 l 753 169 l 753 861 l 931 861 l 1031 757 l 1031 175 z "},"E":{"ha":993,"x_min":56,"x_max":938,"o":"m 938 167 l 876 63 l 56 63 l 56 861 l 935 861 l 872 757 l 336 757 l 336 524 l 911 524 l 850 418 l 336 418 l 336 167 l 938 167 z "},"F":{"ha":958,"x_min":56,"x_max":903,"o":"m 336 754 l 336 524 l 883 524 l 818 415 l 336 415 l 336 63 l 56 63 l 56 861 l 903 861 l 843 754 l 336 754 z "},"G":{"ha":1090,"x_min":56,"x_max":1035,"o":"m 753 167 l 753 447 l 546 447 l 546 553 l 1031 553 l 1031 63 l 753 63 l 753 147 l 669 63 l 56 63 l 56 861 l 1035 861 l 974 757 l 340 757 l 340 167 l 753 167 z "},"H":{"ha":1086,"x_min":56,"x_max":1031,"o":"m 1031 63 l 754 63 l 754 521 l 754 861 l 1031 861 l 1031 63 m 338 415 l 338 63 l 56 63 l 56 861 l 338 861 l 338 521 l 754 521 l 667 415 l 338 415 z "},"I":{"ha":382,"x_min":56,"x_max":326,"o":"m 326 63 l 56 63 l 56 861 l 326 861 l 326 63 z "},"J":{"ha":747,"x_min":56,"x_max":692,"o":"m 56 167 l 410 167 l 410 861 l 692 861 l 692 63 l 85 63 l 56 167 z "},"K":{"ha":1110,"x_min":56,"x_max":1054,"o":"m 336 63 l 56 63 l 56 861 l 336 861 l 336 521 l 699 861 l 1044 861 l 614 472 l 1054 63 l 713 63 l 336 415 l 336 63 z "},"L":{"ha":906,"x_min":56,"x_max":850,"o":"m 56 63 l 56 861 l 336 861 l 336 167 l 850 167 l 792 63 l 56 63 z "},"M":{"ha":1293,"x_min":56,"x_max":1238,"o":"m 1238 63 l 988 63 l 988 576 l 756 63 l 542 63 l 313 569 l 313 63 l 56 63 l 56 861 l 400 861 l 651 314 l 904 861 l 1238 861 l 1238 63 z "},"N":{"ha":1086,"x_min":56,"x_max":1031,"o":"m 721 63 l 336 618 l 336 63 l 56 63 l 56 861 l 369 861 l 753 296 l 753 861 l 1031 861 l 1031 63 l 721 63 z "},"O":{"ha":1085,"x_min":56,"x_max":1029,"o":"m 338 754 l 338 169 l 747 169 l 747 861 l 1029 861 l 1029 63 l 56 63 l 56 861 l 747 861 l 650 754 l 338 754 z "},"P":{"ha":983,"x_min":56,"x_max":928,"o":"m 333 375 l 333 63 l 56 63 l 56 861 l 646 861 l 565 754 l 333 754 l 333 479 l 646 479 l 646 861 l 928 861 l 928 375 l 333 375 z "},"Q":{"ha":1086,"x_min":56,"x_max":1031,"o":"m 336 167 l 750 167 l 750 861 l 1031 861 l 1031 63 l 831 63 l 972 -43 l 614 -43 l 465 63 l 56 63 l 56 861 l 750 861 l 650 757 l 336 757 l 336 167 z "},"R":{"ha":1015,"x_min":56,"x_max":960,"o":"m 663 63 l 472 394 l 338 394 l 338 63 l 56 63 l 56 861 l 644 861 l 556 757 l 338 757 l 338 499 l 644 499 l 644 861 l 925 861 l 925 394 l 776 394 l 960 63 l 663 63 z "},"S":{"ha":1090,"x_min":56,"x_max":1035,"o":"m 340 760 l 340 521 l 718 521 l 621 418 l 58 418 l 58 861 l 1035 861 l 982 760 l 340 760 m 1001 63 l 56 63 l 56 167 l 718 167 l 718 521 l 1001 521 l 1001 63 z "},"T":{"ha":1125,"x_min":56,"x_max":1069,"o":"m 689 63 l 411 63 l 411 754 l 56 754 l 56 861 l 1069 861 l 1008 754 l 689 754 l 689 63 z "},"U":{"ha":1081,"x_min":56,"x_max":1025,"o":"m 331 171 l 756 171 l 663 64 l 56 64 l 56 863 l 331 863 l 331 171 m 756 863 l 1025 863 l 1025 64 l 756 64 l 756 171 l 756 863 z "},"V":{"ha":1175,"x_min":56,"x_max":1119,"o":"m 418 64 l 56 863 l 343 863 l 583 281 l 840 863 l 1119 863 l 740 64 l 418 64 z "},"W":{"ha":1396,"x_min":56,"x_max":1340,"o":"m 324 863 l 449 349 l 649 863 l 778 863 l 957 358 l 1075 863 l 1340 863 l 1140 64 l 856 64 l 701 446 l 556 64 l 271 64 l 56 863 l 324 863 z "},"X":{"ha":1196,"x_min":56,"x_max":1140,"o":"m 1121 863 l 760 474 l 1140 64 l 811 64 l 596 293 l 385 64 l 56 64 l 436 471 l 68 863 l 394 863 l 599 639 l 796 863 l 1121 863 z "},"Y":{"ha":1192,"x_min":56,"x_max":1136,"o":"m 461 325 l 56 863 l 371 863 l 600 529 l 824 863 l 1136 863 l 739 322 l 739 64 l 461 64 l 461 325 z "},"Z":{"ha":1100,"x_min":56,"x_max":1044,"o":"m 399 168 l 1044 168 l 971 64 l 56 64 l 56 188 l 654 756 l 72 756 l 72 863 l 986 863 l 986 729 l 399 168 z "},"[":{"ha":564,"x_min":56,"x_max":508,"o":"m 508 861 l 326 861 l 326 136 l 508 136 l 508 29 l 56 29 l 56 971 l 508 971 l 508 861 z "},"\\":{"ha":864,"x_min":56,"x_max":808,"o":"m 808 -10 l 760 -32 l 56 1017 l 104 1033 l 808 -10 z "},"]":{"ha":567,"x_min":56,"x_max":511,"o":"m 236 136 l 236 861 l 56 861 l 56 971 l 511 971 l 511 29 l 56 29 l 56 136 l 236 136 z "},"a":{"ha":961,"x_min":56,"x_max":906,"o":"m 842 64 l 56 64 l 56 625 l 569 625 l 506 529 l 318 529 l 318 157 l 569 157 l 569 625 l 825 625 l 825 157 l 906 157 l 842 64 z "},"b":{"ha":906,"x_min":56,"x_max":850,"o":"m 496 522 l 321 522 l 321 164 l 585 164 l 585 625 l 850 625 l 850 64 l 56 64 l 56 863 l 321 863 l 321 625 l 585 625 l 496 522 z "},"c":{"ha":899,"x_min":56,"x_max":843,"o":"m 56 64 l 56 625 l 843 625 l 794 525 l 322 525 l 322 164 l 840 164 l 785 64 l 56 64 z "},"d":{"ha":906,"x_min":56,"x_max":850,"o":"m 850 863 l 850 64 l 56 64 l 56 625 l 582 625 l 506 525 l 324 525 l 324 164 l 582 164 l 582 625 l 582 863 l 850 863 z "},"e":{"ha":928,"x_min":56,"x_max":872,"o":"m 840 278 l 324 278 l 324 161 l 872 161 l 815 64 l 56 64 l 56 625 l 572 625 l 489 522 l 324 522 l 324 381 l 572 381 l 572 625 l 840 625 l 840 278 z "},"f":{"ha":786,"x_min":56,"x_max":731,"o":"m 492 765 l 492 625 l 731 625 l 679 525 l 492 525 l 492 64 l 226 64 l 226 525 l 56 525 l 56 625 l 226 625 l 226 863 l 731 863 l 675 765 l 492 765 z "},"g":{"ha":915,"x_min":56,"x_max":860,"o":"m 592 625 l 518 525 l 328 525 l 328 164 l 592 164 l 592 625 l 860 625 l 860 -149 l 97 -149 l 56 -54 l 592 -54 l 592 64 l 60 64 l 60 625 l 592 625 z "},"h":{"ha":900,"x_min":56,"x_max":844,"o":"m 844 64 l 575 64 l 575 625 l 844 625 l 844 64 m 324 525 l 324 64 l 56 64 l 56 863 l 324 863 l 324 625 l 575 625 l 489 525 l 324 525 z "},"i":{"ha":379,"x_min":56,"x_max":324,"o":"m 56 863 l 324 863 l 324 690 l 56 690 l 56 863 m 324 64 l 56 64 l 56 625 l 324 625 l 324 64 z "},"j":{"ha":646,"x_min":56,"x_max":590,"o":"m 324 690 l 324 863 l 590 863 l 590 690 l 324 690 m 590 625 l 590 -149 l 85 -149 l 56 -54 l 324 -54 l 324 625 l 590 625 z "},"k":{"ha":972,"x_min":56,"x_max":917,"o":"m 610 388 l 911 64 l 611 64 l 324 364 l 324 64 l 56 64 l 56 863 l 324 863 l 324 432 l 585 625 l 917 625 l 610 388 z "},"l":{"ha":388,"x_min":56,"x_max":332,"o":"m 332 64 l 56 64 l 56 863 l 332 863 l 332 64 z "},"m":{"ha":1206,"x_min":56,"x_max":1150,"o":"m 311 67 l 56 67 l 56 626 l 894 626 l 811 526 l 731 526 l 731 67 l 472 67 l 472 526 l 311 526 l 311 67 m 1150 67 l 894 67 l 894 626 l 1150 626 l 1150 67 z "},"n":{"ha":906,"x_min":56,"x_max":850,"o":"m 850 67 l 585 67 l 585 626 l 850 626 l 850 67 m 324 526 l 324 67 l 56 67 l 56 626 l 585 626 l 492 526 l 324 526 z "},"o":{"ha":900,"x_min":56,"x_max":844,"o":"m 326 161 l 576 161 l 576 624 l 844 624 l 844 64 l 56 64 l 56 624 l 576 624 l 494 524 l 326 524 l 326 161 z "},"p":{"ha":896,"x_min":56,"x_max":840,"o":"m 318 165 l 574 165 l 574 624 l 840 624 l 840 64 l 318 64 l 318 -150 l 56 -150 l 56 624 l 574 624 l 489 524 l 318 524 l 318 165 z "},"q":{"ha":903,"x_min":56,"x_max":847,"o":"m 328 161 l 579 161 l 579 624 l 847 624 l 847 -151 l 579 -151 l 579 64 l 56 64 l 56 624 l 579 624 l 508 524 l 328 524 l 328 161 z "},"r":{"ha":735,"x_min":56,"x_max":679,"o":"m 326 64 l 56 64 l 56 624 l 679 624 l 621 524 l 326 524 l 326 64 z "},"s":{"ha":922,"x_min":56,"x_max":867,"o":"m 867 624 l 808 524 l 326 524 l 326 397 l 575 397 l 488 294 l 56 294 l 56 624 l 867 624 m 840 64 l 58 64 l 58 161 l 575 161 l 575 397 l 840 397 l 840 64 z "},"t":{"ha":767,"x_min":56,"x_max":711,"o":"m 199 624 l 199 807 l 467 807 l 467 624 l 711 624 l 643 524 l 467 524 l 467 161 l 699 161 l 640 64 l 199 64 l 199 524 l 56 524 l 56 624 l 199 624 z "},"u":{"ha":901,"x_min":56,"x_max":846,"o":"m 319 165 l 578 165 l 514 64 l 56 64 l 56 624 l 319 624 l 319 165 m 846 64 l 578 64 l 578 165 l 578 624 l 846 624 l 846 64 z "},"v":{"ha":1015,"x_min":56,"x_max":960,"o":"m 669 624 l 960 624 l 647 64 l 369 64 l 56 624 l 343 624 l 508 307 l 669 624 z "},"w":{"ha":1394,"x_min":56,"x_max":1339,"o":"m 611 624 l 796 624 l 949 313 l 1057 624 l 1339 624 l 1113 64 l 840 64 l 701 353 l 550 64 l 279 64 l 56 624 l 328 624 l 444 310 l 611 624 z "},"x":{"ha":1036,"x_min":56,"x_max":981,"o":"m 944 624 l 679 358 l 981 64 l 660 64 l 515 204 l 375 64 l 56 64 l 357 358 l 88 624 l 406 624 l 521 511 l 631 624 l 944 624 z "},"y":{"ha":1018,"x_min":56,"x_max":963,"o":"m 506 319 l 685 624 l 963 624 l 506 -151 l 226 -151 l 365 68 l 56 624 l 338 624 l 506 319 z "},"z":{"ha":935,"x_min":56,"x_max":879,"o":"m 838 624 l 838 511 l 399 164 l 879 164 l 808 64 l 56 64 l 56 168 l 511 521 l 56 521 l 56 624 l 838 624 z "},"{":{"ha":622,"x_min":56,"x_max":567,"o":"m 567 879 q 456 824 476 879 q 444 799 449 813 q 438 767 439 786 l 436 689 q 426 601 433 638 q 399 543 418 565 q 381 527 392 533 q 360 514 371 521 q 342 506 353 510 q 317 499 332 503 q 401 443 378 474 q 436 292 436 396 q 457 161 436 196 q 567 114 483 114 l 567 11 l 504 11 q 243 65 303 11 q 199 136 211 89 q 191 181 194 156 q 188 239 188 207 l 188 310 q 183 343 185 328 q 175 369 181 358 q 133 413 161 397 q 56 429 104 429 l 56 565 q 168 611 136 565 q 188 714 188 642 q 199 833 188 793 q 213 882 203 861 q 236 918 222 903 q 499 989 297 989 l 567 989 l 567 879 z "},"|":{"ha":225,"x_min":56,"x_max":169,"o":"m 169 -26 l 56 -26 l 56 1028 l 169 1028 l 169 -26 z "},"}":{"ha":622,"x_min":56,"x_max":567,"o":"m 388 918 q 411 882 401 903 q 424 833 421 861 q 433 784 431 814 q 436 714 436 754 q 458 611 436 639 q 567 565 486 565 l 567 429 q 492 413 522 429 q 447 369 463 397 q 441 343 444 358 q 436 310 438 328 l 436 239 q 433 181 436 207 q 424 136 431 156 q 408 96 418 113 q 382 65 397 79 q 119 11 315 11 l 56 11 l 56 114 q 168 161 139 114 q 188 292 188 197 q 221 443 188 394 q 308 499 246 474 q 283 506 293 503 q 265 514 272 510 q 242 527 251 521 q 224 543 233 533 q 188 689 189 588 l 185 767 q 179 799 183 786 q 168 824 175 813 q 56 879 144 879 l 56 989 l 126 989 q 388 918 325 989 z "},"~":{"ha":1500,"x_min":56,"x_max":1444,"o":"m 1444 969 l 1444 917 l 56 917 l 57 969 l 1444 969 z "},"·":{"ha":1389,"x_min":531,"x_max":857,"o":"m 613 358 q 531 494 531 396 q 613 635 532 592 q 776 632 694 678 q 851 491 857 586 q 770 358 846 396 q 613 358 694 321 z "},"—":{"ha":1414,"x_min":0,"x_max":1414,"o":"m 0 518 l 0 557 l 1414 557 l 1414 518 l 0 518 z "},"‘":{"ha":1389,"x_min":517,"x_max":779,"o":"m 779 864 l 779 676 l 517 676 l 517 864 l 658 1022 l 750 1022 l 607 864 l 779 864 z "},"’":{"ha":1389,"x_min":219,"x_max":482,"o":"m 342 664 l 246 664 l 390 822 l 219 822 l 219 1010 l 482 1010 l 482 821 l 342 664 z "},"“":{"ha":1389,"x_min":219,"x_max":807,"o":"m 540 676 l 540 869 l 685 1022 l 779 1022 l 636 864 l 807 864 l 807 676 l 540 676 m 485 864 l 485 676 l 219 676 l 219 869 l 361 1022 l 456 1022 l 313 864 l 485 864 z "},"”":{"ha":1389,"x_min":219,"x_max":807,"o":"m 342 664 l 249 664 l 390 822 l 219 822 l 219 1010 l 485 1010 l 485 821 l 342 664 m 807 1010 l 807 821 l 665 664 l 572 664 l 714 822 l 540 822 l 540 1010 l 807 1010 z "},"…":{"ha":1389,"x_min":219,"x_max":1292,"o":"m 1282 499 q 1292 457 1282 479 l 1060 457 q 1069 499 1069 475 l 1069 574 q 1067 599 1069 588 q 1060 615 1065 610 l 1292 615 q 1285 592 1288 603 q 1282 574 1282 581 l 1282 499 m 649 574 q 640 615 649 604 l 872 615 q 863 574 863 592 l 863 499 q 872 457 863 475 l 640 457 q 649 499 649 475 l 649 574 m 451 615 q 444 592 447 603 q 442 574 442 581 l 442 499 q 451 457 442 479 l 219 457 q 229 499 229 475 l 229 574 q 227 599 229 588 q 219 615 225 610 l 451 615 z "},"。":{"ha":1389,"x_min":135,"x_max":590,"o":"m 590 229 q 524 113 590 161 q 449 74 490 89 q 363 60 408 60 q 275 74 315 60 q 200 113 235 88 q 135 229 135 160 q 200 351 135 304 q 363 403 271 403 q 524 351 456 403 q 590 229 590 303 m 258 229 q 363 151 258 151 q 468 229 468 151 q 363 310 468 310 q 258 229 258 310 z "},"《":{"ha":1389,"x_min":331,"x_max":1058,"o":"m 1051 974 l 699 499 l 1058 28 l 908 28 l 547 499 l 903 974 l 1051 974 m 483 499 l 844 28 l 693 28 l 331 499 l 686 974 l 838 974 l 483 499 z "},"》":{"ha":1389,"x_min":329,"x_max":1060,"o":"m 694 28 l 543 28 l 904 499 l 553 974 l 701 974 l 1060 499 l 694 28 m 843 499 l 481 28 l 329 28 l 690 499 l 336 974 l 488 974 l 843 499 z "},"【":{"ha":1389,"x_min":489,"x_max":899,"o":"m 776 214 q 826 122 797 168 q 899 26 856 75 l 489 26 l 489 974 l 899 974 q 725 608 760 810 q 776 214 690 401 z "},"】":{"ha":1389,"x_min":489,"x_max":899,"o":"m 899 974 l 899 28 l 489 28 q 602 202 558 111 q 664 393 646 293 q 668 595 683 497 q 611 788 653 693 q 560 882 589 836 q 489 974 531 928 l 899 974 z "},"一":{"ha":1389,"x_min":122,"x_max":1267,"o":"m 1267 532 l 1231 469 l 122 469 l 122 532 l 1267 532 z "},"丁":{"ha":1389,"x_min":129,"x_max":1260,"o":"m 1224 863 l 918 863 l 918 72 l 482 72 l 447 136 l 756 136 l 756 863 l 129 863 l 129 929 l 1260 929 l 1224 863 z "},"七":{"ha":1389,"x_min":85,"x_max":1303,"o":"m 607 138 l 1303 138 l 1264 72 l 442 72 l 442 575 l 85 532 l 85 601 l 442 643 l 442 928 l 607 928 l 607 661 l 1303 740 l 1263 671 l 607 594 l 607 138 z "},"万":{"ha":1389,"x_min":167,"x_max":1221,"o":"m 1028 643 l 988 578 l 458 578 l 328 75 l 167 75 l 372 867 l 167 867 l 167 926 l 1221 926 l 1181 867 l 533 867 l 475 643 l 1028 643 m 1186 74 l 746 74 l 700 139 l 1028 139 l 1028 643 l 1186 643 l 1186 74 z "},"丈":{"ha":1389,"x_min":129,"x_max":1260,"o":"m 393 722 l 681 497 l 969 718 l 969 782 l 129 782 l 129 843 l 969 843 l 969 918 l 1128 918 l 1128 843 l 1260 843 l 1231 782 l 1128 782 l 1128 649 l 803 403 l 1214 83 l 978 83 l 686 315 l 379 83 l 138 83 l 565 410 l 172 722 l 393 722 z "},"三":{"ha":1389,"x_min":107,"x_max":1281,"o":"m 1236 899 l 1217 833 l 165 833 l 165 899 l 1236 899 m 1135 546 l 1114 481 l 253 481 l 253 546 l 1135 546 m 1281 169 l 1261 103 l 107 103 l 107 169 l 1281 169 z "},"上":{"ha":1389,"x_min":122,"x_max":1267,"o":"m 1232 656 l 1196 592 l 628 592 l 628 136 l 1267 136 l 1229 74 l 122 74 l 122 136 l 456 136 l 456 926 l 628 926 l 628 656 l 1232 656 z "},"下":{"ha":1389,"x_min":126,"x_max":1263,"o":"m 535 864 l 126 864 l 126 925 l 1263 925 l 1228 864 l 693 864 l 693 732 l 851 732 l 1263 254 l 1067 254 l 693 689 l 693 75 l 535 75 l 535 864 z "},"不":{"ha":1389,"x_min":115,"x_max":1272,"o":"m 688 861 l 610 733 l 768 733 l 768 72 l 603 72 l 603 724 l 321 258 l 131 258 l 497 861 l 115 861 l 115 928 l 1256 928 l 1221 861 l 688 861 m 1001 668 l 1272 258 l 1090 258 l 819 668 l 1001 668 z "},"与":{"ha":1389,"x_min":124,"x_max":1265,"o":"m 471 807 l 1265 807 l 1219 746 l 451 746 l 392 563 l 1090 563 l 1036 501 l 206 501 l 344 908 l 508 908 l 471 807 m 1244 93 l 871 93 l 829 153 l 1090 153 l 1090 563 l 1244 563 l 1244 93 m 1019 351 l 996 290 l 124 290 l 124 351 l 1019 351 z "},"丐":{"ha":1389,"x_min":146,"x_max":1243,"o":"m 1182 619 l 756 619 l 756 489 l 1029 489 l 992 422 l 146 422 l 146 489 l 244 756 l 432 756 l 333 489 l 568 489 l 568 854 l 154 854 l 154 919 l 1243 919 l 1206 854 l 756 854 l 756 686 l 1218 686 l 1182 619 m 1218 146 l 1218 82 l 272 82 l 308 146 l 1029 146 l 1029 489 l 1217 489 l 1217 146 l 1218 146 z "},"丑":{"ha":1389,"x_min":113,"x_max":1275,"o":"m 113 151 l 325 151 l 374 490 l 207 490 l 207 560 l 383 560 l 425 850 l 172 850 l 172 915 l 1161 915 l 1161 151 l 1275 151 l 1256 85 l 113 85 l 113 151 m 961 490 l 544 490 l 496 151 l 1000 151 l 1000 560 l 961 490 m 1000 850 l 594 850 l 554 560 l 1000 560 l 1000 850 z "},"专":{"ha":1389,"x_min":90,"x_max":1299,"o":"m 568 285 l 865 419 l 361 419 l 361 421 l 410 569 l 90 569 l 90 636 l 432 636 l 465 740 l 157 740 l 157 806 l 488 806 l 526 928 l 689 928 l 649 806 l 1219 806 l 1171 740 l 628 740 l 593 636 l 1299 636 l 1250 569 l 572 569 l 544 486 l 1138 486 l 1138 425 l 1136 424 l 754 238 l 939 193 l 939 72 l 407 206 l 407 324 l 568 285 z "},"且":{"ha":1389,"x_min":143,"x_max":1244,"o":"m 975 928 l 939 861 l 413 861 l 413 665 l 975 665 l 975 928 l 1136 928 l 1136 139 l 1244 139 l 1208 74 l 143 74 l 143 139 l 253 139 l 253 928 l 975 928 m 413 336 l 413 139 l 975 139 l 975 336 l 413 336 m 975 599 l 413 599 l 413 401 l 975 401 l 975 599 z "},"世":{"ha":1389,"x_min":106,"x_max":1282,"o":"m 372 139 l 1279 139 l 1240 72 l 206 72 l 206 621 l 106 621 l 106 689 l 206 689 l 206 926 l 372 926 l 372 689 l 490 689 l 490 928 l 650 928 l 650 689 l 965 689 l 965 928 l 1125 928 l 1125 689 l 1282 689 l 1247 621 l 1125 621 l 1125 232 l 490 232 l 490 621 l 372 621 l 372 139 m 650 621 l 650 300 l 965 300 l 965 621 l 650 621 z "},"丘":{"ha":1389,"x_min":167,"x_max":1222,"o":"m 1143 563 l 1031 563 l 1031 139 l 1222 139 l 1185 74 l 167 74 l 167 139 l 257 139 l 260 893 l 1126 928 l 1088 858 l 418 825 l 418 629 l 1179 629 l 1143 563 m 875 139 l 875 563 l 418 563 l 418 139 l 875 139 z "},"丙":{"ha":1389,"x_min":101,"x_max":1286,"o":"m 263 74 l 101 74 l 101 733 l 589 733 l 589 863 l 101 863 l 101 928 l 1286 928 l 1250 863 l 760 863 l 760 733 l 1108 733 l 1076 667 l 760 667 l 760 578 l 726 519 l 872 519 l 985 214 l 824 214 l 717 503 l 557 214 l 386 214 l 589 578 l 589 667 l 263 667 l 263 74 m 1269 74 l 894 74 l 858 139 l 1108 139 l 1108 733 l 1269 733 l 1269 74 z "},"业":{"ha":1389,"x_min":125,"x_max":1263,"o":"m 588 907 l 588 160 l 786 160 l 786 907 l 960 907 l 960 406 l 1092 760 l 1260 760 l 1099 333 l 960 333 l 960 160 l 1263 160 l 1226 93 l 138 93 l 138 160 l 414 160 l 414 333 l 286 333 l 125 760 l 293 760 l 414 432 l 414 907 l 588 907 z "},"丛":{"ha":1389,"x_min":125,"x_max":1264,"o":"m 1033 186 l 918 518 l 814 186 l 631 186 l 649 243 l 518 243 l 432 483 l 339 186 l 156 186 l 388 928 l 572 928 l 454 553 l 586 553 l 671 314 l 863 928 l 1047 928 l 929 553 l 1085 553 l 1210 186 l 1033 186 m 1226 74 l 125 74 l 125 139 l 1264 139 l 1226 74 z "},"东":{"ha":1389,"x_min":88,"x_max":1300,"o":"m 1264 738 l 488 738 l 361 510 l 649 510 l 649 686 l 810 686 l 810 510 l 1251 510 l 1214 444 l 810 444 l 810 72 l 510 72 l 476 136 l 649 136 l 649 444 l 164 444 l 326 738 l 88 738 l 88 803 l 363 803 l 433 929 l 594 929 l 524 803 l 1300 803 l 1264 738 m 918 383 l 1079 383 l 1251 74 l 1090 74 l 918 383 m 310 74 l 150 74 l 317 383 l 478 383 l 310 74 z "},"丝":{"ha":1389,"x_min":138,"x_max":1250,"o":"m 382 882 l 585 882 l 401 607 l 456 607 l 497 665 l 678 665 l 425 304 l 646 304 l 613 243 l 199 243 l 413 546 l 168 546 l 382 882 m 1146 243 l 731 243 l 946 546 l 701 546 l 915 882 l 1117 882 l 933 607 l 989 607 l 1031 665 l 1210 665 l 958 304 l 1179 304 l 1146 243 m 1217 119 l 138 119 l 138 181 l 1250 181 l 1217 119 z "},"丢":{"ha":1389,"x_min":97,"x_max":1290,"o":"m 1193 618 l 768 618 l 768 451 l 1290 451 l 1254 386 l 774 386 l 464 149 l 1047 181 l 990 275 l 1150 275 l 1272 75 l 1111 75 l 1054 169 l 1028 122 l 142 76 l 544 386 l 97 386 l 97 451 l 607 451 l 607 618 l 142 618 l 142 683 l 607 683 l 607 832 l 122 808 l 122 868 l 1249 925 l 1249 865 l 768 840 l 768 683 l 1231 683 l 1193 618 z "},"两":{"ha":1389,"x_min":94,"x_max":1294,"o":"m 1136 74 l 1136 725 l 1088 672 l 954 672 l 926 550 l 1022 550 l 1124 74 l 981 74 l 903 447 l 819 78 l 696 76 l 697 74 l 556 74 l 478 447 l 393 78 l 250 76 l 250 74 l 94 74 l 94 738 l 399 738 l 426 863 l 132 863 l 132 928 l 1268 928 l 1231 863 l 999 863 l 969 738 l 1294 738 l 1294 74 l 1136 74 m 808 672 l 529 672 l 501 550 l 596 550 l 685 132 l 808 672 m 250 92 l 383 672 l 250 672 l 250 92 m 544 738 l 824 738 l 853 863 l 572 863 l 544 738 z "},"严":{"ha":1389,"x_min":110,"x_max":1279,"o":"m 179 908 l 1279 908 l 1243 843 l 965 843 l 965 585 l 1250 585 l 1211 517 l 361 517 l 361 350 l 271 92 l 110 92 l 203 350 l 203 585 l 506 585 l 506 843 l 179 843 l 179 908 m 799 843 l 671 843 l 671 585 l 799 585 l 799 843 m 465 638 l 299 638 l 207 781 l 375 781 l 465 638 m 1100 781 l 1265 781 l 1176 638 l 1007 638 l 1100 781 z "},"丧":{"ha":1389,"x_min":121,"x_max":1268,"o":"m 1268 575 l 1231 508 l 779 508 l 929 357 l 1133 429 l 1121 354 l 981 306 l 1211 74 l 990 74 l 558 508 l 385 508 l 385 139 l 536 139 l 500 74 l 226 74 l 226 508 l 121 508 l 121 575 l 596 575 l 596 799 l 169 799 l 169 865 l 596 865 l 596 928 l 754 928 l 754 865 l 1219 865 l 1183 799 l 754 799 l 754 575 l 1268 575 m 499 604 l 340 604 l 271 761 l 431 761 l 499 604 m 936 761 l 1094 761 l 1025 604 l 867 604 l 936 761 z "},"个":{"ha":1389,"x_min":93,"x_max":1296,"o":"m 610 658 l 785 658 l 785 74 l 610 74 l 610 658 m 374 928 l 828 928 l 785 863 l 513 863 l 276 510 l 93 510 l 374 928 m 1015 928 l 1296 510 l 1107 510 l 828 928 l 1015 928 z "},"丫":{"ha":1389,"x_min":258,"x_max":1131,"o":"m 926 928 l 1131 928 l 799 526 l 799 74 l 594 74 l 594 551 l 661 624 l 493 624 l 258 928 l 464 928 l 683 653 l 926 928 z "},"中":{"ha":1389,"x_min":142,"x_max":1247,"o":"m 1247 324 l 776 324 l 776 74 l 611 74 l 611 324 l 142 324 l 142 786 l 611 786 l 611 926 l 776 926 l 776 786 l 1089 786 l 1050 721 l 776 721 l 776 389 l 1089 389 l 1089 786 l 1247 786 l 1247 324 m 611 721 l 300 721 l 300 389 l 611 389 l 611 721 z "},"丰":{"ha":1389,"x_min":108,"x_max":1279,"o":"m 1242 731 l 768 731 l 768 556 l 1213 556 l 1175 489 l 768 489 l 768 314 l 1279 314 l 1242 247 l 768 247 l 768 72 l 617 72 l 617 247 l 108 247 l 108 314 l 617 314 l 617 489 l 171 489 l 171 556 l 617 556 l 617 731 l 108 731 l 108 797 l 617 797 l 617 929 l 768 929 l 768 797 l 1279 797 l 1242 731 z "},"串":{"ha":1389,"x_min":124,"x_max":1264,"o":"m 1036 788 l 772 788 l 772 614 l 1065 614 l 1065 849 l 1224 849 l 1224 553 l 772 553 l 772 478 l 1106 478 l 1076 417 l 772 417 l 772 244 l 1106 244 l 1106 478 l 1264 478 l 1264 183 l 772 183 l 772 74 l 614 74 l 614 183 l 124 183 l 124 478 l 614 478 l 614 553 l 164 553 l 164 849 l 614 849 l 614 928 l 772 928 l 772 849 l 1065 849 l 1036 788 m 282 244 l 614 244 l 614 417 l 282 417 l 282 244 m 322 614 l 614 614 l 614 788 l 322 788 l 322 614 z "},"临":{"ha":1389,"x_min":110,"x_max":1278,"o":"m 558 478 l 1251 478 l 1251 78 l 558 78 l 558 478 m 314 936 l 475 936 l 475 290 l 421 64 l 263 64 l 314 294 l 314 936 m 761 790 l 1278 790 l 1249 718 l 968 718 l 1106 515 l 922 515 l 785 718 l 722 718 l 618 515 l 494 515 l 692 907 l 818 907 l 761 790 m 268 272 l 110 272 l 110 833 l 268 833 l 268 272 m 832 143 l 832 413 l 717 413 l 717 143 l 832 143 m 1093 478 l 1057 413 l 990 413 l 990 143 l 1093 143 l 1093 478 z "},"丸":{"ha":1389,"x_min":153,"x_max":1235,"o":"m 735 915 l 735 781 l 1114 781 l 1114 149 l 1235 149 l 1201 85 l 926 85 l 926 719 l 735 719 l 735 664 l 611 483 l 874 276 l 689 276 l 546 389 l 338 89 l 153 89 l 418 489 l 225 642 l 411 642 l 482 585 l 550 688 l 550 719 l 153 719 l 153 781 l 550 781 l 550 915 l 735 915 z "},"丹":{"ha":1389,"x_min":114,"x_max":1275,"o":"m 1275 469 l 1178 469 l 1178 74 l 740 74 l 707 138 l 1019 138 l 1019 469 l 433 469 l 433 354 l 361 74 l 203 74 l 275 354 l 275 469 l 114 469 l 114 533 l 275 533 l 275 928 l 1019 928 l 986 865 l 433 865 l 433 533 l 1019 533 l 1019 928 l 1178 928 l 1178 533 l 1275 533 l 1275 469 m 751 819 l 854 581 l 689 581 l 583 819 l 751 819 z "},"为":{"ha":1389,"x_min":136,"x_max":1251,"o":"m 1251 74 l 821 74 l 775 139 l 1093 139 l 1093 731 l 1060 676 l 626 676 l 333 78 l 136 78 l 432 676 l 136 676 l 136 742 l 464 742 l 556 926 l 750 926 l 658 742 l 1251 742 l 1251 74 m 799 253 l 683 556 l 854 556 l 971 253 l 799 253 m 297 768 l 238 926 l 408 926 l 469 768 l 297 768 z "},"主":{"ha":1389,"x_min":140,"x_max":1247,"o":"m 1211 82 l 140 82 l 140 149 l 615 149 l 615 431 l 222 431 l 222 497 l 615 497 l 615 715 l 175 715 l 175 781 l 597 781 l 551 918 l 719 918 l 765 781 l 1213 781 l 1176 715 l 774 715 l 774 497 l 1165 497 l 1129 431 l 774 431 l 774 149 l 1247 149 l 1211 82 z "},"丽":{"ha":1389,"x_min":85,"x_max":1304,"o":"m 136 810 l 525 810 l 489 743 l 294 743 l 294 549 l 465 549 l 524 335 l 350 335 l 294 549 l 294 74 l 136 74 l 136 810 m 865 743 l 865 549 l 1036 549 l 1094 335 l 921 335 l 865 549 l 865 74 l 707 74 l 707 810 l 1096 810 l 1060 743 l 865 743 m 1096 107 l 1096 810 l 1254 810 l 1254 74 l 1064 74 l 1046 107 l 1096 107 m 683 74 l 494 74 l 475 107 l 525 107 l 525 810 l 683 810 l 683 74 m 85 926 l 1304 926 l 1267 861 l 85 861 l 85 926 z "},"举":{"ha":1389,"x_min":131,"x_max":1258,"o":"m 331 753 l 274 906 l 444 906 l 503 753 l 624 753 l 624 925 l 792 925 l 792 753 l 888 753 l 946 906 l 1118 906 l 1060 753 l 1258 753 l 1221 688 l 1040 688 l 1129 547 l 1228 547 l 1192 482 l 993 482 l 861 688 l 501 688 l 332 482 l 154 482 l 324 688 l 131 688 l 131 753 l 331 753 m 624 253 l 624 385 l 154 385 l 154 450 l 624 450 l 624 628 l 792 628 l 792 450 l 1242 450 l 1204 385 l 792 385 l 792 253 l 1242 253 l 1204 186 l 792 186 l 792 76 l 624 76 l 624 186 l 154 186 l 154 253 l 624 253 z "},"乃":{"ha":1389,"x_min":135,"x_max":1253,"o":"m 285 74 l 135 74 l 322 863 l 161 863 l 161 928 l 1107 928 l 1028 604 l 1253 604 l 1151 74 l 815 74 l 779 136 l 993 136 l 1079 538 l 849 538 l 946 924 l 911 863 l 472 863 l 285 74 z "},"久":{"ha":1389,"x_min":85,"x_max":1303,"o":"m 1061 74 l 726 324 l 488 74 l 85 74 l 85 133 l 333 133 l 903 718 l 903 867 l 1061 867 l 1061 674 l 832 435 l 1303 74 l 1061 74 m 442 867 l 903 867 l 861 806 l 397 806 l 263 624 l 85 624 l 308 928 l 488 928 l 442 867 z "},"么":{"ha":1389,"x_min":160,"x_max":1229,"o":"m 328 482 l 160 482 l 353 928 l 521 928 l 328 482 m 238 74 l 571 863 l 746 863 l 436 142 l 1049 142 l 949 461 l 1110 461 l 1229 74 l 1068 74 l 1051 129 l 1018 74 l 238 74 z "},"义":{"ha":1389,"x_min":153,"x_max":1236,"o":"m 828 442 l 1236 85 l 969 85 l 694 325 l 419 85 l 153 85 l 561 442 l 160 792 l 426 792 l 694 558 l 963 792 l 1229 792 l 828 442 m 603 746 l 514 917 l 717 917 l 807 746 l 603 746 z "},"之":{"ha":1389,"x_min":108,"x_max":1279,"o":"m 382 74 l 108 74 l 108 139 l 224 139 l 969 728 l 160 728 l 160 793 l 582 793 l 513 928 l 686 928 l 756 793 l 1211 793 l 1211 728 l 382 74 m 489 139 l 1279 139 l 1242 74 l 540 74 l 489 139 z "},"乌":{"ha":1389,"x_min":197,"x_max":1190,"o":"m 967 851 l 931 786 l 356 786 l 356 501 l 1190 501 l 1190 74 l 478 74 l 442 139 l 1032 139 l 1032 435 l 197 435 l 197 851 l 518 851 l 518 928 l 676 928 l 676 851 l 967 851 m 1126 522 l 897 522 l 861 588 l 968 588 l 968 851 l 1126 851 l 1126 522 m 985 238 l 244 238 l 208 303 l 985 303 l 985 238 z "},"乍":{"ha":1389,"x_min":115,"x_max":1274,"o":"m 1192 504 l 564 504 l 564 299 l 1231 299 l 1192 238 l 564 238 l 564 75 l 383 75 l 383 708 l 324 596 l 115 596 l 288 925 l 499 925 l 446 825 l 1274 825 l 1235 764 l 564 764 l 564 565 l 1231 565 l 1192 504 z "},"乎":{"ha":1389,"x_min":82,"x_max":1306,"o":"m 157 907 l 1265 919 l 1229 840 l 767 835 l 767 489 l 867 489 l 953 756 l 1128 756 l 1042 489 l 1306 489 l 1269 396 l 767 396 l 767 82 l 413 82 l 378 154 l 575 154 l 575 396 l 82 396 l 82 489 l 307 489 l 204 731 l 372 731 l 475 489 l 575 489 l 575 832 l 157 828 l 157 907 z "},"乏":{"ha":1389,"x_min":182,"x_max":1206,"o":"m 622 139 l 1206 139 l 1168 74 l 538 74 l 403 194 l 340 74 l 182 74 l 278 260 l 489 260 l 503 246 l 883 586 l 218 586 l 218 651 l 601 651 l 535 757 l 731 757 l 797 651 l 1114 651 l 1114 586 l 1115 586 l 618 142 l 622 139 m 1156 793 l 182 793 l 182 860 l 1022 860 l 1047 928 l 1206 928 l 1156 793 z "},"乐":{"ha":1389,"x_min":165,"x_max":1224,"o":"m 1186 413 l 760 413 l 760 74 l 492 74 l 454 139 l 601 139 l 601 413 l 188 413 l 188 928 l 1150 928 l 1114 863 l 760 863 l 760 479 l 1224 479 l 1186 413 m 601 479 l 601 863 l 346 863 l 346 479 l 601 479 m 281 369 l 475 369 l 361 74 l 165 74 l 281 369 m 869 368 l 1064 368 l 1183 74 l 989 74 l 869 368 z "},"乒":{"ha":1389,"x_min":85,"x_max":1303,"o":"m 375 260 l 549 260 l 392 74 l 217 74 l 375 260 m 1303 349 l 1267 294 l 85 294 l 85 349 l 272 349 l 272 865 l 949 928 l 949 863 l 415 804 l 415 628 l 1115 628 l 1079 572 l 949 572 l 949 349 l 1303 349 m 415 349 l 790 349 l 790 572 l 415 572 l 415 349 z "},"乓":{"ha":1389,"x_min":85,"x_max":1303,"o":"m 1043 399 l 1303 399 l 1303 338 l 85 338 l 85 399 l 135 399 l 135 929 l 1224 929 l 1188 868 l 293 868 l 293 694 l 1242 694 l 1242 633 l 1043 633 l 1043 399 m 293 399 l 885 399 l 885 633 l 293 633 l 293 399 m 1043 72 l 915 285 l 1074 285 l 1201 72 l 1043 72 z "},"乔":{"ha":1389,"x_min":124,"x_max":1264,"o":"m 1226 842 l 797 829 l 797 700 l 1263 700 l 1226 635 l 890 635 l 1264 407 l 1010 407 l 700 597 l 378 407 l 124 407 l 511 635 l 161 635 l 161 700 l 614 700 l 614 824 l 161 810 l 161 876 l 1263 908 l 1226 842 m 954 92 l 954 382 l 1121 382 l 1121 92 l 954 92 m 424 92 l 250 92 l 293 268 l 293 382 l 454 382 l 454 249 l 424 92 z "},"乖":{"ha":1389,"x_min":94,"x_max":1293,"o":"m 347 169 l 347 281 l 228 169 l 115 169 l 347 394 l 347 504 l 128 504 l 128 567 l 347 567 l 347 617 l 513 617 l 513 169 l 347 169 m 1064 613 l 1064 446 l 1261 613 l 1261 503 l 1064 336 l 1064 231 l 1293 231 l 1253 164 l 899 164 l 899 613 l 1064 613 m 628 676 l 94 676 l 94 742 l 628 742 l 628 844 l 150 832 l 150 899 l 1258 924 l 1219 858 l 786 847 l 786 742 l 1265 742 l 1226 676 l 786 676 l 786 78 l 628 78 l 628 676 z "},"乘":{"ha":1389,"x_min":133,"x_max":1254,"o":"m 333 74 l 146 74 l 439 333 l 611 333 l 611 700 l 133 700 l 133 760 l 611 760 l 611 831 l 172 831 l 172 892 l 1013 892 l 1042 928 l 1229 928 l 1153 831 l 776 831 l 776 760 l 1254 760 l 1225 700 l 776 700 l 776 74 l 611 74 l 611 319 l 333 74 m 1254 568 l 1007 544 l 1007 425 l 1254 425 l 1225 364 l 840 364 l 840 668 l 1007 668 l 1007 606 l 1254 629 l 1254 568 m 550 364 l 385 364 l 385 396 l 133 372 l 133 433 l 385 457 l 385 561 l 158 561 l 158 621 l 385 621 l 385 668 l 550 668 l 550 364 m 822 326 l 1010 326 l 1253 74 l 1065 74 l 822 326 z "},"乙":{"ha":1389,"x_min":126,"x_max":1263,"o":"m 968 863 l 126 863 l 126 928 l 1206 928 l 1206 856 l 403 139 l 1263 139 l 1225 74 l 157 74 l 157 139 l 968 863 z "},"九":{"ha":1389,"x_min":99,"x_max":1290,"o":"m 568 835 l 839 835 l 797 774 l 553 774 l 378 74 l 99 74 l 99 133 l 238 133 l 397 774 l 181 774 l 181 835 l 413 835 l 435 928 l 592 928 l 568 835 m 1290 135 l 1249 74 l 839 74 l 839 835 l 997 835 l 997 135 l 1290 135 z "},"乞":{"ha":1389,"x_min":186,"x_max":1201,"o":"m 500 150 l 1201 150 l 1164 76 l 194 76 l 194 139 l 840 633 l 210 633 l 210 706 l 1136 706 l 1136 636 l 500 150 m 1167 796 l 186 796 l 272 925 l 454 925 l 411 858 l 1201 858 l 1167 796 z "},"也":{"ha":1389,"x_min":168,"x_max":1221,"o":"m 636 289 l 636 738 l 438 707 l 438 171 l 1221 171 l 1185 107 l 268 107 l 268 681 l 168 665 l 168 729 l 268 743 l 268 893 l 438 893 l 438 768 l 636 799 l 636 871 l 806 871 l 806 824 l 1143 874 l 1143 872 l 1203 882 l 1203 289 l 946 289 l 908 356 l 1033 356 l 1033 800 l 806 764 l 806 289 l 636 289 z "},"习":{"ha":1389,"x_min":92,"x_max":1297,"o":"m 1138 849 l 92 849 l 92 914 l 1297 914 l 1297 88 l 890 88 l 854 153 l 1138 153 l 1138 849 m 121 88 l 611 514 l 869 514 l 381 88 l 121 88 m 743 576 l 504 576 l 289 781 l 528 781 l 743 576 z "},"乡":{"ha":1389,"x_min":85,"x_max":1303,"o":"m 1014 517 l 1303 517 l 374 75 l 85 75 l 588 314 l 147 258 l 147 333 l 621 560 l 207 556 l 207 624 l 808 925 l 1097 925 l 501 624 l 751 622 l 969 726 l 1258 726 l 519 374 l 768 400 l 1014 517 z "},"书":{"ha":1389,"x_min":119,"x_max":1269,"o":"m 1088 513 l 599 513 l 599 74 l 424 74 l 424 513 l 119 513 l 119 579 l 424 579 l 424 804 l 168 804 l 168 871 l 424 871 l 424 928 l 599 928 l 599 871 l 890 871 l 911 928 l 1100 928 l 1079 871 l 1165 871 l 1113 579 l 1269 579 l 1269 100 l 917 100 l 881 167 l 1088 167 l 1088 513 m 599 579 l 931 579 l 971 804 l 599 804 l 599 579 z "},"买":{"ha":1389,"x_min":133,"x_max":1256,"o":"m 133 922 l 1256 922 l 1183 728 l 990 728 l 1039 860 l 133 860 l 133 922 m 432 404 l 139 404 l 139 467 l 486 467 l 526 513 l 381 513 l 282 654 l 408 654 l 310 796 l 518 796 l 617 654 l 461 654 l 557 547 l 721 733 l 925 733 l 692 467 l 1176 467 l 1142 404 l 636 404 l 349 78 l 144 78 l 432 404 m 736 339 l 953 339 l 1221 78 l 1004 78 l 736 339 z "},"乱":{"ha":1389,"x_min":106,"x_max":1282,"o":"m 583 139 l 583 482 l 736 482 l 736 72 l 131 72 l 131 482 l 356 482 l 356 600 l 106 600 l 106 665 l 356 665 l 356 819 l 139 819 l 139 881 l 582 881 l 607 926 l 760 926 l 697 819 l 510 819 l 510 665 l 763 665 l 726 600 l 510 600 l 510 482 l 583 482 l 542 415 l 283 415 l 283 139 l 583 139 m 1118 214 l 1282 214 l 1258 72 l 821 72 l 821 928 l 985 928 l 985 139 l 1106 139 l 1118 214 z "},"乳":{"ha":1389,"x_min":151,"x_max":1238,"o":"m 1238 83 l 733 83 l 733 904 l 888 904 l 888 147 l 1083 147 l 1083 356 l 1238 356 l 1238 83 m 542 83 l 317 83 l 268 147 l 388 147 l 388 294 l 164 251 l 164 322 l 388 364 l 388 426 l 454 525 l 192 525 l 192 589 l 651 589 l 542 426 l 542 393 l 672 418 l 626 342 l 542 325 l 542 83 m 686 918 l 647 853 l 151 779 l 151 846 l 686 918 m 549 804 l 671 804 l 610 621 l 488 621 l 549 804 m 479 621 l 357 621 l 296 774 l 418 774 l 479 621 m 335 621 l 213 621 l 151 756 l 274 756 l 335 621 z "},"乾":{"ha":1389,"x_min":108,"x_max":1279,"o":"m 499 708 l 463 643 l 285 643 l 285 560 l 499 560 l 499 708 l 654 708 l 654 325 l 463 325 l 463 235 l 675 235 l 639 169 l 463 169 l 463 74 l 307 74 l 307 169 l 108 169 l 108 235 l 307 235 l 307 325 l 129 325 l 129 708 l 314 708 l 314 796 l 108 796 l 108 861 l 314 861 l 314 928 l 469 928 l 469 861 l 675 861 l 639 796 l 469 796 l 469 708 l 499 708 m 901 146 l 1279 146 l 1243 74 l 697 74 l 697 135 l 1050 636 l 699 636 l 699 708 l 1243 708 l 1243 639 l 901 146 m 1244 799 l 682 799 l 765 928 l 943 928 l 900 861 l 1278 861 l 1244 799 m 499 494 l 285 494 l 285 392 l 499 392 l 499 494 z "},"了":{"ha":1389,"x_min":146,"x_max":1242,"o":"m 821 610 l 821 76 l 411 76 l 372 138 l 653 138 l 653 683 l 654 683 l 892 860 l 146 860 l 146 925 l 1242 925 l 821 610 z "},"予":{"ha":1389,"x_min":99,"x_max":1289,"o":"m 1049 479 l 1085 543 l 774 543 l 774 78 l 463 78 l 425 143 l 613 143 l 613 543 l 99 543 l 99 604 l 476 604 l 410 753 l 578 753 l 642 604 l 722 604 l 869 863 l 222 863 l 222 924 l 1074 924 l 890 604 l 1289 604 l 1217 479 l 1049 479 z "},"争":{"ha":1389,"x_min":160,"x_max":1228,"o":"m 1150 488 l 1228 488 l 1206 422 l 1150 422 l 1150 256 l 739 256 l 739 74 l 383 74 l 346 139 l 579 139 l 579 256 l 189 256 l 189 324 l 579 324 l 579 422 l 160 422 l 160 488 l 579 488 l 579 589 l 189 589 l 189 654 l 781 654 l 847 793 l 424 793 l 356 699 l 194 699 l 333 926 l 519 926 l 471 858 l 1028 858 l 936 654 l 1150 654 l 1150 488 m 739 488 l 990 488 l 990 589 l 739 589 l 739 488 m 990 422 l 739 422 l 739 324 l 990 324 l 990 422 z "},"事":{"ha":1389,"x_min":106,"x_max":1282,"o":"m 1207 371 l 1282 371 l 1247 303 l 1207 303 l 1207 185 l 775 185 l 775 74 l 549 74 l 515 136 l 613 136 l 613 185 l 190 185 l 154 253 l 613 253 l 613 303 l 106 303 l 106 371 l 613 371 l 613 424 l 190 424 l 154 489 l 613 489 l 613 535 l 153 535 l 153 736 l 613 736 l 613 781 l 106 781 l 106 849 l 613 849 l 613 926 l 775 926 l 775 849 l 1282 849 l 1247 781 l 775 781 l 775 736 l 1207 736 l 1207 535 l 775 535 l 775 489 l 1207 489 l 1207 371 m 613 599 l 613 674 l 308 674 l 308 599 l 613 599 m 775 674 l 775 599 l 1053 599 l 1053 719 l 1001 674 l 775 674 m 775 371 l 1046 371 l 1046 424 l 775 424 l 775 371 m 1046 303 l 775 303 l 775 253 l 1046 253 l 1046 303 z "},"二":{"ha":1389,"x_min":171,"x_max":1217,"o":"m 1107 715 l 244 715 l 244 817 l 1143 817 l 1107 715 m 1217 286 l 1181 183 l 171 183 l 171 286 l 1217 286 z "},"于":{"ha":1389,"x_min":86,"x_max":1301,"o":"m 776 625 l 1301 625 l 1265 558 l 776 558 l 776 74 l 458 74 l 425 138 l 614 138 l 614 558 l 86 558 l 86 625 l 614 625 l 614 863 l 178 863 l 178 928 l 1210 928 l 1172 863 l 776 863 l 776 625 z "},"亏":{"ha":1389,"x_min":158,"x_max":1231,"o":"m 158 717 l 1231 717 l 1193 650 l 457 650 l 381 494 l 1188 494 l 1188 94 l 199 94 l 163 160 l 1022 160 l 1022 429 l 163 429 l 269 650 l 158 650 l 158 717 m 158 906 l 1231 906 l 1193 839 l 158 839 l 158 906 z "},"云":{"ha":1389,"x_min":101,"x_max":1288,"o":"m 175 846 l 175 907 l 1235 907 l 1203 846 l 175 846 m 1051 392 l 1264 94 l 101 94 l 382 500 l 111 500 l 111 560 l 1288 560 l 1258 500 l 560 500 l 324 156 l 1047 156 l 883 392 l 1051 392 z "},"互":{"ha":1389,"x_min":96,"x_max":1293,"o":"m 440 819 l 422 724 l 1151 724 l 1068 183 l 1293 183 l 1249 83 l 96 83 l 96 183 l 914 183 l 936 332 l 199 332 l 285 819 l 97 819 l 97 917 l 1264 917 l 1221 819 l 440 819 m 408 643 l 367 413 l 949 413 l 985 643 l 408 643 z "},"五":{"ha":1389,"x_min":122,"x_max":1267,"o":"m 358 157 l 411 568 l 157 568 l 157 635 l 419 635 l 446 844 l 143 844 l 143 910 l 1218 910 l 1182 844 l 618 844 l 592 635 l 1129 635 l 1129 157 l 1267 157 l 1231 92 l 122 92 l 122 157 l 358 157 m 531 157 l 964 157 l 964 568 l 583 568 l 531 157 z "},"井":{"ha":1389,"x_min":86,"x_max":1303,"o":"m 1263 336 l 1094 336 l 1094 74 l 936 74 l 936 336 l 454 336 l 454 292 l 388 74 l 226 74 l 296 292 l 296 336 l 86 336 l 86 397 l 296 397 l 296 711 l 154 711 l 154 772 l 296 772 l 296 926 l 454 926 l 454 772 l 936 772 l 936 928 l 1094 928 l 1094 772 l 1235 772 l 1193 711 l 1094 711 l 1094 397 l 1303 397 l 1263 336 m 936 397 l 936 711 l 454 711 l 454 397 l 936 397 z "},"亚":{"ha":1389,"x_min":136,"x_max":1251,"o":"m 1215 75 l 136 75 l 136 140 l 426 140 l 426 294 l 314 294 l 153 688 l 321 688 l 426 426 l 426 860 l 172 860 l 172 926 l 1215 926 l 1179 860 l 961 860 l 961 414 l 1072 688 l 1240 688 l 1079 294 l 961 294 l 961 140 l 1251 140 l 1215 75 m 585 140 l 803 140 l 803 860 l 585 860 l 585 140 z "},"些":{"ha":1389,"x_min":128,"x_max":1260,"o":"m 578 667 l 578 476 l 764 504 l 764 439 l 128 343 l 128 408 l 186 418 l 186 851 l 344 851 l 344 442 l 419 453 l 419 925 l 578 925 l 578 732 l 764 732 l 726 667 l 578 667 m 974 610 l 974 439 l 1260 439 l 1224 374 l 815 374 l 815 925 l 974 925 l 974 696 l 1260 847 l 1260 761 l 974 610 m 1224 75 l 128 75 l 128 142 l 1260 142 l 1224 75 m 254 304 l 1135 304 l 1099 239 l 254 239 l 254 304 z "},"亡":{"ha":1389,"x_min":128,"x_max":1261,"o":"m 872 803 l 1261 803 l 1219 740 l 421 740 l 421 143 l 1208 143 l 1167 81 l 229 81 l 229 740 l 128 740 l 128 803 l 681 803 l 644 921 l 835 921 l 872 803 z "},"亢":{"ha":1389,"x_min":174,"x_max":1214,"o":"m 1175 72 l 822 72 l 822 589 l 519 589 l 519 279 l 379 76 l 174 76 l 331 299 l 331 668 l 1008 668 l 1008 140 l 1214 140 l 1175 72 m 571 929 l 753 929 l 772 847 l 1207 847 l 1171 768 l 174 768 l 174 847 l 592 847 l 571 929 z "},"交":{"ha":1389,"x_min":85,"x_max":1304,"o":"m 774 886 l 1304 886 l 1304 885 l 1268 825 l 85 825 l 85 886 l 615 886 l 615 928 l 774 928 l 774 886 m 235 785 l 403 785 l 258 585 l 90 585 l 235 785 m 942 544 l 1183 544 l 807 318 l 1231 74 l 989 74 l 689 247 l 400 74 l 158 74 l 565 318 l 175 544 l 415 544 l 685 389 l 942 544 m 1292 585 l 1124 585 l 979 785 l 1147 785 l 1292 585 z "},"亥":{"ha":1389,"x_min":83,"x_max":1306,"o":"m 518 78 l 299 78 l 958 665 l 1203 665 l 518 78 m 899 329 l 1103 329 l 1272 79 l 1068 79 l 899 329 m 350 801 l 83 803 l 144 878 l 613 878 l 613 922 l 810 922 l 810 878 l 1306 878 l 1235 797 l 553 800 l 407 646 l 589 646 l 646 699 l 867 699 l 321 211 l 121 211 l 475 540 l 107 544 l 350 801 z "},"亦":{"ha":1389,"x_min":106,"x_max":1282,"o":"m 410 803 l 106 803 l 106 868 l 615 868 l 615 928 l 771 928 l 771 868 l 1282 868 l 1247 803 l 982 803 l 982 74 l 642 74 l 679 139 l 826 139 l 826 803 l 567 803 l 567 299 l 478 74 l 322 74 l 410 299 l 410 803 m 1032 726 l 1188 726 l 1236 232 l 1079 232 l 1032 726 m 201 726 l 358 726 l 303 232 l 147 232 l 201 726 z "},"产":{"ha":1389,"x_min":111,"x_max":1278,"o":"m 111 71 l 208 257 l 208 614 l 447 614 l 379 776 l 558 776 l 628 614 l 871 614 l 939 776 l 1119 776 l 1050 614 l 1278 614 l 1229 550 l 394 550 l 394 238 l 314 71 l 111 71 m 199 869 l 621 869 l 621 929 l 826 929 l 826 869 l 1256 869 l 1218 803 l 199 803 l 199 869 z "},"亩":{"ha":1389,"x_min":106,"x_max":1282,"o":"m 1069 733 l 1033 668 l 790 668 l 790 429 l 1069 429 l 1069 733 l 1246 733 l 1246 75 l 139 75 l 139 733 l 1069 733 m 631 863 l 631 925 l 789 925 l 789 863 l 1282 863 l 1246 797 l 106 797 l 106 863 l 631 863 m 632 668 l 329 668 l 329 429 l 632 429 l 632 668 m 632 364 l 329 364 l 329 142 l 632 142 l 632 364 m 1069 364 l 790 364 l 790 142 l 1069 142 l 1069 364 z "},"享":{"ha":1389,"x_min":106,"x_max":1282,"o":"m 974 72 l 335 72 l 300 133 l 815 133 l 815 274 l 106 274 l 106 335 l 815 335 l 815 365 l 926 440 l 224 440 l 224 508 l 1185 508 l 974 365 l 974 335 l 1282 335 l 1240 274 l 974 274 l 974 72 m 189 796 l 1050 796 l 1017 735 l 347 735 l 347 611 l 1050 611 l 1050 796 l 1208 796 l 1208 550 l 189 550 l 189 796 m 1240 824 l 106 824 l 106 885 l 614 885 l 614 929 l 772 929 l 772 885 l 1282 885 l 1240 824 z "},"京":{"ha":1389,"x_min":85,"x_max":1303,"o":"m 106 693 l 1282 693 l 1282 401 l 772 401 l 772 74 l 571 74 l 535 135 l 614 135 l 614 401 l 106 401 l 106 693 m 1124 693 l 1088 632 l 264 632 l 264 463 l 1124 463 l 1124 693 m 772 832 l 1303 832 l 1267 772 l 85 772 l 85 832 l 614 832 l 614 928 l 772 928 l 772 832 m 249 354 l 407 354 l 289 74 l 131 74 l 249 354 m 1142 354 l 1260 74 l 1101 74 l 983 354 l 1142 354 z "},"亭":{"ha":1389,"x_min":119,"x_max":1268,"o":"m 143 749 l 1217 749 l 1217 517 l 143 517 l 143 749 m 132 317 l 1256 317 l 1222 232 l 788 232 l 788 74 l 446 74 l 479 158 l 597 158 l 597 232 l 132 232 l 132 317 m 119 479 l 1268 479 l 1268 339 l 1076 339 l 1076 394 l 310 394 l 310 339 l 119 339 l 119 479 m 799 928 l 799 879 l 1256 879 l 1222 794 l 119 794 l 119 879 l 592 879 l 592 928 l 799 928 m 1026 747 l 993 663 l 335 663 l 335 601 l 1026 601 l 1026 747 z "},"亮":{"ha":1389,"x_min":136,"x_max":1253,"o":"m 1174 514 l 215 514 l 215 756 l 1015 756 l 975 690 l 374 690 l 374 581 l 1015 581 l 1015 756 l 1174 756 l 1174 514 m 385 74 l 226 74 l 314 367 l 1086 367 l 1086 139 l 1211 139 l 1192 74 l 928 74 l 928 276 l 444 276 l 385 74 m 1253 322 l 1119 322 l 1119 417 l 269 417 l 269 322 l 136 322 l 136 482 l 1253 482 l 1253 322 m 167 788 l 167 853 l 622 853 l 622 928 l 781 928 l 781 853 l 1238 853 l 1215 788 l 167 788 z "},"亲":{"ha":1389,"x_min":128,"x_max":1261,"o":"m 407 756 l 483 642 l 913 642 l 989 756 l 1157 756 l 1081 642 l 1261 642 l 1225 575 l 796 575 l 796 442 l 1233 442 l 1197 376 l 796 376 l 796 85 l 521 85 l 486 149 l 604 149 l 604 376 l 156 376 l 156 442 l 604 442 l 604 575 l 128 575 l 128 642 l 315 642 l 239 756 l 407 756 m 621 917 l 786 917 l 786 850 l 1213 850 l 1167 788 l 183 788 l 183 850 l 621 850 l 621 917 m 1044 108 l 914 301 l 1082 301 l 1213 108 l 1044 108 m 164 108 l 294 301 l 463 301 l 332 108 l 164 108 z "},"人":{"ha":1389,"x_min":133,"x_max":1254,"o":"m 613 628 l 614 628 l 614 928 l 775 928 l 775 628 l 774 626 l 1254 74 l 1093 74 l 693 533 l 293 74 l 133 74 l 613 626 l 613 628 z "},"亿":{"ha":1389,"x_min":113,"x_max":1275,"o":"m 747 138 l 1275 138 l 1251 74 l 544 74 l 544 138 l 1064 818 l 569 818 l 569 883 l 1257 883 l 1257 810 l 747 138 m 488 928 l 328 643 l 403 643 l 403 72 l 242 72 l 242 575 l 113 575 l 317 928 l 488 928 z "},"什":{"ha":1389,"x_min":117,"x_max":1272,"o":"m 463 921 l 319 575 l 385 575 l 385 74 l 224 74 l 224 510 l 117 510 l 297 921 l 463 921 m 1272 644 l 1235 579 l 943 579 l 943 74 l 782 74 l 782 579 l 475 579 l 475 644 l 782 644 l 782 926 l 943 926 l 943 644 l 1272 644 z "},"仁":{"ha":1389,"x_min":140,"x_max":1249,"o":"m 335 557 l 413 557 l 413 82 l 261 82 l 261 492 l 140 492 l 332 918 l 492 918 l 335 557 m 1249 210 l 1206 146 l 468 146 l 468 210 l 1249 210 m 1197 807 l 1154 743 l 519 743 l 519 807 l 1197 807 z "},"仅":{"ha":1389,"x_min":93,"x_max":1294,"o":"m 1051 656 l 1051 918 l 1019 860 l 489 860 l 489 925 l 1217 925 l 1217 590 l 983 385 l 1294 75 l 1082 75 l 871 285 l 636 79 l 411 79 l 761 393 l 489 663 l 703 663 l 872 494 l 1051 656 m 200 515 l 93 515 l 274 926 l 439 926 l 296 581 l 361 581 l 361 79 l 200 79 l 200 515 z "},"仆":{"ha":1389,"x_min":101,"x_max":1288,"o":"m 418 906 l 308 683 l 364 683 l 364 75 l 208 75 l 208 606 l 101 606 l 247 906 l 418 906 m 1288 258 l 1122 258 l 961 744 l 1129 744 l 1288 258 m 689 928 l 850 928 l 850 74 l 689 74 l 689 928 z "},"仇":{"ha":1389,"x_min":122,"x_max":1265,"o":"m 969 714 l 786 714 l 668 74 l 500 74 l 618 714 l 488 714 l 488 775 l 629 775 l 658 926 l 826 926 l 797 775 l 999 775 l 969 714 m 471 928 l 325 575 l 390 575 l 390 74 l 231 74 l 231 510 l 122 510 l 306 928 l 471 928 m 1243 74 l 999 74 l 999 775 l 1160 775 l 1160 135 l 1265 135 l 1243 74 z "},"今":{"ha":1389,"x_min":85,"x_max":1303,"o":"m 124 536 l 1253 536 l 1253 476 l 785 79 l 578 79 l 1044 476 l 160 476 l 124 536 m 1132 922 l 1303 576 l 1119 576 l 979 861 l 450 861 l 450 922 l 1132 922 m 267 576 l 85 576 l 256 922 l 438 922 l 267 576 m 804 576 l 621 576 l 560 701 l 743 701 l 804 576 z "},"介":{"ha":1389,"x_min":86,"x_max":1301,"o":"m 1132 78 l 974 78 l 974 629 l 1132 629 l 1132 78 m 150 78 l 285 629 l 443 629 l 308 78 l 150 78 m 1117 919 l 1301 672 l 1118 672 l 978 861 l 511 861 l 475 922 l 1117 922 l 1117 919 m 454 922 l 268 672 l 86 672 l 271 922 l 454 922 z "},"仍":{"ha":1389,"x_min":119,"x_max":1268,"o":"m 713 82 l 554 82 l 701 817 l 546 817 l 546 881 l 1203 881 l 1119 585 l 1268 585 l 1239 96 l 1239 82 l 932 82 l 885 147 l 1081 147 l 1103 521 l 943 521 l 1026 817 l 860 817 l 713 82 m 326 557 l 408 557 l 408 82 l 249 82 l 249 492 l 119 492 l 322 918 l 490 918 l 326 557 z "},"从":{"ha":1389,"x_min":128,"x_max":1261,"o":"m 1083 85 l 931 531 l 817 86 l 633 86 l 661 197 l 508 197 l 411 472 l 313 86 l 128 86 l 340 915 l 524 915 l 419 507 l 576 507 l 672 238 l 844 915 l 1029 915 l 938 560 l 1099 560 l 1261 85 l 1083 85 z "},"仑":{"ha":1389,"x_min":110,"x_max":1279,"o":"m 446 240 l 446 318 l 1140 589 l 1140 511 l 446 240 m 708 831 l 110 517 l 110 626 l 707 947 l 1279 631 l 1279 521 l 708 831 m 249 53 l 249 569 l 401 569 l 401 114 l 1238 114 l 1193 53 l 249 53 z "},"仓":{"ha":1389,"x_min":138,"x_max":1250,"o":"m 292 556 l 919 556 l 886 492 l 474 492 l 474 138 l 1222 138 l 1196 74 l 292 74 l 292 556 m 346 576 l 138 576 l 401 928 l 779 928 l 743 864 l 561 864 l 346 576 m 1043 576 l 779 928 l 986 928 l 1250 576 l 1043 576 m 919 307 l 919 556 l 1100 556 l 1100 242 l 761 242 l 761 307 l 919 307 z "},"仔":{"ha":1389,"x_min":104,"x_max":1285,"o":"m 1194 922 l 1194 857 l 967 596 l 968 596 l 968 536 l 1285 536 l 1249 471 l 968 471 l 968 81 l 575 81 l 536 146 l 807 146 l 807 471 l 468 471 l 468 536 l 807 536 l 807 644 l 988 856 l 532 856 l 532 922 l 1194 922 m 408 686 l 408 78 l 228 78 l 228 608 l 104 608 l 267 908 l 438 908 l 328 686 l 408 686 z "},"他":{"ha":1389,"x_min":85,"x_max":1303,"o":"m 1303 143 l 1267 76 l 518 76 l 518 603 l 382 571 l 382 644 l 518 675 l 518 925 l 664 925 l 664 708 l 810 742 l 810 925 l 956 925 l 956 775 l 1249 842 l 1249 772 l 1247 772 l 1247 228 l 1029 228 l 993 294 l 1101 294 l 1101 739 l 956 704 l 956 228 l 810 228 l 810 671 l 664 636 l 664 143 l 1303 143 m 286 579 l 353 579 l 353 76 l 192 76 l 192 513 l 85 513 l 264 925 l 431 925 l 286 579 z "},"仗":{"ha":1389,"x_min":114,"x_max":1275,"o":"m 657 713 l 828 529 l 971 699 l 971 771 l 450 771 l 450 832 l 971 832 l 971 908 l 1129 908 l 1129 832 l 1275 832 l 1246 771 l 1129 771 l 1129 633 l 939 410 l 1256 74 l 1032 74 l 835 288 l 653 74 l 442 74 l 725 408 l 449 713 l 657 713 m 460 926 l 317 581 l 382 581 l 382 79 l 221 79 l 221 515 l 114 515 l 294 926 l 460 926 z "},"付":{"ha":1389,"x_min":101,"x_max":1286,"o":"m 1251 729 l 1174 729 l 1174 72 l 785 72 l 747 139 l 1014 139 l 1014 729 l 431 729 l 431 790 l 1014 790 l 1014 928 l 1174 928 l 1174 790 l 1286 790 l 1251 729 m 365 706 l 365 72 l 210 72 l 210 628 l 101 628 l 249 928 l 418 928 l 310 706 l 365 706 m 656 253 l 583 607 l 751 607 l 821 253 l 656 253 z "},"仙":{"ha":1389,"x_min":122,"x_max":1265,"o":"m 1104 824 l 1265 824 l 1265 74 l 1104 74 l 1104 110 l 464 74 l 464 824 l 625 824 l 625 149 l 785 157 l 785 926 l 943 926 l 943 165 l 1104 175 l 1104 824 m 229 608 l 122 608 l 268 908 l 439 908 l 329 686 l 385 686 l 385 78 l 229 78 l 229 608 z "},"代":{"ha":1389,"x_min":121,"x_max":1267,"o":"m 440 928 l 333 704 l 396 704 l 396 74 l 238 74 l 238 626 l 121 626 l 269 928 l 440 928 m 1229 756 l 967 756 l 1228 75 l 1058 75 l 799 756 l 472 756 l 472 821 l 774 821 l 732 928 l 900 928 l 942 821 l 1044 821 l 1003 928 l 1174 928 l 1215 821 l 1267 821 l 1229 756 z "},"令":{"ha":1389,"x_min":85,"x_max":1304,"o":"m 161 536 l 1233 536 l 1233 467 l 786 151 l 886 74 l 635 74 l 235 382 l 485 382 l 644 260 l 939 467 l 161 467 l 161 536 m 310 572 l 85 572 l 414 928 l 976 928 l 1304 572 l 1079 572 l 797 858 l 592 858 l 310 572 m 554 753 l 729 753 l 808 564 l 633 564 l 554 753 z "},"以":{"ha":1389,"x_min":135,"x_max":1254,"o":"m 571 74 l 907 928 l 1063 928 l 904 525 l 1011 525 l 1254 74 l 1089 74 l 879 460 l 726 74 l 571 74 m 594 160 l 135 74 l 135 928 l 290 928 l 290 168 l 594 226 l 594 160 m 444 394 l 350 846 l 518 846 l 610 394 l 444 394 z "},"仪":{"ha":1389,"x_min":113,"x_max":1276,"o":"m 242 575 l 113 575 l 317 928 l 488 928 l 329 643 l 403 643 l 403 72 l 242 72 l 242 575 m 1276 776 l 985 414 l 1261 71 l 1058 71 l 883 288 l 710 71 l 507 71 l 782 414 l 490 776 l 693 776 l 883 539 l 1074 776 l 1276 776 m 982 732 l 797 732 l 722 929 l 907 929 l 982 732 z "},"们":{"ha":1389,"x_min":86,"x_max":1301,"o":"m 435 928 l 289 626 l 354 626 l 354 74 l 193 74 l 193 561 l 86 561 l 269 928 l 435 928 m 1143 896 l 1301 896 l 1301 76 l 951 76 l 931 138 l 1143 138 l 1143 896 m 658 74 l 469 74 l 469 696 l 658 696 l 658 74 m 683 731 l 510 731 l 474 921 l 647 921 l 683 731 m 1143 896 l 1107 829 l 710 829 l 710 896 l 1143 896 z "},"仰":{"ha":1389,"x_min":111,"x_max":1278,"o":"m 1278 908 l 1278 189 l 1061 267 l 1061 333 l 1132 311 l 1132 846 l 1025 846 l 1025 75 l 876 75 l 876 908 l 1278 908 m 279 925 l 446 925 l 314 608 l 376 608 l 376 75 l 218 75 l 218 547 l 111 547 l 279 925 m 750 178 l 478 143 l 478 861 l 665 861 l 689 907 l 844 907 l 782 800 l 624 800 l 624 225 l 789 246 l 750 178 z "},"仲":{"ha":1389,"x_min":113,"x_max":1275,"o":"m 936 397 l 1117 397 l 1117 794 l 1275 794 l 1275 332 l 936 332 l 936 69 l 781 69 l 781 332 l 426 332 l 426 794 l 781 794 l 781 931 l 936 931 l 936 794 l 1117 794 l 1079 728 l 936 728 l 936 397 m 233 565 l 113 565 l 292 932 l 465 932 l 317 628 l 388 628 l 388 86 l 233 86 l 233 565 m 781 728 l 585 728 l 585 397 l 781 397 l 781 728 z "},"件":{"ha":1389,"x_min":85,"x_max":1303,"o":"m 197 585 l 85 585 l 250 914 l 421 914 l 304 682 l 356 682 l 356 72 l 197 72 l 197 585 m 982 738 l 982 382 l 1303 382 l 1268 321 l 982 321 l 982 75 l 824 75 l 824 321 l 449 321 l 449 382 l 824 382 l 824 738 l 653 738 l 568 571 l 397 571 l 563 899 l 733 899 l 683 799 l 824 799 l 824 928 l 982 928 l 982 799 l 1303 799 l 1268 738 l 982 738 z "},"价":{"ha":1389,"x_min":85,"x_max":1303,"o":"m 192 510 l 85 510 l 264 921 l 431 921 l 286 575 l 353 575 l 353 74 l 192 74 l 192 510 m 1133 547 l 1133 74 l 975 74 l 975 547 l 1133 547 m 828 824 l 1035 824 l 1303 583 l 1096 583 l 828 824 m 382 585 l 711 929 l 918 929 l 589 585 l 382 585 m 525 558 l 685 558 l 685 243 l 588 72 l 426 72 l 525 243 l 525 558 z "},"任":{"ha":1389,"x_min":118,"x_max":1271,"o":"m 1207 881 l 1163 815 l 933 801 l 933 543 l 1271 543 l 1228 478 l 933 478 l 933 167 l 1221 167 l 1176 103 l 933 103 l 933 101 l 779 101 l 779 103 l 518 103 l 518 167 l 779 167 l 779 478 l 468 478 l 468 543 l 779 543 l 779 792 l 531 778 l 531 842 l 1207 881 m 313 556 l 390 556 l 390 101 l 239 101 l 239 493 l 118 493 l 310 900 l 469 900 l 313 556 z "},"份":{"ha":1389,"x_min":99,"x_max":1290,"o":"m 439 539 l 1243 539 l 1243 74 l 883 74 l 847 139 l 1082 139 l 1082 474 l 747 474 l 603 74 l 432 74 l 586 474 l 439 474 l 439 539 m 1131 582 l 1000 926 l 1161 926 l 1290 582 l 1131 582 m 442 582 l 564 926 l 724 926 l 601 582 l 442 582 m 301 582 l 367 582 l 367 81 l 207 81 l 207 517 l 99 517 l 279 928 l 446 928 l 301 582 z "},"仿":{"ha":1389,"x_min":110,"x_max":1279,"o":"m 699 722 l 699 603 l 1068 603 l 1031 536 l 699 536 l 699 272 l 583 72 l 424 72 l 540 272 l 540 722 l 444 722 l 444 788 l 819 788 l 761 928 l 919 928 l 978 788 l 1279 788 l 1242 722 l 699 722 m 321 704 l 385 704 l 385 74 l 226 74 l 226 626 l 110 626 l 258 928 l 428 928 l 321 704 m 1068 139 l 1068 603 l 1226 603 l 1226 72 l 946 72 l 910 139 l 1068 139 z "},"企":{"ha":1389,"x_min":153,"x_max":1235,"o":"m 1179 74 l 172 74 l 172 139 l 256 139 l 256 493 l 411 493 l 411 139 l 615 139 l 615 757 l 771 757 l 771 451 l 1132 451 l 1094 385 l 771 385 l 771 139 l 1215 139 l 1179 74 m 411 928 l 976 928 l 1235 603 l 1053 603 l 831 863 l 550 863 l 328 603 l 153 603 l 411 928 z "},"伊":{"ha":1389,"x_min":118,"x_max":1269,"o":"m 949 378 l 950 378 l 950 339 l 800 83 l 642 83 l 793 339 l 793 397 l 531 397 l 531 463 l 793 463 l 793 613 l 560 613 l 560 675 l 793 675 l 793 822 l 531 822 l 531 890 l 1113 890 l 1076 822 l 949 822 l 949 675 l 1113 675 l 1113 890 l 1269 890 l 1269 397 l 949 397 l 949 378 m 382 694 l 382 86 l 225 86 l 225 617 l 118 617 l 264 917 l 435 917 l 325 694 l 382 694 m 1113 463 l 1113 613 l 949 613 l 949 463 l 1113 463 z "},"伍":{"ha":1389,"x_min":99,"x_max":1289,"o":"m 1289 142 l 1253 76 l 449 76 l 449 142 l 568 142 l 614 574 l 483 574 l 483 640 l 621 640 l 643 850 l 469 850 l 469 915 l 1242 915 l 1204 850 l 815 850 l 793 640 l 1165 640 l 1165 142 l 1289 142 m 444 925 l 300 579 l 367 579 l 367 76 l 206 76 l 206 513 l 99 513 l 278 925 l 444 925 m 1000 574 l 786 574 l 740 142 l 1000 142 l 1000 574 z "},"伏":{"ha":1389,"x_min":85,"x_max":1303,"o":"m 1268 618 l 933 618 l 933 563 l 888 493 l 988 493 l 1303 74 l 1121 74 l 850 435 l 617 74 l 428 74 l 772 617 l 772 618 l 421 618 l 421 679 l 772 679 l 772 928 l 933 928 l 933 679 l 1303 679 l 1268 618 m 338 782 l 372 782 l 372 74 l 215 74 l 215 644 l 85 644 l 267 928 l 438 928 l 338 782 m 1075 714 l 1015 894 l 1183 894 l 1240 714 l 1075 714 z "},"伐":{"ha":1389,"x_min":128,"x_max":1261,"o":"m 340 703 l 403 703 l 403 74 l 244 74 l 244 625 l 128 625 l 276 928 l 447 928 l 340 703 m 1086 74 l 926 328 l 689 192 l 524 186 l 885 393 l 714 664 l 442 664 l 442 729 l 674 729 l 549 928 l 724 928 l 849 729 l 1228 729 l 1192 664 l 890 664 l 1013 467 l 1063 496 l 1228 500 l 1054 401 l 1261 74 l 1086 74 m 933 775 l 863 892 l 1040 892 l 1111 775 l 933 775 z "},"休":{"ha":1389,"x_min":83,"x_max":1304,"o":"m 215 557 l 83 557 l 267 924 l 438 924 l 322 694 l 371 694 l 371 85 l 215 85 l 215 557 m 956 806 l 1304 806 l 1275 740 l 956 740 l 956 76 l 794 76 l 794 740 l 715 740 l 590 100 l 414 100 l 539 740 l 444 740 l 444 806 l 794 806 l 794 924 l 956 924 l 956 806 m 1194 668 l 1304 100 l 1128 100 l 1017 668 l 1194 668 z "},"众":{"ha":1389,"x_min":78,"x_max":1311,"o":"m 549 531 l 354 531 l 613 928 l 808 928 l 738 819 l 919 819 l 1119 531 l 931 531 l 735 813 l 549 531 m 889 483 l 1067 483 l 1014 371 l 1182 371 l 1311 74 l 1138 74 l 1011 364 l 872 74 l 694 74 l 889 483 m 254 74 l 78 74 l 272 483 l 450 483 l 397 371 l 565 371 l 694 74 l 521 74 l 394 364 l 254 74 z "},"优":{"ha":1389,"x_min":110,"x_max":1278,"o":"m 1239 667 l 1060 667 l 1060 146 l 1278 146 l 1242 74 l 901 74 l 901 667 l 743 667 l 632 74 l 471 74 l 582 667 l 464 667 l 464 740 l 596 740 l 631 926 l 792 926 l 757 740 l 1275 740 l 1239 667 m 472 926 l 326 582 l 392 582 l 392 74 l 232 74 l 232 517 l 110 517 l 307 926 l 472 926 m 1208 768 l 1050 768 l 960 926 l 1118 926 l 1208 768 z "},"伙":{"ha":1389,"x_min":128,"x_max":1260,"o":"m 538 483 l 436 817 l 604 817 l 697 501 l 697 928 l 858 928 l 858 467 l 844 444 l 926 444 l 1260 72 l 1051 72 l 799 372 l 608 75 l 421 75 l 685 483 l 538 483 m 474 918 l 331 572 l 396 572 l 396 76 l 235 76 l 235 506 l 128 506 l 308 918 l 474 918 m 864 483 l 1036 817 l 1204 817 l 1031 483 l 864 483 z "},"会":{"ha":1389,"x_min":103,"x_max":1285,"o":"m 678 936 l 1285 704 l 1285 607 l 678 831 l 103 603 l 103 697 l 678 936 m 1263 439 l 1217 378 l 539 378 l 354 126 l 1007 126 l 861 297 l 1068 297 l 1269 64 l 119 64 l 349 378 l 129 378 l 129 439 l 1263 439 m 1019 582 l 354 582 l 354 643 l 1050 643 l 1019 582 z "},"伞":{"ha":1389,"x_min":93,"x_max":1294,"o":"m 774 74 l 615 74 l 615 224 l 113 224 l 113 289 l 615 289 l 615 668 l 774 668 l 774 289 l 1275 289 l 1239 224 l 774 224 l 774 74 m 314 565 l 93 565 l 556 928 l 776 928 l 314 565 m 1294 565 l 1074 565 l 701 849 l 922 849 l 1294 565 m 413 529 l 464 331 l 306 331 l 254 529 l 413 529 m 1133 529 l 1082 331 l 924 331 l 975 529 l 1133 529 z "},"伟":{"ha":1389,"x_min":106,"x_max":1283,"o":"m 1283 857 l 1243 792 l 872 792 l 872 706 l 1243 706 l 1203 640 l 872 640 l 872 554 l 1283 554 l 1283 74 l 1022 74 l 986 140 l 1125 140 l 1125 551 l 1086 489 l 872 489 l 872 74 l 714 74 l 714 489 l 406 489 l 406 554 l 714 554 l 714 640 l 422 640 l 422 706 l 714 706 l 714 792 l 406 792 l 406 857 l 714 857 l 714 928 l 872 928 l 872 857 l 1283 857 m 360 74 l 201 74 l 201 565 l 106 565 l 261 926 l 422 926 l 289 617 l 360 617 l 360 74 z "},"传":{"ha":1389,"x_min":85,"x_max":1304,"o":"m 1267 525 l 732 525 l 706 451 l 1200 451 l 1200 390 l 1196 390 l 1200 393 l 996 393 l 992 390 l 528 390 l 528 451 l 554 525 l 431 525 l 431 592 l 578 592 l 626 725 l 481 725 l 481 792 l 650 792 l 700 928 l 878 928 l 828 792 l 1281 792 l 1244 725 l 804 725 l 756 592 l 1304 592 l 1267 525 m 444 921 l 301 575 l 367 575 l 367 74 l 193 74 l 193 510 l 85 510 l 265 921 l 444 921 m 782 74 l 982 74 l 906 146 l 1196 390 l 992 390 l 810 238 l 738 307 l 535 307 l 782 74 z "},"伤":{"ha":1389,"x_min":106,"x_max":1282,"o":"m 654 74 l 496 74 l 658 578 l 483 578 l 483 644 l 681 644 l 710 735 l 868 735 l 839 644 l 1243 644 l 1243 74 l 850 74 l 814 140 l 1082 140 l 1082 578 l 817 578 l 654 74 m 368 74 l 217 74 l 217 589 l 106 589 l 225 928 l 383 928 l 311 724 l 368 724 l 368 74 m 429 693 l 507 928 l 665 928 l 643 863 l 1282 863 l 1246 797 l 622 797 l 588 693 l 429 693 z "},"伦":{"ha":1389,"x_min":125,"x_max":1264,"o":"m 293 928 l 458 928 l 326 611 l 390 611 l 390 74 l 232 74 l 232 551 l 125 551 l 293 928 m 1061 215 l 1226 215 l 1189 74 l 622 74 l 622 553 l 789 553 l 789 336 l 931 479 l 1139 479 l 914 253 l 789 253 l 789 140 l 1040 140 l 1061 215 m 671 900 l 1056 900 l 1264 539 l 1090 539 l 911 835 l 810 835 l 597 540 l 424 540 l 671 900 z "},"伪":{"ha":1389,"x_min":96,"x_max":1292,"o":"m 1292 75 l 908 75 l 863 142 l 1133 142 l 1133 671 l 832 671 l 597 72 l 400 72 l 636 671 l 413 671 l 413 736 l 663 736 l 736 921 l 931 921 l 858 736 l 1292 736 l 1292 75 m 351 75 l 193 75 l 193 567 l 96 567 l 253 928 l 413 928 l 279 618 l 351 618 l 351 75 m 928 264 l 815 550 l 986 550 l 1100 264 l 928 264 m 494 771 l 435 928 l 604 928 l 665 771 l 494 771 z "},"伯":{"ha":1389,"x_min":89,"x_max":1299,"o":"m 860 928 l 815 846 l 1144 846 l 1108 781 l 615 781 l 615 528 l 1144 528 l 1144 846 l 1299 846 l 1299 72 l 457 72 l 457 846 l 644 846 l 692 928 l 860 928 m 615 464 l 615 136 l 1144 136 l 1144 464 l 615 464 m 439 928 l 292 575 l 357 575 l 357 72 l 197 72 l 197 508 l 89 508 l 272 928 l 439 928 z "},"估":{"ha":1389,"x_min":100,"x_max":1289,"o":"m 453 917 l 353 771 l 388 771 l 388 76 l 232 76 l 232 635 l 100 635 l 282 917 l 453 917 m 947 718 l 947 528 l 1249 528 l 1249 81 l 496 81 l 496 528 l 789 528 l 789 718 l 460 718 l 460 785 l 789 785 l 789 924 l 947 924 l 947 785 l 1289 785 l 1251 718 l 947 718 m 1053 464 l 653 464 l 653 140 l 1094 140 l 1094 506 l 1053 464 z "},"伴":{"ha":1389,"x_min":94,"x_max":1293,"o":"m 918 646 l 1221 646 l 1183 579 l 918 579 l 918 333 l 1293 333 l 1260 269 l 918 269 l 918 82 l 769 82 l 769 269 l 426 269 l 426 333 l 769 333 l 769 579 l 465 579 l 465 646 l 769 646 l 769 918 l 918 918 l 918 646 m 1247 889 l 1161 694 l 1006 694 l 1093 889 l 1247 889 m 601 889 l 689 694 l 533 694 l 443 889 l 601 889 m 358 692 l 358 82 l 201 82 l 201 614 l 94 614 l 240 914 l 411 914 l 301 692 l 358 692 z "},"伶":{"ha":1389,"x_min":89,"x_max":1299,"o":"m 290 578 l 357 578 l 357 76 l 196 76 l 196 513 l 89 513 l 269 925 l 435 925 l 290 578 m 928 542 l 1242 542 l 1242 476 l 921 168 l 1008 76 l 813 76 l 492 415 l 688 415 l 819 275 l 1022 476 l 426 476 l 426 542 l 767 542 l 704 721 l 576 579 l 379 579 l 693 925 l 889 925 l 858 890 l 1032 890 l 1299 579 l 1101 579 l 847 879 l 707 724 l 865 724 l 928 542 z "},"伸":{"ha":1389,"x_min":113,"x_max":1275,"o":"m 1082 746 l 956 746 l 956 563 l 1119 563 l 1119 814 l 1275 814 l 1275 247 l 956 247 l 956 74 l 797 74 l 797 247 l 478 247 l 478 814 l 797 814 l 797 926 l 956 926 l 956 814 l 1118 814 l 1082 746 m 281 925 l 446 925 l 314 608 l 378 608 l 378 75 l 219 75 l 219 547 l 113 547 l 281 925 m 1119 313 l 1119 499 l 956 499 l 956 313 l 1119 313 m 636 313 l 797 313 l 797 499 l 636 499 l 636 313 m 636 563 l 797 563 l 797 746 l 636 746 l 636 563 z "},"伺":{"ha":1389,"x_min":96,"x_max":1292,"o":"m 475 214 l 475 663 l 1065 663 l 1065 214 l 475 214 m 1292 915 l 1292 83 l 913 83 l 875 150 l 1133 150 l 1133 915 l 1292 915 m 442 925 l 297 579 l 364 579 l 364 76 l 203 76 l 203 513 l 96 513 l 276 925 l 442 925 m 907 654 l 875 597 l 633 597 l 633 274 l 907 274 l 907 654 m 475 915 l 1133 915 l 1096 850 l 475 850 l 475 915 m 1057 718 l 475 718 l 475 783 l 1093 783 l 1057 718 z "},"似":{"ha":1389,"x_min":96,"x_max":1293,"o":"m 1293 75 l 1119 75 l 992 418 l 851 75 l 669 75 l 846 506 l 696 506 l 600 871 l 750 871 l 846 507 l 1018 926 l 1200 926 l 1015 478 l 1140 478 l 1293 75 m 297 581 l 364 581 l 364 78 l 203 78 l 203 514 l 96 514 l 276 926 l 442 926 l 297 581 m 725 275 l 429 163 l 429 796 l 586 796 l 586 297 l 754 358 l 725 275 z "},"佃":{"ha":1389,"x_min":86,"x_max":1301,"o":"m 1301 83 l 460 83 l 460 918 l 1143 918 l 1107 851 l 968 851 l 968 533 l 1143 533 l 1143 918 l 1301 918 l 1301 83 m 428 918 l 289 585 l 354 585 l 354 83 l 193 83 l 193 519 l 86 519 l 261 918 l 428 918 m 618 150 l 810 150 l 810 468 l 618 468 l 618 150 m 618 533 l 810 533 l 810 851 l 618 851 l 618 533 m 968 150 l 1143 150 l 1143 468 l 968 468 l 968 150 z "},"但":{"ha":1389,"x_min":110,"x_max":1279,"o":"m 1188 264 l 504 264 l 504 928 l 1029 928 l 996 865 l 663 865 l 663 628 l 1029 628 l 1029 928 l 1188 928 l 1188 264 m 322 704 l 385 704 l 385 74 l 226 74 l 226 626 l 110 626 l 258 928 l 429 928 l 322 704 m 663 328 l 1029 328 l 1029 565 l 663 565 l 663 328 m 424 138 l 1279 138 l 1279 74 l 424 74 l 424 138 z "},"位":{"ha":1389,"x_min":103,"x_max":1285,"o":"m 1285 136 l 1249 71 l 417 71 l 417 136 l 593 136 l 497 649 l 646 649 l 743 136 l 940 136 l 1039 649 l 1188 649 l 1092 136 l 1285 136 m 438 817 l 767 817 l 767 931 l 925 931 l 925 817 l 1271 817 l 1235 751 l 438 751 l 438 817 m 304 576 l 371 576 l 371 75 l 210 75 l 210 511 l 103 511 l 283 922 l 449 922 l 304 576 z "},"低":{"ha":1389,"x_min":85,"x_max":1303,"o":"m 1267 504 l 1181 504 l 1285 74 l 1119 74 l 1013 504 l 625 504 l 625 139 l 850 139 l 811 74 l 458 74 l 458 893 l 460 893 l 1285 928 l 1285 863 l 1096 854 l 1164 571 l 1303 571 l 1267 504 m 433 928 l 288 575 l 353 575 l 353 74 l 192 74 l 192 510 l 85 510 l 268 928 l 433 928 m 625 833 l 625 571 l 996 571 l 928 846 l 625 833 m 883 74 l 832 267 l 1000 267 l 1049 74 l 883 74 z "},"住":{"ha":1389,"x_min":119,"x_max":1268,"o":"m 324 621 l 393 621 l 393 78 l 239 78 l 239 558 l 119 558 l 297 924 l 471 924 l 324 621 m 921 150 l 1268 150 l 1231 83 l 425 83 l 425 150 l 763 150 l 763 438 l 510 438 l 510 503 l 763 503 l 763 717 l 463 717 l 463 783 l 742 783 l 696 921 l 864 921 l 910 783 l 1240 783 l 1204 717 l 921 717 l 921 503 l 1193 503 l 1157 438 l 921 438 l 921 150 z "},"佐":{"ha":1389,"x_min":110,"x_max":1278,"o":"m 1210 450 l 975 450 l 975 147 l 1278 147 l 1240 82 l 419 82 l 419 147 l 817 147 l 817 450 l 678 450 l 599 282 l 433 282 l 639 719 l 433 719 l 433 785 l 669 785 l 733 919 l 899 919 l 835 785 l 1269 785 l 1233 719 l 804 719 l 708 515 l 1247 515 l 1210 450 m 379 692 l 379 82 l 217 82 l 217 613 l 110 613 l 256 913 l 426 913 l 317 692 l 379 692 z "},"佑":{"ha":1389,"x_min":103,"x_max":1286,"o":"m 713 765 l 601 533 l 1103 533 l 1065 468 l 681 468 l 681 139 l 1103 139 l 1103 533 l 1261 533 l 1261 74 l 521 74 l 521 389 l 371 389 l 371 76 l 210 76 l 210 513 l 103 513 l 283 925 l 449 925 l 303 579 l 371 579 l 371 396 l 556 765 l 449 765 l 449 831 l 588 831 l 636 928 l 792 928 l 744 831 l 1286 831 l 1250 765 l 713 765 z "},"体":{"ha":1389,"x_min":100,"x_max":1288,"o":"m 408 139 l 600 736 l 456 736 l 456 803 l 767 803 l 767 928 l 925 928 l 925 803 l 1288 803 l 1250 736 l 925 736 l 925 221 l 1086 221 l 1050 156 l 925 156 l 925 75 l 767 75 l 767 156 l 617 156 l 617 221 l 767 221 l 767 732 l 569 139 l 408 139 m 344 694 l 394 694 l 394 72 l 235 72 l 235 556 l 100 556 l 288 929 l 461 929 l 344 694 m 1125 139 l 936 679 l 1104 679 l 1286 139 l 1125 139 z "},"何":{"ha":1389,"x_min":82,"x_max":1307,"o":"m 932 82 l 896 144 l 1067 144 l 1067 825 l 378 825 l 418 904 l 1307 904 l 1251 825 l 1231 825 l 1231 82 l 932 82 m 979 201 l 469 201 l 469 743 l 832 743 l 794 676 l 622 676 l 622 271 l 832 271 l 832 743 l 979 743 l 979 201 m 350 82 l 189 82 l 189 625 l 82 625 l 221 919 l 386 919 l 276 685 l 350 685 l 350 82 z "},"佘":{"ha":1389,"x_min":88,"x_max":1301,"o":"m 793 449 l 793 69 l 567 69 l 532 132 l 629 132 l 629 449 l 90 449 l 90 510 l 1301 510 l 1253 449 l 793 449 m 901 871 l 571 871 l 571 931 l 1014 931 l 1299 558 l 1140 558 l 901 871 m 246 558 l 88 558 l 374 931 l 532 931 l 246 558 m 361 339 l 519 339 l 258 88 l 100 88 l 361 339 m 1035 339 l 1296 88 l 1138 88 l 876 339 l 1035 339 m 397 672 l 999 672 l 950 611 l 397 611 l 397 672 z "},"余":{"ha":1389,"x_min":86,"x_max":1301,"o":"m 1256 336 l 792 336 l 792 74 l 464 74 l 464 139 l 614 139 l 614 336 l 103 336 l 103 401 l 614 401 l 614 549 l 225 549 l 225 615 l 1171 615 l 1135 549 l 792 549 l 792 401 l 1293 401 l 1256 336 m 336 660 l 86 660 l 549 928 l 829 928 l 1301 660 l 1046 660 l 688 863 l 336 660 m 336 75 l 133 75 l 246 297 l 447 297 l 336 75 m 1260 75 l 1057 75 l 946 297 l 1147 297 l 1260 75 z "},"佛":{"ha":1389,"x_min":85,"x_max":1304,"o":"m 1051 553 l 1051 390 l 1304 390 l 1304 119 l 1103 119 l 1067 186 l 1143 186 l 1143 325 l 1051 325 l 1051 75 l 893 75 l 893 325 l 803 325 l 629 74 l 454 74 l 617 325 l 436 325 l 436 619 l 656 619 l 656 772 l 443 772 l 443 838 l 656 838 l 656 928 l 817 928 l 817 838 l 893 838 l 893 928 l 1051 928 l 1051 838 l 1304 838 l 1304 553 l 1051 553 m 324 699 l 372 699 l 372 74 l 217 74 l 217 563 l 85 563 l 268 928 l 439 928 l 324 699 m 1143 772 l 1051 772 l 1051 619 l 1143 619 l 1143 772 m 893 553 l 817 553 l 817 390 l 893 390 l 893 553 m 817 619 l 893 619 l 893 772 l 817 772 l 817 619 m 594 390 l 656 390 l 656 553 l 594 553 l 594 390 z "},"作":{"ha":1389,"x_min":108,"x_max":1281,"o":"m 1251 606 l 1215 539 l 869 539 l 869 361 l 1250 361 l 1214 296 l 869 296 l 869 81 l 686 81 l 686 658 l 640 568 l 440 568 l 618 919 l 817 919 l 768 824 l 1281 824 l 1243 758 l 869 758 l 869 606 l 1251 606 m 411 693 l 411 85 l 231 85 l 231 615 l 108 615 l 269 915 l 440 915 l 331 693 l 411 693 z "},"你":{"ha":1389,"x_min":96,"x_max":1293,"o":"m 442 924 l 299 578 l 364 578 l 364 75 l 203 75 l 203 511 l 96 511 l 276 924 l 442 924 m 726 75 l 693 139 l 790 139 l 790 765 l 953 765 l 953 75 l 726 75 m 1293 853 l 1254 665 l 1103 665 l 1132 789 l 646 785 l 624 722 l 460 722 l 533 926 l 696 926 l 669 853 l 1293 853 m 564 626 l 724 626 l 626 124 l 460 124 l 564 626 m 1264 124 l 1099 124 l 1006 583 l 1165 583 l 1264 124 z "},"佣":{"ha":1389,"x_min":106,"x_max":1282,"o":"m 663 247 l 594 74 l 433 74 l 503 265 l 503 928 l 1282 928 l 1282 74 l 1040 74 l 1003 139 l 1122 139 l 1122 357 l 967 357 l 967 75 l 808 75 l 808 357 l 663 357 l 663 247 m 468 928 l 322 583 l 388 583 l 388 75 l 228 75 l 228 518 l 106 518 l 303 928 l 468 928 m 1122 863 l 967 863 l 967 682 l 1122 682 l 1122 863 m 967 429 l 1122 429 l 1122 608 l 967 608 l 967 429 m 663 682 l 808 682 l 808 863 l 663 863 l 663 682 m 663 429 l 808 429 l 808 608 l 663 608 l 663 429 z "},"佩":{"ha":1389,"x_min":88,"x_max":1300,"o":"m 1236 928 l 1236 135 l 1300 135 l 1264 74 l 1078 74 l 1078 868 l 599 868 l 599 74 l 406 74 l 406 135 l 440 135 l 440 928 l 1236 928 m 893 749 l 893 658 l 1032 658 l 1032 115 l 924 115 l 924 597 l 893 597 l 893 74 l 783 74 l 783 597 l 744 597 l 744 115 l 636 115 l 636 658 l 783 658 l 783 749 l 636 749 l 636 810 l 1044 810 l 1008 749 l 893 749 m 253 928 l 424 928 l 304 690 l 358 690 l 358 74 l 199 74 l 199 600 l 88 600 l 253 928 z "},"佳":{"ha":1389,"x_min":104,"x_max":1285,"o":"m 1250 76 l 436 76 l 436 142 l 782 142 l 782 311 l 476 311 l 476 375 l 782 375 l 782 481 l 940 481 l 940 375 l 1244 375 l 1210 311 l 940 311 l 940 142 l 1285 142 l 1250 76 m 450 925 l 306 579 l 372 579 l 372 76 l 211 76 l 211 513 l 104 513 l 285 925 l 450 925 m 1250 518 l 436 518 l 436 582 l 782 582 l 782 753 l 476 753 l 476 817 l 782 817 l 782 922 l 940 922 l 940 817 l 1244 817 l 1210 753 l 940 753 l 940 582 l 1285 582 l 1250 518 z "},"使":{"ha":1389,"x_min":85,"x_max":1304,"o":"m 926 268 l 763 268 l 594 74 l 385 74 l 553 268 l 422 268 l 385 333 l 608 333 l 660 393 l 433 393 l 433 728 l 746 728 l 746 776 l 431 776 l 431 843 l 746 843 l 746 928 l 921 928 l 921 843 l 1221 843 l 1164 776 l 921 776 l 921 728 l 1233 728 l 1233 393 l 869 393 l 818 333 l 1079 333 l 1304 74 l 1094 74 l 926 268 m 288 575 l 353 575 l 353 74 l 193 74 l 193 510 l 85 510 l 265 921 l 431 921 l 288 575 m 921 664 l 921 457 l 1081 457 l 1081 710 l 1029 664 l 921 664 m 590 457 l 746 457 l 746 664 l 590 664 l 590 457 z "},"侄":{"ha":1389,"x_min":104,"x_max":1285,"o":"m 604 799 l 461 799 l 461 864 l 1254 864 l 1218 799 l 779 799 l 658 597 l 1063 597 l 1017 682 l 1192 682 l 1272 531 l 1097 531 l 1071 581 l 1043 531 l 938 531 l 938 379 l 1229 379 l 1193 314 l 938 314 l 938 147 l 1285 147 l 1247 82 l 432 82 l 432 147 l 779 147 l 779 314 l 486 314 l 486 379 l 779 379 l 779 531 l 443 531 l 604 799 m 211 513 l 104 513 l 285 924 l 450 924 l 306 578 l 372 578 l 372 76 l 211 76 l 211 513 z "},"侈":{"ha":1389,"x_min":122,"x_max":1267,"o":"m 471 929 l 325 576 l 390 576 l 390 75 l 229 75 l 229 511 l 122 511 l 306 929 l 471 929 m 1267 201 l 510 71 l 510 139 l 699 171 l 606 331 l 779 331 l 856 199 l 1108 242 l 1108 446 l 1267 446 l 1267 201 m 1267 631 l 510 500 l 510 568 l 693 600 l 606 750 l 779 750 l 851 628 l 1108 672 l 1108 875 l 1267 875 l 1267 631 m 1078 814 l 511 814 l 588 929 l 753 929 l 717 875 l 1107 875 l 1078 814 m 1078 385 l 511 385 l 588 500 l 753 500 l 717 446 l 1107 446 l 1078 385 z "},"例":{"ha":1389,"x_min":108,"x_max":1281,"o":"m 515 861 l 515 926 l 982 926 l 960 861 l 722 861 l 700 775 l 963 775 l 867 350 l 733 74 l 572 74 l 707 354 l 726 443 l 703 443 l 631 514 l 571 286 l 410 286 l 561 861 l 515 861 m 315 560 l 374 560 l 374 72 l 213 72 l 213 492 l 108 492 l 289 928 l 460 928 l 315 560 m 1281 926 l 1281 74 l 1054 74 l 1022 136 l 1144 136 l 1144 926 l 1281 926 m 1113 249 l 975 249 l 975 785 l 1113 785 l 1113 249 m 686 618 l 751 553 l 786 708 l 682 708 l 658 618 l 686 618 z "},"侍":{"ha":1389,"x_min":96,"x_max":1293,"o":"m 1293 624 l 1258 556 l 442 556 l 442 624 l 774 624 l 774 753 l 442 753 l 442 818 l 774 818 l 774 921 l 935 921 l 935 818 l 1288 818 l 1251 753 l 935 753 l 935 624 l 1293 624 m 299 581 l 364 581 l 364 78 l 203 78 l 203 514 l 96 514 l 276 926 l 442 926 l 299 581 m 1168 446 l 1258 446 l 1235 382 l 1168 382 l 1168 75 l 835 75 l 793 140 l 1010 140 l 1010 382 l 432 382 l 432 446 l 1010 446 l 1010 533 l 1168 533 l 1168 446 m 860 160 l 694 160 l 582 349 l 749 349 l 860 160 z "},"供":{"ha":1389,"x_min":89,"x_max":1299,"o":"m 342 781 l 376 781 l 376 72 l 221 72 l 221 644 l 89 644 l 272 928 l 443 928 l 342 781 m 1181 351 l 1276 72 l 1094 72 l 993 351 l 1181 351 m 575 351 l 763 351 l 661 72 l 478 72 l 575 351 m 1263 414 l 443 414 l 443 479 l 597 479 l 597 747 l 485 747 l 485 813 l 597 813 l 597 913 l 756 913 l 756 813 l 993 813 l 993 913 l 1151 913 l 1151 813 l 1257 813 l 1221 747 l 1151 747 l 1151 479 l 1299 479 l 1263 414 m 756 479 l 993 479 l 993 747 l 756 747 l 756 479 z "},"依":{"ha":1389,"x_min":107,"x_max":1281,"o":"m 442 374 l 706 769 l 443 769 l 443 833 l 749 833 l 749 910 l 949 910 l 949 833 l 1244 833 l 1208 769 l 874 769 l 736 568 l 807 568 l 807 515 l 953 515 l 992 463 l 1110 635 l 1281 635 l 1139 424 l 1019 424 l 1274 79 l 1076 79 l 807 451 l 807 154 l 972 175 l 933 106 l 651 72 l 651 442 l 440 131 l 442 374 m 276 928 l 442 928 l 310 611 l 374 611 l 374 78 l 215 78 l 215 550 l 107 550 l 276 928 z "},"侠":{"ha":1389,"x_min":85,"x_max":1303,"o":"m 206 526 l 85 526 l 293 925 l 472 925 l 301 593 l 367 593 l 367 74 l 206 74 l 206 526 m 588 556 l 501 728 l 653 728 l 739 556 l 588 556 m 1126 728 l 1278 728 l 1190 556 l 1039 556 l 1126 728 m 807 785 l 501 785 l 501 846 l 807 846 l 807 928 l 965 928 l 965 846 l 1278 846 l 1239 785 l 965 785 l 965 503 l 1303 503 l 1264 442 l 939 442 l 608 74 l 429 74 l 760 442 l 472 442 l 472 503 l 807 503 l 807 785 m 1303 74 l 1124 74 l 869 358 l 1049 358 l 1303 74 z "},"侣":{"ha":1389,"x_min":122,"x_max":1267,"o":"m 281 926 l 472 926 l 325 607 l 378 607 l 378 74 l 219 74 l 219 546 l 122 546 l 281 926 m 479 474 l 1267 474 l 1267 76 l 479 76 l 479 474 m 1101 138 l 1101 474 l 1053 411 l 640 411 l 640 138 l 1101 138 m 522 903 l 1225 903 l 1225 546 l 522 546 l 522 903 m 1058 608 l 1058 903 l 1019 840 l 683 840 l 683 608 l 1058 608 z "},"侥":{"ha":1389,"x_min":97,"x_max":1292,"o":"m 1026 376 l 1026 142 l 1292 142 l 1253 74 l 861 74 l 861 376 l 806 376 l 594 74 l 408 74 l 621 376 l 451 376 l 451 443 l 1269 443 l 1242 376 l 1026 376 m 482 599 l 826 651 l 753 786 l 488 786 l 488 851 l 724 851 l 688 928 l 856 928 l 892 851 l 1024 851 l 1003 906 l 1174 906 l 1194 851 l 1246 851 l 1208 786 l 921 786 l 982 675 l 1242 715 l 1242 654 l 1014 618 l 1049 554 l 1261 554 l 1233 489 l 917 489 l 858 593 l 482 532 l 482 599 m 204 510 l 97 510 l 278 921 l 443 921 l 299 575 l 365 575 l 365 74 l 204 74 l 204 510 z "},"侦":{"ha":1389,"x_min":103,"x_max":1286,"o":"m 449 922 l 304 575 l 371 575 l 371 74 l 210 74 l 210 510 l 103 510 l 282 922 l 449 922 m 919 561 l 919 325 l 1000 325 l 1264 74 l 1081 74 l 872 275 l 632 74 l 422 74 l 749 347 l 749 561 l 919 561 m 1286 853 l 1258 785 l 910 785 l 910 706 l 1242 706 l 1242 288 l 1081 288 l 1081 639 l 601 639 l 601 288 l 440 288 l 440 706 l 749 706 l 749 928 l 910 928 l 910 853 l 1286 853 z "},"侧":{"ha":1389,"x_min":128,"x_max":1260,"o":"m 965 878 l 1097 878 l 1097 242 l 965 242 l 965 878 m 1031 138 l 1128 138 l 1128 928 l 1260 928 l 1260 74 l 1063 74 l 1031 138 m 242 600 l 128 600 l 293 928 l 464 928 l 344 697 l 397 697 l 397 75 l 242 75 l 242 600 m 617 313 l 476 313 l 476 878 l 800 878 l 763 814 l 617 814 l 617 313 m 800 313 l 800 878 l 938 878 l 938 313 l 800 313 m 775 313 l 726 242 l 839 242 l 947 74 l 814 74 l 715 226 l 611 74 l 476 74 l 642 313 l 642 775 l 775 775 l 775 313 z "},"侨":{"ha":1389,"x_min":107,"x_max":1282,"o":"m 1239 832 l 939 824 l 939 694 l 1282 694 l 1244 629 l 994 629 l 1276 415 l 1064 415 l 849 579 l 633 415 l 421 415 l 703 629 l 442 629 l 442 694 l 756 694 l 756 818 l 468 810 l 468 875 l 1276 899 l 1239 832 m 454 924 l 310 578 l 375 578 l 375 76 l 214 76 l 214 513 l 107 513 l 288 924 l 454 924 m 660 86 l 486 86 l 529 263 l 529 376 l 690 376 l 690 243 l 660 86 m 1031 86 l 1031 376 l 1196 376 l 1196 86 l 1031 86 z "},"侮":{"ha":1389,"x_min":103,"x_max":1286,"o":"m 1193 244 l 1265 244 l 1229 179 l 1193 179 l 1193 71 l 800 71 l 767 135 l 1036 135 l 1036 179 l 489 179 l 489 414 l 418 414 l 418 479 l 489 479 l 489 714 l 1193 714 l 1193 479 l 1286 479 l 1250 414 l 1193 414 l 1193 244 m 306 582 l 371 582 l 371 79 l 210 79 l 210 515 l 103 515 l 283 928 l 449 928 l 306 582 m 426 753 l 503 931 l 663 931 l 639 876 l 1275 876 l 1239 811 l 613 811 l 589 753 l 426 753 m 1036 414 l 647 414 l 647 244 l 801 244 l 758 365 l 918 365 l 963 244 l 1036 244 l 1036 414 m 1036 649 l 647 649 l 647 479 l 801 479 l 758 600 l 918 600 l 963 479 l 1036 479 l 1036 649 z "},"侯":{"ha":1389,"x_min":85,"x_max":1303,"o":"m 810 335 l 1303 335 l 1272 267 l 771 267 l 650 81 l 483 81 l 603 267 l 414 267 l 414 335 l 644 335 l 735 482 l 589 482 l 554 399 l 396 399 l 479 601 l 638 601 l 615 544 l 1275 544 l 1242 482 l 900 482 l 810 335 m 389 919 l 281 686 l 353 686 l 353 83 l 192 83 l 192 626 l 85 626 l 224 919 l 389 919 m 450 914 l 1247 914 l 1247 707 l 1293 707 l 1293 635 l 406 635 l 406 707 l 1068 707 l 1068 908 l 1015 849 l 450 849 l 450 914 m 1256 81 l 1096 81 l 1025 218 l 1188 218 l 1256 81 z "},"侵":{"ha":1389,"x_min":133,"x_max":1256,"o":"m 518 307 l 518 457 l 1179 457 l 1179 307 l 967 200 l 1213 74 l 985 74 l 849 142 l 713 74 l 485 74 l 731 200 l 518 307 m 474 921 l 329 575 l 394 575 l 394 74 l 240 74 l 240 510 l 133 510 l 314 921 l 474 921 m 1039 760 l 519 760 l 519 825 l 1039 825 l 1039 928 l 1197 928 l 1197 651 l 500 651 l 500 718 l 1039 718 l 1039 760 m 442 601 l 1256 601 l 1256 478 l 1100 478 l 1100 597 l 1065 536 l 597 536 l 597 478 l 442 478 l 442 601 m 1003 863 l 500 863 l 500 928 l 1039 928 l 1003 863 m 656 392 l 656 363 l 849 263 l 1042 363 l 1042 392 l 656 392 z "},"便":{"ha":1389,"x_min":92,"x_max":1297,"o":"m 878 268 l 1297 74 l 1033 74 l 779 192 l 626 74 l 419 74 l 650 251 l 446 346 l 711 346 l 749 328 l 779 351 l 779 394 l 444 394 l 444 771 l 779 771 l 779 846 l 444 846 l 444 907 l 1293 907 l 1264 846 l 958 846 l 958 771 l 1135 771 l 1106 710 l 958 710 l 958 622 l 1135 622 l 1135 771 l 1293 771 l 1293 394 l 958 394 l 958 331 l 878 268 m 282 583 l 368 583 l 368 82 l 210 82 l 210 519 l 92 519 l 264 928 l 428 928 l 282 583 m 779 456 l 779 544 l 603 544 l 603 456 l 779 456 m 958 544 l 958 456 l 1135 456 l 1135 544 l 958 544 m 603 622 l 779 622 l 779 710 l 603 710 l 603 622 z "},"促":{"ha":1389,"x_min":110,"x_max":1279,"o":"m 1279 136 l 1246 72 l 671 72 l 603 158 l 576 72 l 418 72 l 535 464 l 693 464 l 646 304 l 779 136 l 799 136 l 799 561 l 478 561 l 478 881 l 1072 881 l 1039 817 l 636 817 l 636 625 l 1072 625 l 1072 881 l 1231 881 l 1231 561 l 958 561 l 958 403 l 1231 403 l 1197 339 l 958 339 l 958 136 l 1279 136 m 317 707 l 372 707 l 372 75 l 217 75 l 217 629 l 110 629 l 256 929 l 426 929 l 317 707 z "},"俄":{"ha":1389,"x_min":110,"x_max":1278,"o":"m 1278 515 l 1178 413 l 1244 74 l 1086 74 l 1046 279 l 975 207 l 876 207 l 1029 361 l 985 590 l 750 590 l 750 435 l 881 463 l 881 397 l 750 369 l 750 74 l 468 74 l 432 139 l 592 139 l 592 335 l 403 294 l 403 361 l 592 401 l 592 590 l 403 590 l 403 657 l 592 657 l 592 779 l 432 779 l 432 846 l 729 846 l 742 928 l 900 928 l 879 779 l 750 779 l 750 657 l 972 657 l 919 928 l 1078 928 l 1131 657 l 1278 657 l 1242 590 l 1143 590 l 1161 496 l 1181 515 l 1278 515 m 321 703 l 385 703 l 385 74 l 226 74 l 226 625 l 110 625 l 258 928 l 429 928 l 321 703 m 1142 701 l 1099 900 l 1221 900 l 1263 701 l 1142 701 z "},"俊":{"ha":1389,"x_min":85,"x_max":1303,"o":"m 1024 254 l 1285 182 l 1285 74 l 839 199 l 425 74 l 425 182 l 656 250 l 500 294 l 500 401 l 839 306 l 1050 369 l 1050 418 l 460 418 l 531 533 l 697 533 l 663 479 l 1211 479 l 1211 311 l 1024 254 m 288 578 l 353 578 l 353 76 l 192 76 l 192 513 l 85 513 l 265 925 l 431 925 l 288 578 m 1036 696 l 443 696 l 583 928 l 757 928 l 657 763 l 1056 763 l 1007 847 l 1185 847 l 1265 696 l 1093 696 l 1065 744 l 1036 696 m 1225 668 l 1303 550 l 1143 550 l 1067 668 l 1225 668 m 575 550 l 417 550 l 494 668 l 653 668 l 575 550 z "},"俏":{"ha":1389,"x_min":111,"x_max":1276,"o":"m 1118 658 l 1081 593 l 646 593 l 646 485 l 1118 485 l 1118 658 l 1276 658 l 1276 74 l 881 74 l 844 139 l 1118 139 l 1118 246 l 646 246 l 646 74 l 488 74 l 488 658 l 803 658 l 803 928 l 961 928 l 961 658 l 1118 658 m 457 921 l 313 575 l 379 575 l 379 74 l 218 74 l 218 510 l 111 510 l 292 921 l 457 921 m 1118 419 l 646 419 l 646 313 l 1118 313 l 1118 419 m 1106 894 l 1276 894 l 1157 694 l 983 694 l 1106 894 m 607 694 l 488 894 l 658 894 l 781 694 l 607 694 z "},"俐":{"ha":1389,"x_min":100,"x_max":1289,"o":"m 772 74 l 614 74 l 614 363 l 581 108 l 419 108 l 486 617 l 432 617 l 432 682 l 614 682 l 614 808 l 432 796 l 432 863 l 956 900 l 956 833 l 772 819 l 772 682 l 965 682 l 944 617 l 772 617 l 772 546 l 908 546 l 965 108 l 806 108 l 772 364 l 772 74 m 307 583 l 365 583 l 365 72 l 204 72 l 204 515 l 100 515 l 279 928 l 450 928 l 307 583 m 1289 926 l 1289 74 l 1063 74 l 1031 136 l 1153 136 l 1153 926 l 1289 926 m 1125 249 l 989 249 l 989 785 l 1125 785 l 1125 249 z "},"俗":{"ha":1389,"x_min":90,"x_max":1297,"o":"m 1257 447 l 1257 76 l 418 76 l 418 447 l 1257 447 m 292 579 l 358 579 l 358 76 l 197 76 l 197 513 l 90 513 l 269 925 l 436 925 l 292 579 m 1099 442 l 1065 381 l 576 381 l 576 138 l 1099 138 l 1099 442 m 999 772 l 1292 479 l 1093 479 l 838 735 l 582 479 l 385 479 l 678 772 l 999 772 m 1100 704 l 881 925 l 1099 925 l 1297 704 l 1100 704 m 575 704 l 378 704 l 576 925 l 794 925 l 575 704 z "},"俘":{"ha":1389,"x_min":106,"x_max":1282,"o":"m 1081 518 l 479 518 l 479 581 l 1242 581 l 1242 474 l 1090 379 l 1282 379 l 1247 318 l 1011 318 l 1011 74 l 653 74 l 615 139 l 857 139 l 857 318 l 438 318 l 438 379 l 865 379 l 1081 518 m 358 782 l 393 782 l 393 74 l 236 74 l 236 644 l 106 644 l 288 928 l 458 928 l 358 782 m 1193 821 l 472 821 l 472 881 l 1075 881 l 1114 928 l 1269 928 l 1193 821 m 517 789 l 664 789 l 706 615 l 557 615 l 517 789 m 1185 615 l 1036 615 l 1078 789 l 1225 789 l 1185 615 m 772 789 l 918 789 l 960 615 l 811 615 l 772 789 z "},"保":{"ha":1389,"x_min":97,"x_max":1292,"o":"m 1292 79 l 1125 79 l 963 342 l 1131 342 l 1292 79 m 1282 464 l 1244 401 l 921 401 l 921 79 l 765 79 l 765 401 l 736 401 l 572 79 l 404 79 l 565 401 l 431 401 l 431 464 l 765 464 l 765 538 l 479 538 l 479 915 l 1218 915 l 1218 538 l 921 538 l 921 464 l 1282 464 m 638 849 l 638 600 l 1060 600 l 1060 903 l 1011 849 l 638 849 m 363 79 l 201 79 l 201 513 l 97 513 l 275 922 l 443 922 l 297 576 l 363 576 l 363 79 z "},"信":{"ha":1389,"x_min":85,"x_max":1303,"o":"m 1286 74 l 457 74 l 457 419 l 1129 419 l 1093 353 l 615 353 l 615 142 l 1129 142 l 1129 419 l 1286 419 l 1286 74 m 215 554 l 85 554 l 275 928 l 446 928 l 324 690 l 372 690 l 372 74 l 215 74 l 215 554 m 954 861 l 1303 861 l 1261 799 l 457 799 l 457 861 l 796 861 l 796 928 l 954 928 l 954 861 m 457 561 l 1303 561 l 1261 497 l 457 497 l 457 561 m 457 711 l 1303 711 l 1261 647 l 457 647 l 457 711 z "},"俩":{"ha":1389,"x_min":83,"x_max":1304,"o":"m 1076 738 l 1304 738 l 1304 74 l 1035 74 l 972 282 l 926 79 l 928 74 l 786 74 l 785 76 l 779 76 l 782 88 l 725 278 l 679 78 l 574 76 l 574 74 l 418 74 l 418 738 l 685 738 l 713 861 l 453 861 l 453 928 l 1278 928 l 1242 861 l 1106 861 l 1076 738 m 215 554 l 83 554 l 267 919 l 438 919 l 322 690 l 371 690 l 371 81 l 215 81 l 215 554 m 1061 671 l 1007 431 l 1068 431 l 1146 175 l 1146 725 l 1097 671 l 1061 671 m 843 353 l 915 671 l 815 671 l 760 431 l 819 431 l 843 353 m 574 257 l 669 671 l 574 671 l 574 257 m 831 738 l 931 738 l 960 861 l 858 861 l 831 738 z "},"俭":{"ha":1389,"x_min":113,"x_max":1276,"o":"m 1004 558 l 656 558 l 656 625 l 1031 625 l 1004 558 m 1238 75 l 479 75 l 479 140 l 907 140 l 932 199 l 869 199 l 732 490 l 901 490 l 986 317 l 1065 494 l 1233 494 l 1075 140 l 1264 140 l 1238 75 m 1276 576 l 1094 576 l 850 839 l 588 582 l 406 582 l 758 926 l 940 926 l 878 867 l 1008 867 l 1276 576 m 514 485 l 685 485 l 826 194 l 654 194 l 514 485 m 219 511 l 113 511 l 292 922 l 458 922 l 314 576 l 381 576 l 381 75 l 219 75 l 219 511 z "},"修":{"ha":1389,"x_min":69,"x_max":1319,"o":"m 1319 478 l 1113 478 l 713 282 l 374 282 l 374 725 l 511 725 l 511 458 l 792 608 l 672 665 l 668 654 l 522 654 l 640 928 l 786 928 l 764 875 l 1279 875 l 1279 747 l 1035 615 l 1319 478 m 200 554 l 69 554 l 251 921 l 422 921 l 307 692 l 357 692 l 357 82 l 200 82 l 200 554 m 558 171 l 1036 404 l 1267 404 l 790 171 l 558 171 m 1085 282 l 1315 282 l 888 72 l 656 72 l 1085 282 m 914 675 l 1097 772 l 1097 813 l 736 813 l 718 769 l 914 675 m 958 515 l 986 515 l 913 550 l 692 431 l 511 431 l 511 296 l 958 515 z "},"俯":{"ha":1389,"x_min":85,"x_max":1304,"o":"m 744 601 l 779 601 l 779 72 l 622 72 l 622 451 l 592 451 l 592 299 l 538 72 l 379 72 l 431 304 l 431 863 l 810 863 l 810 928 l 968 928 l 968 863 l 1304 863 l 1254 799 l 592 799 l 592 597 l 688 747 l 844 747 l 744 601 m 338 781 l 372 781 l 372 72 l 217 72 l 217 644 l 85 644 l 268 926 l 439 926 l 338 781 m 1281 581 l 1229 581 l 1229 74 l 951 74 l 917 138 l 1067 138 l 1067 581 l 815 581 l 815 640 l 1067 640 l 1067 747 l 1229 747 l 1229 640 l 1304 640 l 1281 581 m 894 238 l 849 500 l 982 500 l 1025 238 l 894 238 z "},"俱":{"ha":1389,"x_min":85,"x_max":1304,"o":"m 1304 356 l 1264 294 l 378 294 l 378 356 l 481 356 l 481 928 l 1043 928 l 1001 867 l 639 867 l 639 738 l 1043 738 l 1043 928 l 1201 928 l 1201 356 l 1304 356 m 288 582 l 353 582 l 353 79 l 192 79 l 192 515 l 85 515 l 265 928 l 431 928 l 288 582 m 639 676 l 639 546 l 1043 546 l 1043 676 l 639 676 m 1043 356 l 1043 485 l 639 485 l 639 356 l 1043 356 m 1160 264 l 1247 74 l 1086 74 l 996 264 l 1160 264 m 525 264 l 686 264 l 599 74 l 435 74 l 525 264 z "},"俺":{"ha":1389,"x_min":81,"x_max":1307,"o":"m 1307 857 l 1269 793 l 794 793 l 629 596 l 446 596 l 613 793 l 439 793 l 439 857 l 668 857 l 724 922 l 910 922 l 853 857 l 1307 857 m 319 689 l 368 689 l 368 79 l 213 79 l 213 553 l 81 553 l 264 918 l 433 918 l 319 689 m 758 553 l 758 633 l 914 633 l 914 553 l 1088 553 l 1053 489 l 914 489 l 914 404 l 1089 404 l 1089 553 l 1246 553 l 1246 188 l 914 188 l 914 146 l 1299 146 l 1263 79 l 758 79 l 758 188 l 426 188 l 426 553 l 758 553 m 758 404 l 758 489 l 581 489 l 581 404 l 758 404 m 758 250 l 758 336 l 581 336 l 581 250 l 758 250 m 1089 250 l 1089 336 l 914 336 l 914 250 l 1089 250 m 1140 735 l 1267 596 l 1089 596 l 963 735 l 1140 735 z "},"倍":{"ha":1389,"x_min":90,"x_max":1299,"o":"m 953 925 l 953 864 l 1263 864 l 1221 803 l 458 803 l 458 864 l 794 864 l 794 925 l 953 925 m 297 560 l 381 560 l 381 72 l 219 72 l 219 492 l 90 492 l 294 928 l 465 928 l 297 560 m 581 579 l 514 718 l 675 718 l 740 579 l 982 579 l 1056 718 l 1214 718 l 1143 579 l 1299 579 l 1263 515 l 419 515 l 419 579 l 581 579 m 488 421 l 1238 421 l 1238 72 l 488 72 l 488 421 m 1079 139 l 1079 408 l 1038 360 l 649 360 l 649 139 l 1079 139 z "},"倒":{"ha":1389,"x_min":110,"x_max":1279,"o":"m 1279 928 l 1279 74 l 939 74 l 906 138 l 1121 138 l 1121 928 l 1279 928 m 306 711 l 335 711 l 335 74 l 176 74 l 176 601 l 110 601 l 222 928 l 381 928 l 306 711 m 700 138 l 869 138 l 835 74 l 374 74 l 374 138 l 542 138 l 542 329 l 394 329 l 394 393 l 542 393 l 542 489 l 700 489 l 700 393 l 847 393 l 814 329 l 700 329 l 700 138 m 1064 239 l 906 239 l 906 822 l 1064 822 l 1064 239 m 488 822 l 389 822 l 389 886 l 854 886 l 819 822 l 646 822 l 557 606 l 679 606 l 644 542 l 374 542 l 488 822 m 796 711 l 869 542 l 711 542 l 638 711 l 796 711 z "},"倔":{"ha":1389,"x_min":85,"x_max":1303,"o":"m 1144 331 l 1303 331 l 1303 74 l 628 74 l 628 331 l 786 331 l 786 135 l 886 135 l 886 367 l 656 367 l 656 594 l 814 594 l 814 428 l 886 428 l 886 622 l 1044 622 l 1044 428 l 1117 428 l 1117 594 l 1276 594 l 1276 367 l 1044 367 l 1044 135 l 1144 135 l 1144 331 m 1303 929 l 1303 650 l 626 650 l 626 428 l 536 72 l 375 72 l 468 428 l 468 929 l 1144 929 l 1106 861 l 626 861 l 626 711 l 1144 711 l 1144 929 l 1303 929 m 288 582 l 353 582 l 353 81 l 192 81 l 192 517 l 85 517 l 265 928 l 431 928 l 288 582 z "},"倘":{"ha":1389,"x_min":97,"x_max":1292,"o":"m 946 925 l 946 653 l 1133 653 l 1104 586 l 599 586 l 599 76 l 440 76 l 440 653 l 788 653 l 788 925 l 946 925 m 443 925 l 299 579 l 365 579 l 365 76 l 204 76 l 204 513 l 97 513 l 276 925 l 443 925 m 1094 182 l 638 182 l 638 506 l 974 506 l 951 450 l 760 450 l 760 236 l 974 236 l 974 506 l 1094 506 l 1094 182 m 1133 76 l 1133 653 l 1292 653 l 1292 76 l 1133 76 m 1203 678 l 1043 678 l 1089 886 l 1247 886 l 1203 678 m 644 886 l 689 678 l 531 678 l 486 886 l 644 886 z "},"候":{"ha":1389,"x_min":54,"x_max":1335,"o":"m 360 767 l 476 767 l 476 229 l 360 229 l 360 767 m 1106 915 l 1104 914 l 1279 914 l 1279 708 l 1325 708 l 1325 635 l 519 635 l 519 708 l 1100 708 l 1100 908 l 1047 849 l 565 849 l 565 915 l 1106 915 m 358 921 l 250 686 l 322 686 l 322 83 l 161 83 l 161 626 l 54 626 l 193 921 l 358 921 m 1057 218 l 1219 218 l 1288 81 l 1128 81 l 1057 218 m 1304 268 l 885 268 l 765 81 l 597 81 l 718 268 l 529 268 l 529 336 l 760 336 l 849 482 l 704 482 l 668 399 l 511 399 l 593 601 l 751 601 l 731 546 l 1307 546 l 1272 482 l 1014 482 l 925 336 l 1335 336 l 1304 268 z "},"倚":{"ha":1389,"x_min":125,"x_max":1264,"o":"m 293 925 l 460 925 l 328 608 l 390 608 l 390 75 l 232 75 l 232 547 l 125 547 l 293 925 m 1264 626 l 1228 563 l 1197 563 l 1197 75 l 953 75 l 917 142 l 1042 142 l 1042 563 l 499 563 l 499 626 l 1264 626 m 819 463 l 681 463 l 681 263 l 856 263 l 856 531 l 1001 531 l 1001 197 l 543 197 l 543 531 l 856 531 l 819 463 m 1264 842 l 1228 778 l 1142 778 l 1221 667 l 1065 667 l 983 778 l 781 778 l 689 663 l 532 663 l 622 778 l 497 778 l 497 842 l 674 842 l 722 903 l 881 903 l 832 842 l 1264 842 z "},"借":{"ha":1389,"x_min":76,"x_max":1311,"o":"m 1239 771 l 1122 771 l 1122 625 l 1311 625 l 1275 560 l 403 560 l 403 625 l 568 625 l 568 771 l 429 771 l 429 838 l 568 838 l 568 910 l 717 910 l 717 838 l 971 838 l 971 910 l 1122 910 l 1122 838 l 1278 838 l 1239 771 m 971 625 l 971 771 l 717 771 l 717 625 l 971 625 m 276 621 l 342 621 l 342 82 l 181 82 l 181 557 l 76 557 l 258 918 l 422 918 l 276 621 m 1239 486 l 1239 86 l 458 86 l 458 486 l 1239 486 m 1068 324 l 1032 257 l 617 257 l 617 147 l 1078 147 l 1078 472 l 1033 425 l 617 425 l 617 324 l 1068 324 z "},"倡":{"ha":1389,"x_min":96,"x_max":1292,"o":"m 1292 74 l 450 74 l 450 483 l 1292 483 l 1292 74 m 1064 867 l 657 867 l 657 760 l 1093 760 l 1093 928 l 1251 928 l 1251 532 l 499 532 l 499 928 l 1093 928 l 1064 867 m 444 928 l 297 575 l 364 575 l 364 74 l 203 74 l 203 510 l 96 510 l 278 928 l 444 928 m 1106 422 l 608 422 l 608 310 l 1133 310 l 1133 481 l 1106 422 m 608 135 l 1133 135 l 1133 249 l 608 249 l 608 135 m 657 593 l 1093 593 l 1093 700 l 657 700 l 657 593 z "},"倦":{"ha":1389,"x_min":85,"x_max":1303,"o":"m 458 442 l 563 575 l 433 575 l 433 636 l 611 636 l 692 739 l 463 739 l 463 799 l 550 799 l 504 904 l 663 904 l 707 799 l 739 799 l 839 928 l 1014 928 l 914 799 l 1032 799 l 1076 904 l 1235 904 l 1188 799 l 1276 799 l 1235 739 l 865 739 l 786 636 l 1301 636 l 1260 575 l 1172 575 l 1276 442 l 1101 442 l 997 575 l 739 575 l 633 442 l 458 442 m 1303 139 l 1264 74 l 465 74 l 465 414 l 1260 414 l 1260 204 l 774 204 l 732 265 l 1096 265 l 1096 353 l 631 353 l 631 139 l 1303 139 m 431 928 l 286 581 l 353 581 l 353 79 l 192 79 l 192 515 l 85 515 l 265 928 l 431 928 z "},"债":{"ha":1389,"x_min":101,"x_max":1286,"o":"m 210 510 l 101 510 l 282 922 l 447 922 l 304 576 l 369 576 l 369 74 l 210 74 l 210 510 m 936 807 l 936 758 l 1261 758 l 1228 693 l 936 693 l 936 644 l 1286 644 l 1253 579 l 442 579 l 442 644 l 792 644 l 792 693 l 467 693 l 467 758 l 792 758 l 792 807 l 442 807 l 442 872 l 792 872 l 792 928 l 936 928 l 936 872 l 1286 872 l 1253 807 l 936 807 m 650 74 l 436 74 l 615 242 l 460 242 l 460 542 l 1249 542 l 1249 242 l 1088 242 l 1088 482 l 621 482 l 621 249 l 803 418 l 1014 418 l 829 244 l 1004 244 l 1268 74 l 1050 74 l 813 228 l 650 74 z "},"值":{"ha":1389,"x_min":107,"x_max":1282,"o":"m 1201 146 l 1282 146 l 1246 81 l 418 81 l 418 146 l 500 146 l 500 669 l 775 669 l 775 758 l 453 758 l 453 825 l 775 825 l 775 919 l 926 919 l 926 825 l 1249 825 l 1211 758 l 926 758 l 926 669 l 1050 669 l 1014 604 l 651 604 l 651 539 l 1050 539 l 1050 669 l 1201 669 l 1201 146 m 214 513 l 107 513 l 288 924 l 453 924 l 308 578 l 375 578 l 375 76 l 214 76 l 214 513 m 1050 474 l 651 474 l 651 408 l 1050 408 l 1050 474 m 1050 342 l 651 342 l 651 276 l 1050 276 l 1050 342 m 1050 211 l 651 211 l 651 146 l 1050 146 l 1050 211 z "},"倾":{"ha":1389,"x_min":93,"x_max":1296,"o":"m 1276 310 l 1126 310 l 1126 706 l 1088 657 l 824 657 l 824 310 l 681 310 l 681 724 l 868 724 l 901 846 l 681 846 l 681 911 l 1296 911 l 1258 846 l 1063 846 l 1029 724 l 1276 724 l 1276 310 m 439 924 l 294 578 l 361 578 l 361 76 l 200 76 l 200 513 l 93 513 l 272 924 l 439 924 m 613 203 l 715 228 l 692 150 l 457 81 l 457 919 l 613 919 l 613 807 l 718 807 l 681 744 l 613 744 l 613 203 m 1250 81 l 1107 81 l 985 218 l 863 81 l 719 81 l 907 290 l 907 594 l 1063 594 l 1063 290 l 1250 81 z "},"假":{"ha":1389,"x_min":103,"x_max":1285,"o":"m 843 615 l 597 615 l 597 504 l 843 504 l 808 443 l 597 443 l 597 318 l 843 318 l 808 257 l 597 257 l 597 74 l 450 74 l 450 928 l 843 928 l 843 615 m 449 928 l 304 582 l 371 582 l 371 74 l 210 74 l 210 515 l 103 515 l 283 928 l 449 928 m 1285 74 l 1138 74 l 1042 194 l 960 74 l 819 74 l 960 299 l 871 413 l 1018 413 l 1025 404 l 1064 467 l 1064 486 l 871 486 l 871 547 l 1225 547 l 1225 467 l 1110 296 l 1285 74 m 1239 615 l 1090 615 l 1090 674 l 1058 615 l 871 615 l 871 676 l 1090 676 l 1090 867 l 871 867 l 871 928 l 1239 928 l 1239 615 m 597 676 l 715 676 l 715 867 l 597 867 l 597 676 z "},"偎":{"ha":1389,"x_min":93,"x_max":1294,"o":"m 494 553 l 494 925 l 1082 925 l 1057 864 l 953 864 l 953 769 l 1082 769 l 1082 925 l 1240 925 l 1240 553 l 494 553 m 410 925 l 300 704 l 356 704 l 356 79 l 200 79 l 200 625 l 93 625 l 239 925 l 410 925 m 1294 503 l 1271 442 l 715 442 l 715 371 l 650 339 l 650 151 l 888 247 l 888 169 l 650 75 l 519 75 l 519 276 l 446 240 l 447 342 l 651 442 l 446 442 l 446 503 l 1294 503 m 1094 256 l 1268 75 l 1094 75 l 779 408 l 953 408 l 1032 326 l 1094 408 l 1251 408 l 1143 256 l 1094 256 m 794 864 l 653 864 l 653 769 l 794 769 l 794 864 m 653 614 l 794 614 l 794 708 l 653 708 l 653 614 m 1082 708 l 953 708 l 953 614 l 1082 614 l 1082 708 z "},"偏":{"ha":1389,"x_min":101,"x_max":1286,"o":"m 636 636 l 1286 636 l 1286 74 l 1110 74 l 1082 122 l 1082 74 l 975 74 l 975 340 l 946 340 l 946 74 l 839 74 l 839 340 l 796 340 l 796 74 l 636 74 l 636 636 m 1286 885 l 1286 671 l 601 671 l 601 300 l 547 74 l 386 74 l 440 306 l 440 885 l 754 885 l 733 928 l 889 928 l 910 885 l 1129 885 l 1083 822 l 601 822 l 601 733 l 1129 733 l 1129 885 l 1286 885 m 318 682 l 372 682 l 372 72 l 217 72 l 217 583 l 101 583 l 267 913 l 438 913 l 318 682 m 1125 140 l 1125 340 l 1082 340 l 1082 140 l 1125 140 m 1125 569 l 1082 569 l 1082 396 l 1125 396 l 1125 569 m 796 569 l 796 396 l 839 396 l 839 569 l 796 569 m 975 396 l 975 569 l 946 569 l 946 396 l 975 396 z "},"做":{"ha":1389,"x_min":86,"x_max":1301,"o":"m 403 565 l 532 565 l 532 758 l 386 758 l 386 825 l 532 825 l 532 919 l 682 919 l 682 825 l 822 825 l 786 758 l 682 758 l 682 565 l 815 565 l 815 88 l 403 88 l 403 565 m 817 693 l 882 922 l 1036 922 l 1021 872 l 1299 872 l 1263 806 l 1224 806 l 1224 604 l 1126 397 l 1301 78 l 1144 78 l 1053 242 l 976 78 l 826 78 l 972 390 l 833 644 l 992 644 l 1044 546 l 1078 617 l 1078 806 l 1001 806 l 969 693 l 817 693 m 350 693 l 350 85 l 193 85 l 193 615 l 86 615 l 232 915 l 403 915 l 293 693 l 350 693 m 535 501 l 535 151 l 686 151 l 686 547 l 631 501 l 535 501 z "},"停":{"ha":1389,"x_min":118,"x_max":1269,"o":"m 321 581 l 386 581 l 386 79 l 226 79 l 226 515 l 118 515 l 299 926 l 464 926 l 321 581 m 485 536 l 485 756 l 1071 756 l 1039 675 l 665 675 l 665 617 l 1071 617 l 1071 756 l 1251 756 l 1251 536 l 485 536 m 543 343 l 1204 343 l 1172 263 l 965 263 l 965 75 l 665 75 l 697 156 l 785 156 l 785 263 l 543 263 l 543 343 m 453 511 l 1268 511 l 1268 353 l 1088 353 l 1088 431 l 633 431 l 633 353 l 453 353 l 453 511 m 989 879 l 1269 879 l 1238 799 l 496 799 l 496 879 l 793 879 l 793 925 l 989 925 l 989 879 z "},"健":{"ha":1389,"x_min":81,"x_max":1308,"o":"m 1251 725 l 1308 725 l 1272 664 l 1251 664 l 1251 514 l 1014 514 l 1014 457 l 1251 457 l 1215 396 l 1014 396 l 1014 321 l 1251 321 l 1215 260 l 1014 260 l 1014 158 l 856 158 l 856 260 l 661 260 l 661 321 l 856 321 l 856 396 l 661 396 l 661 457 l 856 457 l 856 514 l 661 514 l 661 575 l 856 575 l 856 664 l 639 664 l 639 725 l 856 725 l 856 815 l 661 815 l 661 876 l 856 876 l 856 928 l 1014 928 l 1014 876 l 1251 876 l 1251 725 m 565 906 l 639 724 l 468 724 l 403 886 l 300 682 l 350 682 l 350 72 l 192 72 l 192 585 l 81 585 l 246 914 l 417 914 l 413 906 l 565 906 m 610 136 l 1308 136 l 1282 72 l 658 72 l 604 126 l 564 72 l 378 72 l 378 136 l 451 136 l 451 578 l 378 578 l 378 643 l 610 643 l 610 136 m 1014 725 l 1093 725 l 1093 815 l 1014 815 l 1014 725 m 1093 664 l 1014 664 l 1014 575 l 1093 575 l 1093 664 z "},"偶":{"ha":1389,"x_min":92,"x_max":1296,"o":"m 928 543 l 928 485 l 1296 485 l 1296 74 l 1101 74 l 1078 135 l 1165 135 l 1165 424 l 928 424 l 928 256 l 1007 256 l 971 194 l 619 194 l 619 256 l 799 256 l 799 424 l 561 424 l 561 74 l 431 74 l 431 485 l 799 485 l 799 543 l 450 543 l 450 928 l 1261 928 l 1261 543 l 928 543 m 203 600 l 92 600 l 257 928 l 428 928 l 304 682 l 361 682 l 361 74 l 203 74 l 203 600 m 608 758 l 799 758 l 799 867 l 608 867 l 608 758 m 1079 867 l 928 867 l 928 758 l 1103 758 l 1103 926 l 1079 867 m 799 603 l 799 699 l 608 699 l 608 603 l 799 603 m 1103 699 l 928 699 l 928 603 l 1103 603 l 1103 699 m 1096 357 l 1131 199 l 1036 199 l 1001 357 l 1096 357 z "},"偷":{"ha":1389,"x_min":108,"x_max":1279,"o":"m 550 79 l 419 79 l 453 317 l 453 599 l 769 599 l 733 535 l 588 535 l 588 465 l 769 465 l 769 599 l 901 599 l 901 78 l 658 78 l 621 143 l 769 143 l 769 257 l 575 257 l 550 79 m 414 642 l 539 922 l 735 922 l 711 869 l 1163 869 l 1279 642 l 1082 642 l 1024 758 l 985 700 l 636 700 l 611 642 l 414 642 m 215 514 l 108 514 l 289 922 l 454 922 l 311 579 l 376 579 l 376 78 l 215 78 l 215 514 m 1026 140 l 1124 140 l 1124 599 l 1260 599 l 1260 78 l 1082 78 l 1026 140 m 944 574 l 1082 574 l 1082 194 l 944 194 l 944 574 m 664 761 l 1022 761 l 999 808 l 683 808 l 664 761 m 588 321 l 769 321 l 769 399 l 588 399 l 588 321 z "},"偿":{"ha":1389,"x_min":126,"x_max":1263,"o":"m 242 585 l 126 585 l 299 928 l 469 928 l 343 682 l 397 682 l 397 74 l 242 74 l 242 585 m 1263 607 l 1107 607 l 1107 760 l 1072 701 l 603 701 l 603 607 l 446 607 l 446 765 l 539 765 l 496 908 l 651 908 l 696 765 l 760 765 l 760 928 l 938 928 l 938 765 l 1000 765 l 1043 908 l 1200 908 l 1156 765 l 1263 765 l 1263 607 m 1211 567 l 1175 500 l 497 500 l 497 567 l 1211 567 m 461 74 l 544 356 l 461 356 l 461 421 l 1249 421 l 1211 356 l 713 356 l 649 140 l 1044 154 l 974 286 l 1143 286 l 1261 74 l 1089 74 l 1079 89 l 629 74 l 461 74 z "},"傅":{"ha":1389,"x_min":85,"x_max":1303,"o":"m 1303 794 l 939 794 l 939 740 l 1144 740 l 1110 679 l 939 679 l 939 622 l 1144 622 l 1144 740 l 1303 740 l 1303 369 l 1144 369 l 1144 449 l 939 449 l 939 369 l 781 369 l 781 449 l 572 449 l 572 369 l 414 369 l 414 740 l 781 740 l 781 794 l 414 794 l 414 856 l 781 856 l 781 928 l 939 928 l 939 856 l 1093 856 l 1061 928 l 1229 928 l 1260 856 l 1303 856 l 1303 794 m 347 707 l 347 74 l 192 74 l 192 629 l 85 629 l 231 928 l 401 928 l 292 707 l 347 707 m 1268 249 l 1226 249 l 1226 74 l 836 74 l 799 139 l 1065 139 l 1065 249 l 414 249 l 414 310 l 1065 310 l 1065 354 l 1226 354 l 1226 310 l 1303 310 l 1268 249 m 590 74 l 518 214 l 686 214 l 756 74 l 590 74 m 572 622 l 781 622 l 781 679 l 572 679 l 572 622 m 572 510 l 781 510 l 781 561 l 572 561 l 572 510 m 939 510 l 1144 510 l 1144 561 l 939 561 l 939 510 z "},"傍":{"ha":1389,"x_min":99,"x_max":1289,"o":"m 1289 689 l 1289 553 l 1131 553 l 1131 626 l 581 626 l 581 553 l 419 553 l 419 689 l 593 689 l 583 753 l 742 753 l 754 689 l 949 689 l 972 753 l 1131 753 l 1107 689 l 1289 689 m 436 794 l 436 857 l 765 857 l 765 924 l 924 924 l 924 857 l 1272 857 l 1272 794 l 436 794 m 1233 75 l 917 75 l 871 139 l 1075 139 l 1075 350 l 1233 350 l 1233 75 m 758 424 l 722 350 l 1075 350 l 1024 288 l 690 288 l 581 75 l 419 75 l 600 424 l 436 424 l 436 485 l 775 485 l 775 572 l 936 572 l 936 485 l 1285 485 l 1249 424 l 758 424 m 267 925 l 432 925 l 300 608 l 364 608 l 364 75 l 206 75 l 206 549 l 99 549 l 267 925 z "},"储":{"ha":1389,"x_min":85,"x_max":1303,"o":"m 1297 758 l 1081 638 l 1303 638 l 1267 572 l 964 572 l 850 508 l 1082 508 l 1044 442 l 917 442 l 917 324 l 1082 324 l 1044 258 l 917 258 l 917 142 l 1083 142 l 1083 508 l 1233 508 l 1233 74 l 767 74 l 767 461 l 633 386 l 633 458 l 838 572 l 689 572 l 689 638 l 871 638 l 871 782 l 707 782 l 707 847 l 871 847 l 871 928 l 1021 928 l 1021 847 l 1172 847 l 1136 782 l 1021 782 l 1021 675 l 1297 829 l 1297 758 m 431 921 l 288 575 l 353 575 l 353 74 l 192 74 l 192 510 l 85 510 l 265 921 l 431 921 m 447 74 l 447 600 l 365 600 l 365 664 l 606 664 l 606 203 l 701 239 l 701 167 l 447 74 m 674 742 l 515 742 l 465 928 l 622 928 l 674 742 z "},"催":{"ha":1389,"x_min":110,"x_max":1279,"o":"m 615 693 l 561 592 l 615 592 l 615 74 l 457 74 l 457 515 l 385 515 l 385 74 l 226 74 l 226 626 l 110 626 l 258 928 l 429 928 l 322 704 l 385 704 l 385 560 l 457 693 l 615 693 m 1051 399 l 1051 299 l 1279 299 l 1246 236 l 1051 236 l 1051 138 l 1279 138 l 1246 74 l 665 74 l 665 138 l 893 138 l 893 236 l 665 236 l 665 299 l 893 299 l 893 399 l 665 399 l 665 461 l 893 461 l 893 561 l 665 561 l 665 624 l 893 624 l 831 693 l 989 693 l 1051 624 l 1279 624 l 1246 561 l 1051 561 l 1051 461 l 1279 461 l 1246 399 l 1051 399 m 1267 738 l 461 738 l 461 928 l 619 928 l 619 801 l 785 801 l 785 928 l 943 928 l 943 801 l 1108 801 l 1108 928 l 1267 928 l 1267 738 z "},"傲":{"ha":1389,"x_min":67,"x_max":1322,"o":"m 1285 807 l 1274 807 l 1274 646 l 1161 393 l 1300 76 l 1144 76 l 1083 215 l 1019 76 l 864 76 l 1006 393 l 893 646 l 1049 646 l 1083 568 l 1115 646 l 1115 807 l 1036 807 l 990 672 l 835 672 l 919 924 l 1075 924 l 1056 872 l 1322 872 l 1285 807 m 696 924 l 696 858 l 878 858 l 835 792 l 696 792 l 696 724 l 842 724 l 806 661 l 696 661 l 696 588 l 858 588 l 813 522 l 629 522 l 610 449 l 832 449 l 832 76 l 632 76 l 596 142 l 679 142 l 679 383 l 593 383 l 513 76 l 357 76 l 471 522 l 386 522 l 386 588 l 540 588 l 540 661 l 431 661 l 431 724 l 540 724 l 540 792 l 393 792 l 393 858 l 540 858 l 540 924 l 696 924 m 283 685 l 338 685 l 338 76 l 182 76 l 182 588 l 67 588 l 232 917 l 403 917 l 283 685 z "},"傻":{"ha":1389,"x_min":99,"x_max":1290,"o":"m 1290 435 l 1119 435 l 1032 538 l 692 538 l 639 475 l 786 475 l 732 418 l 1229 418 l 1229 307 l 989 204 l 1290 74 l 1029 74 l 857 147 l 685 74 l 438 74 l 726 204 l 554 279 l 817 279 l 856 263 l 1061 356 l 672 356 l 621 301 l 450 301 l 576 435 l 433 435 l 519 538 l 475 538 l 475 874 l 589 874 l 619 926 l 772 926 l 742 874 l 1249 874 l 1249 538 l 1204 538 l 1290 435 m 267 924 l 433 924 l 301 607 l 365 607 l 365 74 l 207 74 l 207 547 l 99 547 l 267 924 m 622 810 l 622 600 l 1104 600 l 1104 874 l 1067 810 l 622 810 m 653 775 l 826 775 l 863 754 l 897 775 l 1072 775 l 950 706 l 1079 636 l 904 636 l 864 657 l 826 636 l 653 636 l 776 706 l 653 775 z "},"像":{"ha":1389,"x_min":115,"x_max":1272,"o":"m 1272 72 l 1114 72 l 1019 235 l 1019 72 l 775 72 l 739 140 l 868 140 l 868 218 l 590 72 l 432 72 l 868 300 l 868 349 l 590 203 l 432 203 l 835 413 l 715 413 l 590 347 l 432 347 l 750 514 l 508 514 l 508 760 l 917 760 l 958 829 l 692 829 l 669 788 l 515 788 l 592 929 l 746 929 l 729 897 l 1156 897 l 1071 760 l 1111 760 l 1068 692 l 967 692 l 967 582 l 1111 582 l 1111 760 l 1263 760 l 1263 514 l 908 514 l 847 482 l 1019 482 l 1019 413 l 1263 474 l 1263 406 l 1103 365 l 1272 72 m 247 556 l 115 556 l 299 921 l 469 921 l 354 692 l 403 692 l 403 83 l 247 83 l 247 556 m 661 582 l 806 582 l 806 692 l 661 692 l 661 582 z "},"僚":{"ha":1389,"x_min":143,"x_max":1246,"o":"m 897 769 l 1056 769 l 1075 753 l 1076 754 l 1219 754 l 1164 683 l 1242 622 l 1168 622 l 1168 381 l 936 381 l 936 74 l 714 74 l 692 139 l 778 139 l 778 381 l 543 381 l 543 622 l 476 622 l 533 678 l 474 754 l 611 754 l 642 785 l 493 785 l 493 850 l 708 850 l 790 929 l 949 929 l 868 850 l 1246 850 l 1225 785 l 801 785 l 683 669 l 1010 669 l 968 603 l 701 603 l 701 558 l 1010 558 l 1010 669 l 1024 669 l 897 769 m 350 560 l 408 560 l 408 72 l 247 72 l 247 492 l 143 492 l 324 928 l 494 928 l 350 560 m 647 110 l 489 110 l 576 338 l 735 338 l 647 110 m 979 338 l 1138 338 l 1225 110 l 1067 110 l 979 338 m 701 446 l 1010 446 l 1010 492 l 701 492 l 701 446 z "},"僧":{"ha":1389,"x_min":113,"x_max":1276,"o":"m 563 926 l 711 926 l 764 838 l 969 838 l 1022 926 l 1171 926 l 1117 838 l 1118 838 l 1081 774 l 935 774 l 935 660 l 985 743 l 1118 743 l 1039 611 l 935 611 l 935 578 l 1132 578 l 1132 838 l 1276 838 l 1276 515 l 1213 515 l 1213 514 l 461 514 l 461 578 l 463 578 l 463 838 l 615 838 l 563 926 m 1031 406 l 672 406 l 672 321 l 1068 321 l 1068 474 l 1224 474 l 1224 74 l 514 74 l 514 474 l 1067 474 l 1031 406 m 281 926 l 446 926 l 315 610 l 378 610 l 378 75 l 219 75 l 219 549 l 113 549 l 281 926 m 1068 139 l 1068 257 l 672 257 l 672 139 l 1068 139 m 619 743 l 753 743 l 804 658 l 804 774 l 608 774 l 608 578 l 804 578 l 804 611 l 700 611 l 619 743 z "},"僵":{"ha":1389,"x_min":85,"x_max":1303,"o":"m 1282 814 l 1282 564 l 442 564 l 442 814 l 1124 814 l 1088 753 l 940 753 l 940 719 l 1124 719 l 1124 814 l 1282 814 m 1282 436 l 1282 186 l 442 186 l 442 436 l 1124 436 l 1088 375 l 940 375 l 940 342 l 1124 342 l 1124 436 l 1282 436 m 421 921 l 304 689 l 354 689 l 354 81 l 196 81 l 196 593 l 85 593 l 250 921 l 421 921 m 421 531 l 1303 531 l 1267 469 l 421 469 l 421 531 m 421 908 l 1303 908 l 1267 847 l 421 847 l 421 908 m 421 153 l 1303 153 l 1267 92 l 421 92 l 421 153 m 940 281 l 940 247 l 1124 247 l 1124 281 l 940 281 m 940 658 l 940 625 l 1124 625 l 1124 658 l 940 658 m 600 625 l 782 625 l 782 658 l 600 658 l 600 625 m 600 719 l 782 719 l 782 753 l 600 753 l 600 719 m 600 342 l 782 342 l 782 375 l 600 375 l 600 342 m 600 247 l 782 247 l 782 281 l 600 281 l 600 247 z "},"僻":{"ha":1389,"x_min":88,"x_max":1300,"o":"m 267 678 l 311 678 l 311 68 l 182 68 l 182 579 l 88 579 l 226 925 l 368 925 l 267 678 m 1242 806 l 838 806 l 838 868 l 976 868 l 976 932 l 1096 932 l 1096 868 l 1268 868 l 1242 806 m 1121 335 l 1286 335 l 1261 274 l 1121 274 l 1121 75 l 983 75 l 983 274 l 833 274 l 833 335 l 983 335 l 983 521 l 825 521 l 825 579 l 906 579 l 856 742 l 993 742 l 1042 579 l 1069 579 l 1114 742 l 1251 742 l 1203 579 l 1300 579 l 1274 521 l 1121 521 l 1121 335 m 385 913 l 801 913 l 801 613 l 518 613 l 518 403 l 482 79 l 343 79 l 385 403 l 385 913 m 518 674 l 664 674 l 664 903 l 628 849 l 518 849 l 518 674 m 535 578 l 801 578 l 801 79 l 535 79 l 535 578 m 654 143 l 681 143 l 681 513 l 654 513 l 654 143 z "},"儒":{"ha":1389,"x_min":131,"x_max":1257,"o":"m 1257 494 l 1208 431 l 894 431 l 829 385 l 1250 385 l 1250 72 l 1083 72 l 1049 117 l 1049 72 l 899 72 l 899 322 l 849 322 l 849 72 l 697 72 l 697 322 l 647 322 l 647 72 l 497 72 l 497 385 l 678 385 l 744 431 l 497 431 l 497 494 l 1257 494 m 957 519 l 806 519 l 806 732 l 638 732 l 638 644 l 486 644 l 486 794 l 638 794 l 806 794 l 806 832 l 497 832 l 497 896 l 1257 896 l 1208 832 l 957 832 l 957 794 l 1257 794 l 1257 644 l 1107 644 l 1107 675 l 1078 636 l 967 636 l 967 699 l 1107 699 l 1107 785 l 1065 732 l 957 732 l 957 519 m 325 564 l 403 564 l 403 83 l 251 83 l 251 497 l 131 497 l 322 929 l 481 929 l 325 564 m 1192 610 l 1146 546 l 965 546 l 965 610 l 1192 610 m 803 610 l 756 546 l 576 546 l 576 610 l 803 610 m 1049 322 l 1049 136 l 1099 136 l 1099 374 l 1060 322 l 1049 322 m 803 699 l 756 636 l 643 636 l 643 699 l 803 699 z "},"儿":{"ha":1389,"x_min":106,"x_max":1282,"o":"m 1239 89 l 717 89 l 717 917 l 876 917 l 876 156 l 1282 156 l 1239 89 m 275 85 l 106 85 l 336 463 l 336 917 l 497 917 l 497 456 l 275 85 z "},"允":{"ha":1389,"x_min":157,"x_max":1231,"o":"m 914 143 l 1231 143 l 1192 78 l 747 78 l 747 692 l 563 692 l 351 81 l 186 81 l 396 692 l 157 692 l 297 922 l 471 922 l 371 757 l 1000 757 l 951 843 l 1129 843 l 1210 692 l 1036 692 l 1010 740 l 981 692 l 914 692 l 914 143 z "},"元":{"ha":1389,"x_min":101,"x_max":1286,"o":"m 353 74 l 186 74 l 456 594 l 101 594 l 101 661 l 1267 661 l 1232 594 l 969 594 l 969 139 l 1286 139 l 1247 74 l 804 74 l 804 594 l 622 594 l 353 74 m 1139 861 l 203 861 l 203 926 l 1174 926 l 1139 861 z "},"兄":{"ha":1389,"x_min":118,"x_max":1271,"o":"m 956 508 l 956 143 l 1271 143 l 1232 75 l 790 75 l 790 508 l 589 508 l 589 338 l 314 72 l 118 72 l 428 382 l 428 508 l 228 508 l 228 928 l 999 928 l 961 861 l 386 861 l 386 576 l 999 576 l 999 928 l 1154 928 l 1154 508 l 956 508 z "},"充":{"ha":1389,"x_min":150,"x_max":1238,"o":"m 1092 710 l 1208 501 l 972 501 l 972 135 l 1238 135 l 1208 74 l 814 74 l 814 501 l 557 501 l 364 74 l 185 74 l 376 501 l 150 501 l 311 801 l 150 801 l 150 863 l 600 863 l 600 928 l 758 928 l 758 863 l 1208 863 l 1179 801 l 483 801 l 354 561 l 1001 561 l 918 710 l 1092 710 z "},"兆":{"ha":1389,"x_min":125,"x_max":1263,"o":"m 628 321 l 349 75 l 125 75 l 293 225 l 161 225 l 240 519 l 407 519 l 332 258 l 469 381 l 469 926 l 628 926 l 628 321 m 1263 136 l 1224 75 l 719 75 l 719 926 l 878 926 l 878 136 l 1263 136 m 999 206 l 910 519 l 1076 519 l 1160 206 l 999 206 m 1139 885 l 1083 583 l 917 583 l 978 885 l 1139 885 m 339 885 l 400 583 l 233 583 l 179 885 l 339 885 z "},"先":{"ha":1389,"x_min":108,"x_max":1281,"o":"m 907 139 l 1281 139 l 1239 74 l 742 74 l 742 488 l 108 488 l 108 553 l 614 553 l 614 722 l 335 722 l 300 611 l 133 611 l 224 907 l 390 907 l 354 788 l 614 788 l 614 926 l 779 926 l 779 788 l 1246 788 l 1203 722 l 779 722 l 779 553 l 1278 553 l 1236 488 l 907 488 l 907 139 m 443 453 l 607 453 l 274 76 l 108 76 l 443 453 z "},"光":{"ha":1389,"x_min":76,"x_max":1311,"o":"m 314 903 l 417 664 l 251 664 l 146 903 l 314 903 m 1047 903 l 1215 903 l 1110 629 l 944 629 l 1047 903 m 318 528 l 76 528 l 76 593 l 607 593 l 607 929 l 765 929 l 765 593 l 1304 593 l 1268 528 l 1097 528 l 1097 142 l 1311 142 l 1272 74 l 932 74 l 932 528 l 478 528 l 397 321 l 286 71 l 125 71 l 236 321 l 318 528 z "},"克":{"ha":1389,"x_min":139,"x_max":1249,"o":"m 1147 351 l 933 351 l 933 133 l 1249 133 l 1210 72 l 758 72 l 758 351 l 583 351 l 339 75 l 139 75 l 383 351 l 213 351 l 213 693 l 574 693 l 574 785 l 142 785 l 142 853 l 574 853 l 574 928 l 746 928 l 746 853 l 1218 853 l 1185 785 l 746 785 l 746 693 l 1147 693 l 1147 351 m 949 625 l 378 625 l 378 419 l 982 419 l 982 690 l 949 625 z "},"免":{"ha":1389,"x_min":150,"x_max":1239,"o":"m 913 154 l 1239 154 l 1201 88 l 754 88 l 754 333 l 692 333 l 364 88 l 156 88 l 486 333 l 150 333 l 150 721 l 822 721 l 933 817 l 382 817 l 353 786 l 181 786 l 300 913 l 471 913 l 442 882 l 1181 882 l 996 721 l 1046 721 l 1010 656 l 750 656 l 750 394 l 1046 394 l 1046 721 l 1204 721 l 1204 333 l 913 333 l 913 154 m 308 394 l 592 394 l 592 656 l 308 656 l 308 394 z "},"兑":{"ha":1389,"x_min":111,"x_max":1276,"o":"m 933 925 l 1093 925 l 961 747 l 1053 747 l 1017 681 l 336 681 l 336 433 l 1054 433 l 1054 747 l 1201 747 l 1201 368 l 957 368 l 957 143 l 1276 143 l 1233 78 l 810 78 l 810 368 l 543 368 l 543 236 l 290 76 l 111 76 l 407 264 l 407 368 l 189 368 l 189 747 l 404 747 l 286 925 l 446 925 l 564 747 l 801 747 l 933 925 z "},"兔":{"ha":1389,"x_min":135,"x_max":1253,"o":"m 135 78 l 497 400 l 135 400 l 135 721 l 846 721 l 913 861 l 400 861 l 400 865 l 351 767 l 183 767 l 260 922 l 1110 922 l 1014 721 l 1069 721 l 1029 658 l 738 658 l 738 463 l 1069 463 l 1069 721 l 1228 721 l 1228 400 l 890 400 l 890 140 l 1253 140 l 1211 78 l 706 78 l 706 372 l 369 78 l 135 78 m 293 463 l 553 463 l 553 658 l 293 658 l 293 463 m 1011 358 l 1169 358 l 1221 179 l 1063 179 l 1011 358 z "},"党":{"ha":1389,"x_min":143,"x_max":1244,"o":"m 1208 915 l 1094 792 l 1244 792 l 1244 657 l 1086 657 l 1086 731 l 311 731 l 311 657 l 158 657 l 158 792 l 304 792 l 229 918 l 385 918 l 460 792 l 604 792 l 604 935 l 760 935 l 760 792 l 924 792 l 1038 915 l 1208 915 m 947 129 l 1238 129 l 1203 68 l 792 68 l 792 333 l 604 333 l 343 67 l 143 67 l 401 333 l 261 333 l 261 638 l 1104 638 l 1104 333 l 947 333 l 947 129 m 417 576 l 417 392 l 946 392 l 946 576 l 417 576 z "},"兜":{"ha":1389,"x_min":128,"x_max":1260,"o":"m 767 929 l 724 846 l 803 846 l 767 781 l 549 781 l 549 651 l 803 651 l 803 846 l 957 846 l 957 375 l 390 375 l 390 846 l 554 846 l 599 929 l 767 929 m 1225 858 l 1225 339 l 982 339 l 982 406 l 1069 406 l 1069 793 l 981 793 l 981 858 l 1225 858 m 128 342 l 128 871 l 356 899 l 356 833 l 283 819 l 283 422 l 354 429 l 354 369 l 128 342 m 1224 71 l 825 71 l 825 286 l 981 286 l 981 138 l 1260 138 l 1224 71 m 803 588 l 549 588 l 549 438 l 803 438 l 803 588 m 200 71 l 286 286 l 454 286 l 367 71 l 200 71 z "},"兢":{"ha":1389,"x_min":85,"x_max":1304,"o":"m 1085 846 l 1304 846 l 1304 844 l 1268 785 l 1085 785 l 1085 674 l 1103 674 l 1068 613 l 907 613 l 907 439 l 1103 439 l 1103 674 l 1263 674 l 1263 379 l 749 379 l 749 674 l 926 674 l 926 785 l 708 785 l 708 846 l 926 846 l 926 928 l 1085 928 l 1085 846 m 463 846 l 681 846 l 681 844 l 646 785 l 463 785 l 463 674 l 481 674 l 444 613 l 283 613 l 283 439 l 481 439 l 481 674 l 639 674 l 639 379 l 125 379 l 125 674 l 304 674 l 304 785 l 85 785 l 85 846 l 304 846 l 304 928 l 463 928 l 463 846 m 1211 135 l 1304 135 l 1268 74 l 1053 74 l 1053 339 l 1211 339 l 1211 135 m 588 135 l 681 135 l 644 74 l 429 74 l 429 339 l 588 339 l 588 135 m 196 339 l 356 339 l 250 74 l 92 74 l 196 339 m 819 339 l 978 339 l 872 74 l 714 74 l 819 339 z "},"入":{"ha":1389,"x_min":165,"x_max":1224,"o":"m 233 899 l 950 899 l 1224 101 l 1067 101 l 815 833 l 633 833 l 322 101 l 165 101 l 475 833 l 263 833 l 233 899 z "},"全":{"ha":1389,"x_min":111,"x_max":1276,"o":"m 1229 408 l 1185 344 l 776 344 l 776 136 l 1229 136 l 1185 72 l 157 72 l 157 136 l 617 136 l 617 344 l 157 344 l 157 408 l 617 408 l 617 594 l 192 594 l 192 635 l 111 635 l 303 928 l 1086 928 l 1276 635 l 1179 635 l 1156 594 l 776 594 l 776 408 l 1229 408 m 288 658 l 1100 658 l 969 860 l 419 860 l 288 658 z "},"八":{"ha":1389,"x_min":140,"x_max":1249,"o":"m 418 921 l 574 921 l 304 79 l 140 79 l 418 921 m 1249 79 l 1089 79 l 821 921 l 976 921 l 1249 79 z "},"公":{"ha":1389,"x_min":108,"x_max":1279,"o":"m 375 136 l 968 136 l 940 74 l 185 74 l 185 176 l 474 613 l 679 613 l 375 136 m 917 860 l 571 860 l 592 928 l 1072 928 l 1279 460 l 1097 460 l 917 860 m 290 460 l 108 460 l 315 928 l 503 928 l 290 460 m 1046 444 l 1211 74 l 1028 74 l 858 444 l 1046 444 z "},"六":{"ha":1389,"x_min":111,"x_max":1276,"o":"m 1240 596 l 111 596 l 111 663 l 1276 663 l 1240 596 m 621 717 l 571 928 l 735 928 l 786 717 l 621 717 m 386 540 l 560 540 l 294 74 l 118 74 l 386 540 m 1029 540 l 1272 75 l 1097 75 l 854 540 l 1029 540 z "},"兰":{"ha":1389,"x_min":85,"x_max":1304,"o":"m 1210 665 l 164 665 l 164 731 l 796 731 l 871 928 l 1039 928 l 964 731 l 1246 731 l 1210 665 m 1268 74 l 85 74 l 85 139 l 1304 139 l 1268 74 m 221 443 l 1189 443 l 1153 378 l 221 378 l 221 443 m 392 771 l 303 928 l 474 928 l 565 771 l 392 771 z "},"共":{"ha":1389,"x_min":121,"x_max":1268,"o":"m 1104 353 l 1229 81 l 1046 81 l 917 353 l 1104 353 m 292 353 l 479 353 l 350 81 l 168 81 l 292 353 m 1268 481 l 1231 415 l 121 415 l 121 481 l 325 481 l 325 751 l 156 751 l 156 817 l 325 817 l 325 921 l 483 921 l 483 817 l 914 817 l 914 921 l 1072 921 l 1072 817 l 1233 817 l 1196 751 l 1072 751 l 1072 481 l 1268 481 m 483 481 l 914 481 l 914 751 l 483 751 l 483 481 z "},"关":{"ha":1389,"x_min":86,"x_max":1301,"o":"m 319 74 l 86 74 l 597 418 l 597 460 l 96 460 l 96 526 l 597 526 l 597 761 l 150 761 l 150 828 l 338 828 l 297 926 l 468 926 l 508 828 l 879 828 l 919 926 l 1090 926 l 1050 828 l 1238 828 l 1201 761 l 781 761 l 781 526 l 1292 526 l 1256 460 l 781 460 l 781 385 l 719 343 l 901 343 l 1301 74 l 1068 74 l 694 326 l 319 74 z "},"兴":{"ha":1389,"x_min":85,"x_max":1303,"o":"m 1264 517 l 85 517 l 85 578 l 892 578 l 1043 926 l 1214 926 l 1064 578 l 1303 578 l 1264 517 m 463 468 l 293 74 l 121 74 l 292 468 l 463 468 m 1083 74 l 914 468 l 1086 468 l 1256 74 l 1083 74 m 308 631 l 181 926 l 351 926 l 481 631 l 308 631 m 600 631 l 472 926 l 644 926 l 772 631 l 600 631 z "},"兵":{"ha":1389,"x_min":97,"x_max":1290,"o":"m 1250 686 l 1219 625 l 1135 625 l 1135 386 l 1290 386 l 1264 325 l 107 325 l 107 386 l 218 386 l 218 867 l 1219 913 l 1179 857 l 385 813 l 385 686 l 1250 686 m 976 386 l 976 625 l 385 625 l 385 386 l 976 386 m 97 89 l 243 272 l 447 272 l 301 89 l 97 89 m 1096 89 l 976 272 l 1160 272 l 1279 89 l 1096 89 z "},"其":{"ha":1389,"x_min":85,"x_max":1303,"o":"m 1151 333 l 1303 333 l 1261 272 l 85 272 l 85 333 l 236 333 l 236 796 l 85 796 l 85 853 l 236 853 l 236 928 l 394 928 l 394 853 l 993 853 l 993 928 l 1151 928 l 1151 853 l 1303 853 l 1261 796 l 1151 796 l 1151 333 m 394 503 l 993 503 l 993 622 l 394 622 l 394 503 m 394 796 l 394 678 l 993 678 l 993 796 l 394 796 m 394 333 l 993 333 l 993 447 l 394 447 l 394 333 m 1157 244 l 1244 74 l 1083 74 l 993 244 l 1157 244 m 233 244 l 394 244 l 306 74 l 143 74 l 233 244 z "},"具":{"ha":1389,"x_min":81,"x_max":1307,"o":"m 1307 356 l 1265 294 l 81 294 l 81 356 l 204 356 l 204 928 l 1025 928 l 985 867 l 363 867 l 363 738 l 1025 738 l 1025 928 l 1185 928 l 1185 356 l 1307 356 m 363 676 l 363 546 l 1025 546 l 1025 676 l 363 676 m 1025 356 l 1025 485 l 363 485 l 363 356 l 1025 356 m 1163 264 l 1250 74 l 1089 74 l 999 264 l 1163 264 m 228 264 l 389 264 l 301 74 l 138 74 l 228 264 z "},"典":{"ha":1389,"x_min":89,"x_max":1299,"o":"m 1263 224 l 89 224 l 89 289 l 142 289 l 142 875 l 461 875 l 461 928 l 619 928 l 619 875 l 763 875 l 763 928 l 921 928 l 921 875 l 1067 875 l 1031 808 l 921 808 l 921 594 l 1067 594 l 1067 875 l 1225 875 l 1225 289 l 1299 289 l 1263 224 m 300 289 l 461 289 l 461 529 l 300 529 l 300 289 m 921 289 l 1067 289 l 1067 529 l 921 529 l 921 289 m 300 594 l 461 594 l 461 808 l 300 808 l 300 594 m 619 289 l 763 289 l 763 529 l 619 529 l 619 289 m 619 594 l 763 594 l 763 808 l 619 808 l 619 594 m 444 194 l 364 74 l 183 74 l 264 194 l 444 194 m 1100 194 l 1181 74 l 1000 74 l 921 194 l 1100 194 z "},"兹":{"ha":1389,"x_min":88,"x_max":1300,"o":"m 1033 926 l 976 801 l 1300 801 l 1268 729 l 1029 729 l 913 465 l 1124 465 l 910 142 l 1106 142 l 1075 74 l 710 74 l 733 107 l 924 393 l 725 393 l 756 456 l 876 729 l 474 729 l 357 465 l 568 465 l 353 142 l 550 142 l 519 74 l 154 74 l 178 107 l 368 393 l 169 393 l 199 454 l 321 729 l 88 729 l 88 801 l 410 801 l 354 926 l 531 926 l 588 801 l 800 801 l 857 926 l 1033 926 m 1068 254 l 1175 254 l 1238 74 l 1131 74 l 1068 254 m 513 254 l 619 254 l 682 74 l 575 74 l 513 254 z "},"养":{"ha":1389,"x_min":110,"x_max":1279,"o":"m 1128 431 l 1279 311 l 1092 311 l 940 431 l 439 431 l 297 292 l 110 292 l 251 431 l 144 431 l 144 497 l 318 497 l 399 576 l 182 576 l 182 642 l 465 642 l 560 736 l 156 736 l 156 801 l 846 801 l 919 928 l 1088 928 l 1014 801 l 1236 801 l 1200 736 l 749 736 l 653 642 l 1200 642 l 1164 576 l 586 576 l 506 497 l 1247 497 l 1210 431 l 1128 431 m 569 336 l 393 93 l 228 93 l 401 336 l 569 336 m 1018 336 l 1018 74 l 860 74 l 860 336 l 1018 336 m 489 928 l 547 817 l 375 817 l 318 928 l 489 928 z "},"兼":{"ha":1389,"x_min":85,"x_max":1303,"o":"m 1046 840 l 1303 840 l 1267 781 l 896 781 l 896 722 l 1063 722 l 1026 661 l 896 661 l 896 547 l 1063 547 l 1063 722 l 1221 722 l 1221 547 l 1303 547 l 1267 486 l 1221 486 l 1221 311 l 1063 311 l 1063 313 l 896 313 l 896 71 l 738 71 l 738 313 l 590 313 l 590 71 l 432 71 l 432 313 l 158 313 l 158 374 l 432 374 l 432 486 l 85 486 l 85 547 l 432 547 l 432 661 l 158 661 l 158 722 l 432 722 l 432 781 l 85 781 l 85 840 l 306 840 l 269 929 l 428 929 l 464 840 l 888 840 l 924 929 l 1082 929 l 1046 840 m 1250 71 l 1092 71 l 1033 279 l 1192 279 l 1250 71 m 349 279 l 292 71 l 133 71 l 190 279 l 349 279 m 896 486 l 896 374 l 1063 374 l 1063 486 l 896 486 m 738 661 l 590 661 l 590 547 l 738 547 l 738 661 m 738 374 l 738 486 l 590 486 l 590 374 l 738 374 m 738 781 l 590 781 l 590 722 l 738 722 l 738 781 z "},"兽":{"ha":1389,"x_min":107,"x_max":1281,"o":"m 972 811 l 1222 811 l 1222 501 l 165 501 l 165 811 l 794 811 l 865 919 l 1046 919 l 972 811 m 213 375 l 1174 375 l 1174 82 l 213 82 l 213 375 m 1013 144 l 1013 357 l 976 308 l 376 308 l 376 144 l 1013 144 m 1260 410 l 107 410 l 107 471 l 1281 471 l 1260 410 m 1058 564 l 1058 624 l 750 624 l 750 564 l 1058 564 m 750 743 l 750 686 l 1058 686 l 1058 743 l 750 743 m 586 564 l 586 624 l 328 624 l 328 564 l 586 564 m 521 919 l 585 836 l 401 836 l 342 919 l 521 919 m 328 743 l 328 686 l 586 686 l 586 743 l 328 743 z "},"冀":{"ha":1389,"x_min":144,"x_max":1243,"o":"m 1208 186 l 979 186 l 1243 143 l 1243 71 l 810 150 l 810 186 l 576 186 l 576 150 l 144 71 l 144 143 l 407 186 l 144 186 l 144 250 l 365 250 l 365 315 l 144 315 l 144 381 l 365 381 l 365 419 l 196 419 l 196 688 l 1032 688 l 997 624 l 772 624 l 772 581 l 1032 581 l 1032 688 l 1190 688 l 1190 419 l 1022 419 l 1022 381 l 1243 381 l 1208 315 l 1022 315 l 1022 250 l 1243 250 l 1208 186 m 1243 838 l 935 811 l 935 771 l 1243 771 l 1185 706 l 776 706 l 776 929 l 935 929 l 935 879 l 1243 906 l 1243 838 m 611 706 l 453 706 l 453 729 l 144 706 l 144 771 l 453 789 l 453 824 l 144 824 l 144 888 l 453 888 l 453 929 l 611 929 l 611 706 m 524 250 l 863 250 l 863 315 l 524 315 l 524 250 m 524 381 l 863 381 l 863 419 l 524 419 l 524 381 m 354 581 l 614 581 l 614 624 l 354 624 l 354 581 m 354 485 l 614 485 l 614 517 l 354 517 l 354 485 m 772 485 l 1032 485 l 1032 517 l 772 517 l 772 485 z "},"内":{"ha":1389,"x_min":111,"x_max":1276,"o":"m 301 75 l 111 75 l 111 847 l 581 847 l 607 928 l 796 928 l 768 847 l 1086 847 l 1049 782 l 746 782 l 713 686 l 817 686 l 1033 192 l 850 192 l 678 585 l 543 190 l 354 190 l 557 782 l 301 782 l 301 75 m 1276 847 l 1276 74 l 890 74 l 865 135 l 1086 135 l 1086 847 l 1276 847 z "},"冈":{"ha":1389,"x_min":131,"x_max":1258,"o":"m 1258 74 l 864 74 l 864 140 l 1090 140 l 1090 922 l 1042 863 l 299 863 l 299 76 l 131 76 l 131 928 l 1258 928 l 1258 74 m 363 218 l 600 490 l 358 768 l 547 768 l 694 599 l 842 768 l 1031 768 l 789 490 l 1026 218 l 836 218 l 694 381 l 553 218 l 363 218 z "},"冉":{"ha":1389,"x_min":108,"x_max":1281,"o":"m 339 79 l 178 79 l 178 267 l 108 267 l 108 331 l 178 331 l 178 808 l 594 808 l 594 922 l 756 922 l 756 808 l 1203 808 l 1203 331 l 1281 331 l 1236 267 l 1203 267 l 1203 78 l 849 78 l 806 143 l 1042 143 l 1042 267 l 339 267 l 339 79 m 756 504 l 756 331 l 1042 331 l 1042 560 l 1007 504 l 756 504 m 756 743 l 756 571 l 1042 571 l 1042 797 l 1007 743 l 756 743 m 339 331 l 594 331 l 594 504 l 339 504 l 339 331 m 339 571 l 594 571 l 594 743 l 339 743 l 339 571 z "},"册":{"ha":1389,"x_min":99,"x_max":1290,"o":"m 206 511 l 99 511 l 99 574 l 206 574 l 206 926 l 501 926 l 464 863 l 367 863 l 367 574 l 501 574 l 501 926 l 664 926 l 664 574 l 721 574 l 721 926 l 1182 926 l 1182 574 l 1290 574 l 1254 511 l 1182 511 l 1182 74 l 956 74 l 921 136 l 1018 136 l 1018 511 l 882 511 l 882 390 l 833 74 l 672 74 l 721 390 l 721 511 l 664 511 l 664 74 l 438 74 l 404 136 l 501 136 l 501 511 l 367 511 l 367 390 l 318 74 l 157 74 l 206 390 l 206 511 m 882 574 l 1018 574 l 1018 907 l 993 863 l 882 863 l 882 574 z "},"再":{"ha":1389,"x_min":89,"x_max":1300,"o":"m 964 690 l 761 690 l 761 574 l 1000 574 l 1000 757 l 1158 757 l 1158 408 l 1299 408 l 1263 343 l 1158 343 l 1158 86 l 871 86 l 842 146 l 1000 146 l 1000 343 l 365 343 l 365 86 l 206 86 l 206 343 l 89 343 l 89 408 l 206 408 l 206 757 l 601 757 l 601 849 l 114 849 l 114 915 l 1300 915 l 1263 849 l 761 849 l 761 757 l 1000 757 l 964 690 m 365 574 l 601 574 l 601 690 l 365 690 l 365 574 m 761 408 l 1000 408 l 1000 508 l 761 508 l 761 408 m 365 408 l 601 408 l 601 508 l 365 508 l 365 408 z "},"冒":{"ha":1389,"x_min":150,"x_max":1239,"o":"m 289 74 l 150 74 l 150 511 l 1239 511 l 1239 72 l 289 72 l 289 74 m 308 554 l 150 554 l 150 928 l 1239 928 l 1239 554 l 1081 554 l 1081 925 l 1046 861 l 308 861 l 308 554 m 1081 133 l 1081 208 l 308 208 l 308 133 l 1081 133 m 308 269 l 1081 269 l 1081 332 l 308 332 l 308 269 m 308 446 l 308 393 l 1081 393 l 1081 510 l 1046 446 l 308 446 m 1011 692 l 357 692 l 357 753 l 1011 753 l 1011 692 m 357 617 l 1011 617 l 1011 557 l 357 557 l 357 617 z "},"冗":{"ha":1389,"x_min":164,"x_max":1224,"o":"m 1196 92 l 819 92 l 819 704 l 782 646 l 540 646 l 363 92 l 203 92 l 401 711 l 979 711 l 979 158 l 1063 158 l 1063 336 l 1196 336 l 1196 92 m 324 708 l 164 708 l 164 908 l 1224 908 l 1224 708 l 1063 708 l 1063 901 l 1025 843 l 324 843 l 324 708 z "},"写":{"ha":1389,"x_min":96,"x_max":1292,"o":"m 544 801 l 526 696 l 1092 696 l 1053 635 l 515 635 l 496 521 l 1182 521 l 1132 75 l 694 75 l 656 135 l 974 135 l 1010 460 l 321 460 l 379 801 l 544 801 m 96 926 l 1292 926 l 1292 729 l 1133 729 l 1133 915 l 1101 865 l 254 865 l 254 729 l 96 729 l 96 926 m 154 331 l 894 331 l 856 269 l 154 269 l 154 331 z "},"军":{"ha":1389,"x_min":164,"x_max":1224,"o":"m 836 308 l 1224 308 l 1186 243 l 836 243 l 836 78 l 650 78 l 650 243 l 183 243 l 183 308 l 650 308 l 650 428 l 218 428 l 374 635 l 215 635 l 215 701 l 422 701 l 519 829 l 711 829 l 615 701 l 1143 701 l 1107 635 l 565 635 l 460 493 l 650 493 l 650 586 l 836 586 l 836 493 l 1143 493 l 1107 428 l 836 428 l 836 308 m 164 922 l 1186 922 l 1186 757 l 1031 757 l 1031 858 l 324 858 l 324 757 l 164 757 l 164 922 z "},"农":{"ha":1389,"x_min":167,"x_max":1222,"o":"m 379 643 l 221 643 l 221 875 l 594 875 l 635 928 l 793 928 l 753 875 l 1036 875 l 1000 808 l 700 808 l 486 536 l 549 536 l 549 135 l 828 135 l 804 74 l 390 74 l 390 415 l 325 332 l 167 332 l 542 808 l 379 808 l 379 643 m 1051 494 l 1197 492 l 1083 357 l 1040 360 l 1222 75 l 1064 75 l 718 615 l 876 615 l 996 428 l 1051 494 m 1194 875 l 1194 643 l 1036 643 l 1036 875 l 1194 875 z "},"冠":{"ha":1389,"x_min":96,"x_max":1292,"o":"m 151 688 l 668 688 l 631 621 l 151 621 l 151 688 m 257 738 l 96 738 l 96 906 l 1292 906 l 1292 733 l 1206 733 l 1206 693 l 1268 693 l 1232 626 l 1206 626 l 1206 203 l 924 203 l 889 267 l 1042 267 l 1042 626 l 722 626 l 722 693 l 1042 693 l 1042 754 l 1136 754 l 1136 842 l 257 842 l 257 738 m 938 529 l 974 346 l 819 346 l 783 529 l 938 529 m 257 96 l 96 96 l 200 276 l 200 458 l 115 458 l 115 524 l 722 524 l 685 458 l 617 458 l 617 163 l 1278 163 l 1239 94 l 451 94 l 451 458 l 361 458 l 361 276 l 257 96 z "},"冤":{"ha":1389,"x_min":111,"x_max":1276,"o":"m 1151 635 l 1151 354 l 826 354 l 826 138 l 1106 138 l 1121 193 l 1276 193 l 1244 76 l 671 76 l 671 354 l 631 354 l 472 89 l 140 89 l 111 150 l 331 150 l 451 354 l 189 354 l 189 635 l 756 635 l 786 678 l 264 678 l 349 794 l 529 794 l 489 740 l 1011 740 l 933 635 l 1151 635 m 118 925 l 1217 925 l 1217 757 l 1061 757 l 1061 919 l 1029 858 l 276 858 l 276 757 l 118 757 l 118 925 m 996 421 l 996 567 l 758 567 l 671 421 l 996 421 m 347 421 l 492 421 l 578 567 l 347 567 l 347 421 m 1096 188 l 940 188 l 851 307 l 1008 307 l 1096 188 z "},"冥":{"ha":1389,"x_min":86,"x_max":1301,"o":"m 758 429 l 772 369 l 1297 369 l 1261 303 l 86 303 l 86 369 l 613 369 l 599 429 l 93 429 l 93 729 l 1143 729 l 1094 668 l 251 668 l 251 610 l 1143 610 l 1143 729 l 1301 729 l 1301 429 l 758 429 m 246 793 l 90 793 l 90 917 l 1294 917 l 1294 793 l 1138 793 l 1138 913 l 1104 851 l 246 851 l 246 793 m 251 490 l 1143 490 l 1143 549 l 251 549 l 251 490 m 313 261 l 474 261 l 254 83 l 93 83 l 313 261 m 1072 261 l 1292 83 l 1131 83 l 911 261 l 1072 261 z "},"冬":{"ha":1389,"x_min":53,"x_max":1335,"o":"m 1335 467 l 1335 351 l 679 511 l 468 449 l 1138 369 l 1138 265 l 385 340 l 414 432 l 53 326 l 53 443 l 471 561 l 290 606 l 335 717 l 697 625 l 1049 725 l 1049 854 l 349 854 l 285 692 l 117 692 l 217 944 l 385 944 l 375 919 l 1207 919 l 1207 667 l 899 575 l 1335 467 m 1226 163 l 1226 57 l 246 129 l 282 243 l 1226 163 z "},"冯":{"ha":1389,"x_min":108,"x_max":1279,"o":"m 1279 76 l 781 76 l 750 142 l 1121 142 l 1121 429 l 551 429 l 551 832 l 710 832 l 710 496 l 1033 496 l 1033 860 l 489 860 l 489 925 l 1192 925 l 1192 496 l 1279 496 l 1279 76 m 108 88 l 279 544 l 447 544 l 276 88 l 108 88 m 406 618 l 240 618 l 140 911 l 307 911 l 406 618 m 1021 235 l 406 235 l 406 300 l 1057 300 l 1021 235 z "},"冰":{"ha":1389,"x_min":92,"x_max":1296,"o":"m 708 926 l 876 926 l 876 75 l 607 75 l 607 136 l 708 136 l 708 926 m 1296 75 l 1138 75 l 886 679 l 886 681 l 1260 768 l 1260 694 l 1060 647 l 1296 75 m 694 711 l 472 76 l 314 76 l 515 650 l 364 650 l 364 711 l 694 711 m 364 540 l 251 94 l 92 94 l 200 540 l 364 540 m 193 614 l 108 871 l 267 871 l 354 614 l 193 614 z "},"冲":{"ha":1389,"x_min":85,"x_max":1303,"o":"m 1144 476 l 1144 776 l 1303 776 l 1303 308 l 978 308 l 978 74 l 800 74 l 800 308 l 474 308 l 474 776 l 800 776 l 800 926 l 978 926 l 978 776 l 1144 776 l 1108 711 l 978 711 l 978 372 l 1144 372 l 1144 476 m 85 74 l 256 532 l 424 532 l 253 74 l 85 74 m 632 372 l 800 372 l 800 711 l 632 711 l 632 372 m 382 604 l 217 604 l 117 897 l 282 897 l 382 604 z "},"决":{"ha":1389,"x_min":119,"x_max":1268,"o":"m 1203 486 l 1268 486 l 1232 419 l 878 419 l 878 418 l 875 418 l 690 72 l 515 72 l 697 419 l 515 419 l 515 486 l 713 486 l 713 733 l 515 733 l 515 799 l 713 799 l 713 928 l 878 928 l 878 799 l 1033 799 l 997 733 l 878 733 l 878 486 l 1033 486 l 1033 799 l 1203 799 l 1203 486 m 151 910 l 317 910 l 417 617 l 251 617 l 151 910 m 1240 72 l 1074 72 l 914 389 l 1079 389 l 1240 72 m 288 86 l 119 86 l 290 544 l 458 544 l 288 86 z "},"况":{"ha":1389,"x_min":103,"x_max":1286,"o":"m 1057 147 l 1286 147 l 1256 82 l 890 82 l 890 475 l 675 82 l 376 82 l 346 147 l 525 147 l 707 479 l 689 479 l 689 478 l 519 478 l 519 919 l 1081 919 l 1057 871 l 689 871 l 689 526 l 1081 526 l 1081 919 l 1250 919 l 1250 478 l 1081 478 l 1081 479 l 1057 479 l 1057 147 m 442 540 l 271 82 l 103 82 l 274 540 l 442 540 m 300 906 l 400 613 l 235 613 l 135 906 l 300 906 z "},"冶":{"ha":1389,"x_min":124,"x_max":1264,"o":"m 1032 518 l 644 518 l 644 163 l 1075 163 l 1075 586 l 1238 586 l 1238 96 l 479 96 l 479 586 l 1068 586 l 1032 518 m 1079 743 l 1026 681 l 464 681 l 536 904 l 703 904 l 653 743 l 1079 743 m 399 533 l 229 533 l 124 906 l 292 906 l 399 533 m 124 101 l 221 461 l 389 461 l 292 101 l 124 101 m 1199 894 l 1264 681 l 1101 681 l 1033 894 l 1199 894 z "},"冷":{"ha":1389,"x_min":129,"x_max":1260,"o":"m 1083 563 l 857 842 l 631 563 l 456 563 l 754 931 l 961 931 l 1260 563 l 1083 563 m 521 513 l 1235 513 l 936 217 l 1026 169 l 1026 69 l 642 274 l 642 374 l 817 281 l 986 447 l 521 447 l 521 513 m 129 125 l 296 526 l 464 526 l 297 125 l 129 125 m 460 588 l 294 588 l 161 865 l 326 865 l 460 588 m 1007 561 l 842 561 l 753 672 l 918 672 l 1007 561 z "},"冻":{"ha":1389,"x_min":106,"x_max":1282,"o":"m 1211 433 l 957 433 l 957 72 l 686 72 l 653 136 l 797 136 l 797 433 l 467 433 l 564 733 l 446 733 l 446 793 l 583 793 l 628 928 l 788 928 l 743 793 l 1281 793 l 1251 733 l 724 733 l 647 494 l 797 494 l 797 653 l 957 653 l 957 494 l 1242 494 l 1211 433 m 272 97 l 111 97 l 231 546 l 390 546 l 272 97 m 574 75 l 413 75 l 513 360 l 674 360 l 574 75 m 993 360 l 1154 360 l 1282 75 l 1121 75 l 993 360 m 368 629 l 208 629 l 106 910 l 267 910 l 368 629 z "},"净":{"ha":1389,"x_min":119,"x_max":1268,"o":"m 1201 469 l 1268 469 l 1231 403 l 1201 403 l 1201 224 l 915 224 l 915 74 l 617 74 l 579 139 l 722 139 l 722 224 l 514 224 l 514 289 l 722 289 l 722 403 l 514 403 l 514 469 l 722 469 l 722 572 l 514 572 l 514 638 l 1032 638 l 996 572 l 915 572 l 915 469 l 1032 469 l 1032 638 l 1201 638 l 1201 469 m 901 685 l 944 785 l 718 785 l 681 685 l 515 685 l 604 926 l 769 926 l 742 849 l 1136 849 l 1067 685 l 901 685 m 288 89 l 119 89 l 289 547 l 457 547 l 288 89 m 250 619 l 150 913 l 317 913 l 417 619 l 250 619 m 1032 403 l 915 403 l 915 289 l 1032 289 l 1032 403 z "},"凄":{"ha":1389,"x_min":111,"x_max":1278,"o":"m 1240 553 l 1197 553 l 1197 426 l 511 426 l 511 494 l 754 494 l 754 553 l 476 553 l 476 618 l 754 618 l 754 690 l 511 690 l 511 756 l 754 756 l 754 806 l 457 806 l 457 871 l 754 871 l 754 917 l 899 917 l 899 871 l 1257 871 l 1219 806 l 899 806 l 899 756 l 1197 756 l 1197 618 l 1276 618 l 1240 553 m 1211 315 l 1114 315 q 1113 283 1113 300 l 1113 253 l 986 196 l 1278 85 l 994 85 l 860 139 l 739 86 l 503 86 l 726 189 l 526 256 l 592 315 l 461 315 l 461 381 l 657 381 l 682 413 l 825 413 l 800 381 l 1243 381 l 1211 315 m 111 86 l 282 544 l 450 544 l 279 86 l 111 86 m 410 617 l 243 617 l 143 910 l 310 910 l 410 617 m 1036 739 l 997 690 l 899 690 l 899 618 l 1036 618 l 1036 739 m 976 315 l 738 315 l 718 297 l 853 246 l 976 303 l 976 315 m 1036 494 l 1036 553 l 899 553 l 899 494 l 1036 494 z "},"准":{"ha":1389,"x_min":115,"x_max":1274,"o":"m 1022 689 l 1022 551 l 1254 551 l 1219 490 l 1022 490 l 1022 353 l 1254 353 l 1219 292 l 1022 292 l 1022 139 l 1274 139 l 1239 78 l 518 78 l 518 558 l 399 558 l 576 924 l 740 924 l 656 750 l 904 750 l 840 924 l 983 924 l 1047 750 l 1274 750 l 1239 689 l 1022 689 m 286 546 l 454 546 l 283 89 l 115 89 l 286 546 m 147 913 l 313 913 l 413 619 l 247 619 l 147 913 m 881 292 l 668 292 l 668 139 l 881 139 l 881 292 m 881 490 l 668 490 l 668 353 l 881 353 l 881 490 m 881 689 l 668 689 l 668 551 l 881 551 l 881 689 z "},"凉":{"ha":1389,"x_min":94,"x_max":1294,"o":"m 733 78 l 697 144 l 774 144 l 774 385 l 457 385 l 457 776 l 1236 776 l 1236 385 l 932 385 l 932 78 l 733 78 m 615 451 l 1078 451 l 1078 768 l 1044 710 l 615 710 l 615 451 m 94 75 l 204 490 l 365 490 l 256 75 l 94 75 m 1239 797 l 408 797 l 408 858 l 753 858 l 753 926 l 911 926 l 911 858 l 1281 858 l 1239 797 m 231 550 l 132 894 l 292 894 l 392 550 l 231 550 m 1110 358 l 1294 82 l 1144 82 l 960 358 l 1110 358 m 721 358 l 553 82 l 403 82 l 572 358 l 721 358 z "},"凌":{"ha":1389,"x_min":88,"x_max":1300,"o":"m 1072 221 l 1300 169 l 1300 79 l 871 176 l 397 72 l 397 160 l 679 219 l 614 235 l 614 324 l 883 264 l 1093 308 l 1093 401 l 624 401 l 578 268 l 464 268 l 538 486 l 410 486 l 465 603 l 425 603 l 425 668 l 758 668 l 758 807 l 469 807 l 469 874 l 758 874 l 758 929 l 914 929 l 914 874 l 1236 874 l 1200 807 l 914 807 l 914 668 l 1299 668 l 1261 603 l 1231 603 l 1292 486 l 1161 486 l 1101 603 l 593 603 l 554 518 l 663 518 l 643 468 l 1218 468 l 1218 253 l 1072 221 m 197 486 l 357 486 l 247 72 l 88 72 l 197 486 m 285 892 l 385 546 l 224 546 l 124 892 l 285 892 z "},"减":{"ha":1389,"x_min":113,"x_max":1275,"o":"m 425 507 l 425 556 l 268 556 l 144 849 l 310 849 l 425 578 l 425 824 l 826 824 l 799 929 l 960 929 l 988 824 l 1060 824 l 1038 925 l 1199 925 l 1221 824 l 1268 824 l 1240 758 l 1004 758 l 1053 568 l 1081 622 l 1240 622 l 1106 360 l 1163 138 l 1275 138 l 1247 71 l 1018 71 l 999 151 l 958 75 l 797 75 l 858 193 l 617 193 l 617 514 l 896 514 l 896 264 l 944 360 l 843 758 l 586 758 l 586 229 l 532 76 l 374 76 l 425 235 l 425 443 l 281 97 l 113 97 l 283 507 l 425 507 m 831 582 l 617 582 l 617 649 l 857 649 l 831 582 m 786 258 l 786 447 l 726 447 l 726 258 l 786 258 z "},"凑":{"ha":1389,"x_min":97,"x_max":1292,"o":"m 1121 328 l 975 543 l 718 543 l 607 326 l 436 326 l 547 543 l 460 543 l 460 608 l 581 608 l 622 688 l 518 688 l 518 753 l 656 753 l 746 928 l 917 928 l 826 753 l 1186 753 l 1150 688 l 793 688 l 751 608 l 1246 608 l 1208 543 l 1146 543 l 1292 328 l 1121 328 m 981 388 l 901 388 l 847 286 l 1182 286 l 1144 221 l 1054 221 l 1154 74 l 997 74 l 897 221 l 813 221 l 733 74 l 576 74 l 656 221 l 514 221 l 514 286 l 690 286 l 744 388 l 678 388 l 678 453 l 1018 453 l 981 388 m 97 89 l 268 547 l 436 547 l 265 89 l 97 89 m 394 621 l 229 621 l 129 913 l 294 913 l 394 621 z "},"凛":{"ha":1389,"x_min":89,"x_max":1300,"o":"m 1253 453 l 474 453 l 474 771 l 1253 771 l 1253 453 m 453 347 l 1299 347 l 1263 282 l 958 282 l 958 75 l 761 75 l 724 140 l 800 140 l 800 282 l 453 282 l 453 347 m 1094 519 l 1094 764 l 1061 706 l 632 706 l 632 519 l 1094 519 m 199 486 l 360 486 l 250 72 l 89 72 l 199 486 m 1083 689 l 1083 535 l 644 535 l 644 689 l 925 689 l 888 624 l 803 624 l 803 600 l 925 600 l 925 689 l 1083 689 m 929 860 l 1300 860 l 1258 800 l 426 800 l 426 860 l 771 860 l 771 929 l 929 929 l 929 860 m 286 892 l 386 546 l 225 546 l 126 892 l 286 892 m 503 433 l 1232 433 l 1197 368 l 503 368 l 503 433 m 747 253 l 639 72 l 489 72 l 599 253 l 747 253 m 1136 253 l 1257 72 l 1107 72 l 988 253 l 1136 253 z "},"凝":{"ha":1389,"x_min":56,"x_max":1332,"o":"m 1332 928 l 1246 682 l 1332 682 l 1332 454 l 1204 454 l 1204 614 l 1185 614 l 1185 363 l 1332 363 l 1297 303 l 1185 303 l 1185 135 l 1332 135 l 1297 74 l 994 74 l 994 135 l 1026 135 l 1026 614 l 853 614 l 853 675 l 935 675 l 885 804 l 1043 804 l 1089 686 l 1153 867 l 853 867 l 853 928 l 1332 928 m 356 74 l 506 288 l 383 288 l 383 349 l 525 349 l 525 454 l 383 454 l 440 601 l 608 601 l 583 518 l 800 518 l 800 454 l 683 454 l 683 349 l 824 349 l 788 288 l 703 288 l 799 74 l 640 74 l 590 183 l 514 74 l 356 74 m 788 621 l 406 621 l 406 928 l 564 928 l 564 878 l 810 878 l 774 817 l 564 817 l 564 682 l 824 682 l 788 621 m 224 89 l 56 89 l 225 547 l 393 547 l 224 89 m 981 74 l 825 74 l 825 135 l 853 135 l 853 528 l 981 528 l 981 74 m 186 621 l 86 913 l 253 913 l 353 621 l 186 621 z "},"几":{"ha":1389,"x_min":114,"x_max":1274,"o":"m 1274 140 l 1250 79 l 931 79 l 931 928 l 1089 928 l 1089 140 l 1274 140 m 429 868 l 429 363 l 275 72 l 114 72 l 275 389 l 275 928 l 931 928 l 875 868 l 429 868 z "},"凡":{"ha":1389,"x_min":146,"x_max":1243,"o":"m 264 928 l 932 928 l 896 863 l 422 863 l 422 251 l 318 74 l 146 74 l 264 275 l 264 928 m 1243 139 l 1207 74 l 932 74 l 932 928 l 1090 928 l 1090 139 l 1243 139 m 660 756 l 838 325 l 679 325 l 501 756 l 660 756 z "},"凤":{"ha":1389,"x_min":90,"x_max":1299,"o":"m 349 144 l 574 390 l 394 588 l 585 588 l 668 494 l 763 599 l 763 713 l 396 713 l 396 779 l 921 779 l 921 563 l 764 390 l 989 144 l 797 144 l 669 286 l 540 144 l 349 144 m 168 928 l 1013 928 l 949 860 l 328 860 l 328 351 l 247 74 l 90 74 l 168 357 l 168 928 m 1171 139 l 1299 139 l 1263 74 l 1013 74 l 1013 928 l 1171 928 l 1171 139 z "},"凭":{"ha":1389,"x_min":117,"x_max":1272,"o":"m 1221 850 l 942 833 l 942 688 l 1268 688 l 1231 625 l 942 625 l 942 493 l 1240 493 l 1203 425 l 497 425 l 497 493 l 786 493 l 786 625 l 483 625 l 483 688 l 786 688 l 786 824 l 493 806 l 493 871 l 1257 918 l 1221 850 m 1272 147 l 1236 83 l 1015 83 l 1015 325 l 413 325 l 413 203 l 361 83 l 208 83 l 264 203 l 264 390 l 1167 390 l 1167 147 l 1272 147 m 469 915 l 346 761 l 411 761 l 411 425 l 251 425 l 251 696 l 117 696 l 303 915 l 469 915 z "},"凯":{"ha":1389,"x_min":86,"x_max":1301,"o":"m 1213 139 l 1301 139 l 1269 74 l 1047 74 l 1047 861 l 901 861 l 901 311 l 790 74 l 633 74 l 742 331 l 742 926 l 1213 926 l 1213 139 m 642 649 l 86 649 l 86 926 l 226 926 l 226 714 l 293 714 l 293 926 l 435 926 l 435 714 l 500 714 l 500 926 l 642 926 l 642 649 m 508 419 l 508 582 l 650 582 l 650 354 l 229 354 l 229 139 l 650 139 l 619 74 l 88 74 l 88 419 l 508 419 m 86 582 l 508 582 l 478 517 l 86 517 l 86 582 z "},"凰":{"ha":1389,"x_min":100,"x_max":1289,"o":"m 261 72 l 100 72 l 193 428 l 193 929 l 1007 929 l 968 861 l 351 861 l 351 428 l 261 72 m 982 500 l 831 500 l 831 611 l 536 611 l 536 561 l 831 561 l 789 500 l 385 500 l 385 779 l 533 779 l 569 844 l 738 844 l 701 779 l 982 779 l 982 500 m 1250 83 l 1007 83 l 1007 929 l 1175 929 l 1175 143 l 1289 143 l 1250 83 m 926 240 l 765 240 l 765 149 l 996 149 l 954 88 l 354 88 l 354 149 l 614 149 l 614 240 l 399 240 l 399 300 l 614 300 l 614 392 l 385 392 l 385 453 l 982 453 l 940 392 l 765 392 l 765 300 l 968 300 l 926 240 m 536 672 l 831 672 l 831 718 l 536 718 l 536 672 z "},"凳":{"ha":1389,"x_min":92,"x_max":1297,"o":"m 1290 415 l 1254 350 l 113 350 l 113 415 l 335 415 l 304 474 l 238 474 l 238 619 l 92 619 l 189 690 l 113 813 l 271 813 l 299 769 l 432 867 l 113 867 l 113 928 l 647 928 l 647 867 l 535 785 l 883 785 l 726 928 l 943 928 l 997 878 l 1026 928 l 1165 928 l 1092 792 l 1121 765 l 1168 835 l 1294 835 l 1203 690 l 1282 619 l 1136 619 l 1136 474 l 1069 474 l 1036 415 l 1290 415 m 1297 139 l 1258 74 l 981 74 l 981 251 l 399 251 l 399 167 l 243 185 l 243 317 l 1146 317 l 1146 139 l 1297 139 m 1021 660 l 954 719 l 446 719 l 364 660 l 1021 660 m 407 593 l 407 539 l 965 539 l 965 654 l 932 593 l 407 593 m 901 474 l 472 474 l 501 415 l 871 415 l 901 474 m 306 74 l 129 74 l 243 185 l 399 167 l 306 74 z "},"凶":{"ha":1389,"x_min":190,"x_max":1199,"o":"m 782 554 l 1040 256 l 1040 797 l 1199 797 l 1199 89 l 1040 89 l 1040 106 l 190 89 l 190 797 l 349 797 l 349 231 l 607 554 l 297 913 l 472 913 l 690 660 l 893 913 l 1067 913 l 782 554 m 699 450 l 496 197 l 349 197 l 349 150 l 1040 165 l 1040 197 l 917 197 l 699 450 z "},"凸":{"ha":1389,"x_min":146,"x_max":1242,"o":"m 1242 92 l 146 92 l 146 617 l 365 617 l 365 908 l 865 908 l 824 847 l 524 847 l 524 556 l 304 556 l 304 153 l 1083 153 l 1083 556 l 865 556 l 865 908 l 1024 908 l 1024 617 l 1242 617 l 1242 92 z "},"凹":{"ha":1389,"x_min":147,"x_max":1242,"o":"m 1242 110 l 147 110 l 147 890 l 615 890 l 615 522 l 774 522 l 774 890 l 1083 890 l 1049 826 l 928 826 l 928 458 l 460 458 l 460 826 l 303 826 l 303 174 l 1083 174 l 1083 890 l 1242 890 l 1242 110 z "},"出":{"ha":1389,"x_min":167,"x_max":1222,"o":"m 1200 524 l 774 524 l 774 135 l 1064 135 l 1064 456 l 1222 456 l 1222 74 l 167 74 l 167 456 l 325 456 l 325 135 l 615 135 l 615 524 l 188 524 l 188 878 l 346 878 l 346 585 l 615 585 l 615 928 l 774 928 l 774 585 l 1042 585 l 1042 878 l 1200 878 l 1200 524 z "},"击":{"ha":1389,"x_min":111,"x_max":1278,"o":"m 767 832 l 1238 832 l 1196 774 l 767 774 l 767 549 l 1278 549 l 1247 488 l 767 488 l 767 147 l 1090 147 l 1038 86 l 153 86 l 153 406 l 311 406 l 311 147 l 608 147 l 608 488 l 111 488 l 111 549 l 608 549 l 608 774 l 182 774 l 182 832 l 608 832 l 608 914 l 767 914 l 767 832 m 1247 390 l 1247 86 l 1090 86 l 1090 390 l 1247 390 z "},"函":{"ha":1389,"x_min":138,"x_max":1250,"o":"m 344 906 l 1004 906 l 790 738 l 790 608 l 922 744 l 1076 744 l 897 561 l 800 561 l 1069 440 l 1069 299 l 790 438 l 790 215 l 500 215 l 464 279 l 619 279 l 619 424 l 326 275 l 326 418 l 619 550 l 619 560 l 497 560 l 319 743 l 474 743 l 619 590 l 619 738 l 617 738 l 619 740 l 619 743 l 624 743 l 743 840 l 344 840 l 344 906 m 285 868 l 285 169 l 1103 169 l 1103 861 l 1250 861 l 1250 94 l 138 94 l 138 868 l 285 868 z "},"凿":{"ha":1389,"x_min":168,"x_max":1219,"o":"m 1203 85 l 168 85 l 168 568 l 328 568 l 328 153 l 1043 153 l 1043 568 l 1203 568 l 1203 85 m 768 408 l 768 335 l 968 335 l 939 274 l 768 274 l 768 182 l 593 182 l 593 274 l 396 274 l 396 335 l 593 335 l 593 408 l 386 408 l 386 467 l 483 467 l 422 581 l 588 581 l 646 467 l 707 467 l 761 581 l 926 581 l 868 467 l 985 467 l 953 408 l 768 408 m 292 733 l 168 893 l 324 893 l 432 754 l 432 917 l 590 917 l 590 683 l 799 683 l 799 917 l 957 917 l 957 757 l 1064 893 l 1219 893 l 1096 733 l 957 733 l 957 683 l 1219 683 l 1186 618 l 169 618 l 169 683 l 432 683 l 432 733 l 292 733 z "},"刀":{"ha":1389,"x_min":182,"x_max":1206,"o":"m 1206 932 l 1206 68 l 792 68 l 754 133 l 1044 133 l 1044 867 l 663 867 l 353 79 l 182 79 l 492 867 l 182 867 l 182 932 l 1206 932 z "},"刁":{"ha":1389,"x_min":144,"x_max":1243,"o":"m 1083 843 l 658 843 l 397 92 l 208 92 l 469 843 l 144 843 l 144 910 l 1243 910 l 1243 90 l 806 90 l 768 157 l 1083 157 l 1083 843 z "},"刃":{"ha":1389,"x_min":171,"x_max":1217,"o":"m 433 104 l 281 104 l 507 479 l 607 833 l 229 833 l 229 899 l 1217 899 l 1217 103 l 863 103 l 819 169 l 1063 169 l 1063 833 l 761 833 l 661 479 l 433 104 m 325 314 l 171 314 l 339 710 l 493 710 l 325 314 z "},"分":{"ha":1389,"x_min":101,"x_max":1286,"o":"m 117 508 l 1197 508 l 1197 74 l 714 74 l 678 139 l 1036 139 l 1036 443 l 478 443 l 300 74 l 129 74 l 315 443 l 117 443 l 117 508 m 1118 563 l 893 926 l 1060 926 l 1286 563 l 1118 563 m 268 568 l 101 568 l 325 926 l 492 926 l 268 568 z "},"切":{"ha":1389,"x_min":171,"x_max":1217,"o":"m 522 74 l 250 74 l 286 792 l 171 792 l 171 857 l 290 857 l 293 928 l 449 928 l 446 857 l 568 857 l 536 792 l 442 792 l 408 139 l 554 139 l 522 74 m 1029 861 l 860 861 l 833 294 l 779 74 l 624 74 l 678 294 l 704 861 l 593 861 l 593 928 l 1061 928 l 1029 861 m 946 139 l 1061 139 l 1061 928 l 1217 928 l 1217 74 l 983 74 l 946 139 z "},"刊":{"ha":1389,"x_min":113,"x_max":1276,"o":"m 733 840 l 538 840 l 538 561 l 792 561 l 771 472 l 538 472 l 538 74 l 365 74 l 365 472 l 113 472 l 113 561 l 365 561 l 365 840 l 150 840 l 150 928 l 754 928 l 733 840 m 965 75 l 932 139 l 1099 139 l 1099 928 l 1276 928 l 1276 75 l 965 75 m 976 217 l 804 217 l 804 847 l 976 847 l 976 217 z "},"刑":{"ha":1389,"x_min":85,"x_max":1303,"o":"m 192 474 l 85 474 l 85 536 l 192 536 l 192 857 l 85 857 l 85 921 l 853 921 l 813 857 l 718 857 l 718 536 l 853 536 l 813 474 l 718 474 l 718 74 l 557 74 l 557 474 l 353 474 l 353 368 l 249 74 l 85 74 l 192 368 l 192 474 m 353 536 l 557 536 l 557 857 l 353 857 l 353 536 m 1060 250 l 899 250 l 899 786 l 1060 786 l 1060 250 m 1142 928 l 1303 928 l 1303 75 l 1076 75 l 1044 138 l 1142 138 l 1142 928 z "},"划":{"ha":1389,"x_min":128,"x_max":1261,"o":"m 1261 86 l 968 86 l 942 147 l 1106 147 l 1106 914 l 1261 914 l 1261 86 m 890 219 l 890 849 l 1044 849 l 1044 219 l 890 219 m 857 703 l 518 703 l 603 551 l 650 597 l 847 597 l 674 429 l 871 86 l 701 86 l 567 325 l 324 86 l 128 86 l 493 446 l 347 703 l 140 703 l 140 764 l 311 764 l 225 913 l 396 913 l 482 764 l 635 764 l 554 913 l 740 913 l 857 703 z "},"列":{"ha":1389,"x_min":90,"x_max":1297,"o":"m 1004 243 l 843 243 l 843 779 l 1004 779 l 1004 243 m 1297 928 l 1297 75 l 1001 75 l 969 139 l 1136 139 l 1136 928 l 1297 928 m 90 924 l 810 924 l 772 858 l 385 858 l 331 760 l 708 760 l 708 436 l 336 74 l 143 74 l 404 326 l 243 326 l 129 629 l 290 629 l 404 328 l 411 333 l 550 485 l 550 696 l 110 696 l 204 858 l 90 858 l 90 924 z "},"刘":{"ha":1389,"x_min":103,"x_max":1286,"o":"m 103 853 l 385 853 l 350 928 l 526 928 l 561 853 l 878 853 l 843 790 l 744 790 l 744 574 l 572 383 l 847 74 l 647 74 l 472 272 l 293 74 l 110 74 l 376 381 l 118 669 l 318 669 l 475 493 l 589 625 l 589 790 l 103 790 l 103 853 m 936 136 l 1122 136 l 1122 928 l 1286 928 l 1286 74 l 961 74 l 936 136 m 1061 825 l 1061 226 l 910 226 l 910 825 l 1061 825 z "},"则":{"ha":1389,"x_min":138,"x_max":1250,"o":"m 850 138 l 1090 138 l 1090 928 l 1250 928 l 1250 75 l 888 75 l 850 138 m 1022 894 l 1022 190 l 872 190 l 872 894 l 1022 894 m 553 764 l 553 290 l 650 290 l 819 74 l 636 74 l 506 240 l 344 74 l 144 74 l 379 313 l 379 764 l 553 764 m 304 321 l 138 321 l 138 894 l 794 894 l 794 321 l 628 321 l 628 835 l 304 835 l 304 321 z "},"刚":{"ha":1389,"x_min":100,"x_max":1289,"o":"m 258 72 l 100 72 l 100 926 l 686 926 l 650 861 l 258 861 l 258 72 m 686 139 l 686 926 l 846 926 l 846 72 l 572 72 l 572 139 l 686 139 m 1131 928 l 1289 928 l 1289 72 l 1003 72 l 1003 139 l 1131 139 l 1131 928 m 285 244 l 406 497 l 285 749 l 419 749 l 474 638 l 526 749 l 663 749 l 540 497 l 663 244 l 526 244 l 474 356 l 419 244 l 285 244 m 1072 210 l 914 210 l 914 814 l 1072 814 l 1072 210 z "},"创":{"ha":1389,"x_min":90,"x_max":1297,"o":"m 507 321 l 604 321 l 604 581 l 671 581 l 565 821 l 381 821 l 268 581 l 604 581 l 568 514 l 333 514 l 333 139 l 771 139 l 751 72 l 175 72 l 175 581 l 90 581 l 253 925 l 431 925 l 411 886 l 715 886 l 847 579 l 763 575 l 763 254 l 544 254 l 507 321 m 1136 929 l 1297 929 l 1297 76 l 1069 76 l 1039 140 l 1136 140 l 1136 929 m 1053 251 l 892 251 l 892 788 l 1053 788 l 1053 251 z "},"初":{"ha":1389,"x_min":129,"x_max":1260,"o":"m 500 489 l 588 289 l 465 289 l 446 335 l 446 74 l 292 74 l 292 306 l 281 282 l 129 282 l 382 768 l 171 768 l 171 835 l 294 835 l 294 926 l 449 926 l 449 835 l 578 835 l 424 544 l 565 632 l 565 535 l 500 489 m 769 74 l 601 74 l 760 844 l 629 844 l 629 906 l 1099 906 l 1069 844 l 928 844 l 769 74 m 1260 74 l 1010 74 l 1010 135 l 1099 135 l 1099 906 l 1260 906 l 1260 74 z "},"删":{"ha":1389,"x_min":96,"x_max":1292,"o":"m 750 914 l 713 849 l 681 849 l 681 572 l 750 572 l 750 914 l 892 914 l 892 572 l 969 572 l 932 506 l 892 506 l 892 74 l 726 74 l 690 140 l 750 140 l 750 506 l 681 506 l 681 288 l 663 79 l 526 79 l 546 288 l 546 506 l 488 506 l 488 74 l 331 74 l 294 140 l 344 140 l 344 506 l 276 506 l 276 288 l 257 79 l 122 79 l 142 288 l 142 506 l 96 506 l 96 572 l 142 572 l 142 914 l 488 914 l 488 572 l 546 572 l 546 914 l 750 914 m 1292 74 l 1115 74 l 1079 140 l 1150 140 l 1150 928 l 1292 928 l 1292 74 m 1111 228 l 989 228 l 989 821 l 1111 821 l 1111 228 m 344 914 l 308 849 l 276 849 l 276 572 l 344 572 l 344 914 z "},"判":{"ha":1389,"x_min":93,"x_max":1296,"o":"m 1024 908 l 1024 199 l 865 199 l 865 908 l 1024 908 m 1138 72 l 1138 74 l 1049 74 l 1024 135 l 1138 135 l 1138 928 l 1296 928 l 1296 72 l 1138 72 m 251 874 l 313 632 l 154 632 l 93 874 l 251 874 m 792 874 l 731 632 l 572 632 l 633 874 l 792 874 m 522 525 l 522 397 l 815 397 l 815 336 l 517 336 l 431 72 l 272 72 l 358 336 l 99 336 l 99 397 l 364 397 l 364 525 l 99 525 l 99 586 l 364 586 l 364 928 l 522 928 l 522 586 l 815 586 l 815 525 l 522 525 z "},"刨":{"ha":1389,"x_min":92,"x_max":1296,"o":"m 92 74 l 92 754 l 449 754 l 425 693 l 250 693 l 250 369 l 449 369 l 449 754 l 607 754 l 607 308 l 250 308 l 250 133 l 889 133 l 864 74 l 92 74 m 292 928 l 274 878 l 835 878 l 835 228 l 632 228 l 607 289 l 676 289 l 676 817 l 92 817 l 133 928 l 292 928 m 1138 928 l 1296 928 l 1296 74 l 1063 74 l 1038 133 l 1138 133 l 1138 928 m 1061 228 l 903 228 l 903 908 l 1061 908 l 1061 228 z "},"利":{"ha":1389,"x_min":157,"x_max":1231,"o":"m 543 88 l 385 88 l 385 611 l 317 122 l 157 122 l 224 611 l 178 611 l 178 676 l 385 676 l 385 808 l 178 786 l 178 851 l 749 914 l 749 847 l 543 825 l 543 676 l 760 676 l 738 611 l 543 611 l 543 88 m 1069 915 l 1231 915 l 1231 86 l 1004 86 l 972 150 l 1069 150 l 1069 915 m 997 263 l 836 263 l 836 799 l 997 799 l 997 263 m 553 540 l 714 540 l 771 122 l 610 122 l 553 540 z "},"别":{"ha":1389,"x_min":135,"x_max":1254,"o":"m 1033 250 l 872 250 l 872 843 l 1033 843 l 1033 250 m 996 138 l 1094 138 l 1094 926 l 1254 926 l 1254 74 l 1028 74 l 996 138 m 135 74 l 276 413 l 160 413 l 160 476 l 303 476 l 338 558 l 179 558 l 179 876 l 653 876 l 611 813 l 338 813 l 338 618 l 653 618 l 653 876 l 806 876 l 806 558 l 506 558 l 471 476 l 831 476 l 831 74 l 469 74 l 433 136 l 672 136 l 672 413 l 444 413 l 303 74 l 135 74 z "},"刮":{"ha":1389,"x_min":107,"x_max":1282,"o":"m 388 651 l 107 651 l 107 718 l 388 718 l 388 854 l 135 854 l 135 921 l 838 921 l 801 854 l 553 854 l 553 718 l 864 718 l 828 651 l 553 651 l 553 535 l 681 535 l 643 469 l 292 469 l 292 151 l 681 151 l 681 535 l 828 535 l 828 76 l 138 76 l 138 535 l 388 535 l 388 651 m 996 138 l 1121 138 l 1121 926 l 1282 926 l 1282 74 l 1028 74 l 996 138 m 1047 242 l 907 242 l 907 792 l 1047 792 l 1047 242 z "},"到":{"ha":1389,"x_min":104,"x_max":1283,"o":"m 615 578 l 104 578 l 203 861 l 122 861 l 122 926 l 793 926 l 757 861 l 378 861 l 301 646 l 647 646 l 596 814 l 757 814 l 828 578 l 667 578 l 650 633 l 615 578 m 1122 926 l 1283 926 l 1283 74 l 1057 74 l 1025 138 l 1122 138 l 1122 926 m 547 439 l 828 439 l 792 374 l 547 374 l 547 171 l 803 190 l 803 124 l 113 74 l 113 139 l 386 158 l 386 374 l 113 374 l 113 439 l 386 439 l 386 525 l 547 525 l 547 439 m 1025 206 l 889 206 l 889 926 l 1025 926 l 1025 206 z "},"制":{"ha":1389,"x_min":114,"x_max":1274,"o":"m 549 925 l 549 829 l 800 829 l 765 768 l 549 768 l 549 671 l 824 671 l 789 610 l 549 610 l 549 515 l 804 515 l 804 142 l 614 142 l 581 203 l 646 203 l 646 454 l 549 454 l 549 75 l 390 75 l 390 454 l 292 454 l 292 142 l 133 142 l 133 515 l 390 515 l 390 610 l 114 610 l 114 671 l 390 671 l 390 768 l 288 768 l 272 715 l 114 715 l 167 885 l 325 885 l 307 829 l 390 829 l 390 925 l 549 925 m 1015 136 l 1113 136 l 1113 926 l 1274 926 l 1274 74 l 1046 74 l 1015 136 m 875 785 l 1036 785 l 1036 249 l 875 249 l 875 785 z "},"刷":{"ha":1389,"x_min":85,"x_max":1303,"o":"m 149 926 l 897 926 l 897 661 l 307 661 l 307 322 l 244 74 l 85 74 l 149 322 l 149 926 m 697 581 l 894 581 l 894 138 l 740 138 l 740 518 l 697 518 l 697 74 l 540 74 l 540 518 l 500 518 l 500 138 l 343 138 l 343 581 l 540 581 l 540 633 l 697 633 l 697 581 m 1303 926 l 1303 74 l 1076 74 l 1044 138 l 1142 138 l 1142 926 l 1303 926 m 1110 249 l 949 249 l 949 785 l 1110 785 l 1110 249 m 307 863 l 307 725 l 744 725 l 744 910 l 693 863 l 307 863 z "},"券":{"ha":1389,"x_min":126,"x_max":1261,"o":"m 408 72 l 235 72 l 472 393 l 349 393 l 301 339 l 126 339 l 310 551 l 163 551 l 163 615 l 365 615 l 450 713 l 163 713 l 163 776 l 506 776 l 631 921 l 806 921 l 681 776 l 1219 776 l 1175 713 l 625 713 l 540 615 l 1219 615 l 1175 551 l 1022 551 l 1261 336 l 1086 336 l 1049 369 l 1049 72 l 742 72 l 699 139 l 888 139 l 888 393 l 647 393 l 408 72 m 403 457 l 951 457 l 847 551 l 485 551 l 403 457 m 196 928 l 339 928 l 411 799 l 269 799 l 196 928 m 1093 799 l 951 799 l 1026 928 l 1169 928 l 1093 799 z "},"刹":{"ha":1389,"x_min":132,"x_max":1257,"o":"m 576 81 l 396 81 l 358 146 l 426 146 l 426 465 l 376 465 l 307 81 l 156 81 l 222 465 l 153 465 l 153 536 l 426 536 l 426 603 l 576 603 l 576 536 l 846 536 l 811 465 l 576 465 l 576 81 m 1257 81 l 993 81 l 957 146 l 1100 146 l 1100 921 l 1257 921 l 1257 81 m 132 897 l 372 897 l 499 824 l 626 897 l 867 897 l 619 753 l 867 610 l 626 610 l 499 683 l 372 610 l 132 610 l 379 753 l 132 897 m 1043 281 l 903 281 l 903 824 l 1043 824 l 1043 281 m 833 81 l 683 81 l 624 415 l 775 415 l 833 81 z "},"刺":{"ha":1389,"x_min":108,"x_max":1279,"o":"m 707 335 l 831 75 l 672 75 l 549 335 l 549 75 l 390 75 l 390 335 l 267 75 l 108 75 l 269 413 l 157 413 l 157 775 l 390 775 l 390 831 l 108 831 l 108 893 l 390 893 l 390 926 l 549 926 l 549 893 l 831 893 l 796 831 l 549 831 l 549 775 l 624 775 l 589 711 l 549 711 l 549 335 l 707 335 m 1279 926 l 1279 75 l 900 75 l 865 139 l 1121 139 l 1121 926 l 1279 926 m 1024 249 l 865 249 l 865 893 l 1024 893 l 1024 249 m 624 475 l 624 775 l 782 775 l 782 413 l 586 413 l 551 475 l 624 475 m 390 711 l 315 711 l 315 413 l 390 413 l 390 711 z "},"刻":{"ha":1389,"x_min":89,"x_max":1299,"o":"m 301 304 l 89 304 l 329 483 l 89 483 l 89 549 l 278 760 l 89 760 l 89 825 l 364 825 l 328 928 l 489 928 l 525 825 l 835 825 l 797 760 l 464 760 l 275 549 l 417 549 l 565 660 l 778 660 l 301 304 m 1139 926 l 1299 926 l 1299 74 l 1072 74 l 1040 138 l 1139 138 l 1139 926 m 308 74 l 89 74 l 615 463 l 836 463 l 586 279 l 653 279 l 846 74 l 667 74 l 519 229 l 308 74 m 1007 250 l 846 250 l 846 785 l 1007 785 l 1007 250 z "},"剂":{"ha":1389,"x_min":129,"x_max":1260,"o":"m 561 929 l 561 851 l 797 851 l 797 790 l 751 790 l 751 685 l 564 581 l 832 413 l 693 413 l 497 535 l 267 413 l 129 413 l 425 585 l 207 719 l 346 719 l 490 625 l 594 685 l 594 790 l 158 790 l 158 851 l 406 851 l 406 929 l 561 929 m 307 71 l 138 71 l 286 381 l 446 381 l 307 71 m 732 381 l 732 71 l 578 71 l 578 381 l 732 381 m 1046 215 l 890 215 l 890 875 l 1046 875 l 1046 215 m 1101 135 l 1101 929 l 1260 929 l 1260 71 l 931 71 l 900 135 l 1101 135 z "},"剃":{"ha":1389,"x_min":111,"x_max":1278,"o":"m 867 82 l 617 82 l 644 151 l 694 151 l 694 372 l 583 372 l 583 76 l 410 76 l 410 372 l 125 372 l 125 647 l 410 647 l 410 754 l 125 754 l 125 833 l 207 833 l 172 925 l 346 925 l 381 833 l 508 833 l 542 921 l 715 921 l 682 833 l 867 833 l 867 569 l 583 569 l 583 450 l 867 450 l 867 82 m 1026 151 l 1104 151 l 1104 908 l 1278 908 l 1278 82 l 999 82 l 1026 151 m 897 863 l 1071 863 l 1071 203 l 897 203 l 897 863 m 283 76 l 111 76 l 197 329 l 371 329 l 283 76 m 410 450 l 410 569 l 299 569 l 299 450 l 410 450 m 583 647 l 694 647 l 694 832 l 667 754 l 583 754 l 583 647 z "},"削":{"ha":1389,"x_min":119,"x_max":1268,"o":"m 853 76 l 592 76 l 556 142 l 694 142 l 694 276 l 292 276 l 292 76 l 133 76 l 133 708 l 411 708 l 411 924 l 576 924 l 576 708 l 694 708 l 658 640 l 292 640 l 292 525 l 694 525 l 694 708 l 853 708 l 853 76 m 1001 76 l 964 142 l 1110 142 l 1110 917 l 1268 917 l 1268 76 l 1001 76 m 1051 276 l 910 276 l 910 819 l 1051 819 l 1051 276 m 694 342 l 694 460 l 292 460 l 292 342 l 694 342 m 869 910 l 815 738 l 644 738 l 696 910 l 869 910 m 193 738 l 119 910 l 290 910 l 365 738 l 193 738 z "},"前":{"ha":1389,"x_min":140,"x_max":1249,"o":"m 628 526 l 628 721 l 786 721 l 786 74 l 535 74 l 499 139 l 628 139 l 628 267 l 336 267 l 336 74 l 178 74 l 178 721 l 628 721 l 590 656 l 336 656 l 336 526 l 628 526 m 1054 139 l 1054 721 l 1213 721 l 1213 74 l 968 74 l 932 139 l 1054 139 m 999 839 l 1249 839 l 1210 776 l 140 776 l 140 839 l 357 839 l 336 928 l 486 928 l 507 839 l 847 839 l 868 928 l 1019 928 l 999 839 m 999 201 l 840 201 l 840 672 l 999 672 l 999 201 m 628 333 l 628 461 l 336 461 l 336 333 l 628 333 z "},"剑":{"ha":1389,"x_min":92,"x_max":1296,"o":"m 842 74 l 172 74 l 172 139 l 531 139 l 569 214 l 517 214 l 372 482 l 543 482 l 626 329 l 703 478 l 871 478 l 700 139 l 869 139 l 842 74 m 286 206 l 150 475 l 319 475 l 458 206 l 286 206 m 1060 232 l 899 232 l 899 582 l 725 582 l 697 613 l 681 571 l 333 571 l 333 636 l 274 574 l 92 574 l 419 918 l 603 918 l 533 847 l 664 847 l 899 592 l 899 768 l 1060 768 l 1060 232 m 675 636 l 507 818 l 333 636 l 675 636 m 1136 926 l 1296 926 l 1296 74 l 1069 74 l 1038 136 l 1136 136 l 1136 926 z "},"剔":{"ha":1389,"x_min":92,"x_max":1296,"o":"m 893 576 l 735 576 l 735 578 l 279 578 l 279 576 l 121 576 l 121 926 l 719 926 l 692 849 l 279 849 l 279 785 l 735 785 l 735 926 l 893 926 l 893 576 m 250 347 l 92 347 l 160 560 l 318 560 l 307 525 l 732 525 l 683 447 l 682 447 l 465 74 l 307 74 l 524 447 l 493 447 l 275 74 l 117 74 l 335 447 l 282 447 l 250 347 m 1138 925 l 1296 925 l 1296 74 l 983 74 l 1032 151 l 1138 151 l 1138 925 m 940 206 l 940 861 l 1099 861 l 1099 206 l 940 206 m 735 525 l 893 525 l 893 74 l 526 74 l 575 151 l 735 151 l 735 525 m 735 656 l 735 706 l 279 706 l 279 656 l 735 656 z "},"剖":{"ha":1389,"x_min":85,"x_max":1303,"o":"m 136 433 l 863 433 l 863 75 l 136 75 l 136 433 m 1303 914 l 1303 74 l 1040 74 l 1003 139 l 1147 139 l 1147 914 l 1303 914 m 772 579 l 901 579 l 882 514 l 85 514 l 85 579 l 218 579 l 156 740 l 306 740 l 369 579 l 621 579 l 675 740 l 828 740 l 772 579 m 292 139 l 708 139 l 708 417 l 657 369 l 292 369 l 292 139 m 1100 272 l 958 272 l 958 817 l 1100 817 l 1100 272 m 863 799 l 111 799 l 111 860 l 415 860 l 415 928 l 567 928 l 567 860 l 899 860 l 863 799 z "},"剥":{"ha":1389,"x_min":97,"x_max":1292,"o":"m 800 572 l 557 572 l 557 85 l 346 85 l 311 147 l 394 147 l 394 572 l 97 572 l 97 638 l 629 638 l 629 853 l 146 853 l 146 915 l 788 915 l 788 638 l 836 638 l 800 572 m 1131 917 l 1292 917 l 1292 83 l 1065 83 l 1033 147 l 1131 147 l 1131 917 m 1018 211 l 858 211 l 858 842 l 1018 842 l 1018 211 m 676 115 l 575 344 l 743 344 l 844 115 l 676 115 m 97 115 l 199 344 l 367 344 l 265 115 l 97 115 m 593 710 l 146 710 l 146 775 l 629 775 l 593 710 m 367 369 l 201 369 l 131 533 l 297 533 l 367 369 m 644 533 l 811 533 l 740 369 l 575 369 l 644 533 z "},"剧":{"ha":1389,"x_min":86,"x_max":1303,"o":"m 236 72 l 86 72 l 172 433 l 172 931 l 853 931 l 853 685 l 324 685 l 324 428 l 319 428 l 236 72 m 328 417 l 513 417 l 513 517 l 328 517 l 328 582 l 513 582 l 513 647 l 668 647 l 668 582 l 853 582 l 822 517 l 668 517 l 668 417 l 853 417 l 853 71 l 328 71 l 328 417 m 1142 924 l 1303 924 l 1303 71 l 1076 71 l 1044 133 l 1142 133 l 1142 924 m 908 782 l 1069 782 l 1069 246 l 908 246 l 908 782 m 481 354 l 481 133 l 700 133 l 700 400 l 649 354 l 481 354 m 324 867 l 324 749 l 700 749 l 700 914 l 649 867 l 324 867 z "},"剩":{"ha":1389,"x_min":101,"x_max":1286,"o":"m 585 744 l 932 744 l 896 679 l 585 679 l 585 75 l 424 75 l 424 679 l 101 679 l 101 744 l 424 744 l 424 825 l 160 801 l 160 867 l 844 928 l 844 863 l 585 839 l 585 744 m 1286 925 l 1286 72 l 1060 72 l 1028 136 l 1125 136 l 1125 925 l 1286 925 m 932 249 l 932 785 l 1093 785 l 1093 249 l 932 249 m 240 636 l 401 636 l 401 326 l 240 326 l 240 390 l 101 353 l 101 422 l 240 465 l 240 524 l 101 524 l 101 588 l 240 588 l 240 636 m 764 636 l 764 546 l 896 583 l 896 518 l 764 481 l 764 388 l 896 388 l 863 326 l 604 326 l 604 636 l 764 636 m 772 303 l 900 75 l 742 75 l 617 303 l 772 303 m 247 303 l 401 303 l 276 75 l 121 75 l 247 303 z "},"剪":{"ha":1389,"x_min":85,"x_max":1304,"o":"m 619 415 l 619 468 l 276 468 l 276 354 l 118 354 l 118 767 l 619 767 l 585 706 l 276 706 l 276 647 l 619 647 l 619 767 l 779 767 l 779 354 l 568 354 l 532 415 l 619 415 m 100 72 l 219 263 l 100 263 l 100 324 l 1269 324 l 1269 71 l 888 71 l 888 132 l 1111 132 l 1111 263 l 378 263 l 258 72 l 100 72 m 1058 871 l 1304 871 l 1268 810 l 85 810 l 85 871 l 294 871 l 271 929 l 453 929 l 476 871 l 876 871 l 900 929 l 1082 929 l 1058 871 m 922 415 l 1111 415 l 1111 767 l 1269 767 l 1269 354 l 958 354 l 922 415 m 843 736 l 1001 736 l 1001 490 l 843 490 l 843 736 m 619 529 l 619 588 l 276 588 l 276 529 l 619 529 z "},"副":{"ha":1389,"x_min":92,"x_max":1297,"o":"m 1053 261 l 892 261 l 892 817 l 1053 817 l 1053 261 m 1136 917 l 1297 917 l 1297 85 l 1026 85 l 994 149 l 1136 149 l 1136 917 m 807 851 l 93 851 l 93 913 l 835 913 l 807 851 m 671 325 l 671 496 l 835 496 l 835 85 l 92 85 l 92 496 l 671 496 l 638 433 l 542 433 l 542 325 l 671 325 m 250 146 l 382 146 l 382 258 l 250 258 l 250 146 m 542 146 l 671 146 l 671 258 l 542 258 l 542 146 m 382 433 l 250 433 l 250 325 l 382 325 l 382 433 m 125 796 l 800 796 l 800 550 l 125 550 l 125 796 m 642 617 l 642 783 l 600 735 l 286 735 l 286 617 l 642 617 z "},"割":{"ha":1389,"x_min":86,"x_max":1303,"o":"m 244 732 l 86 732 l 86 858 l 406 858 l 406 924 l 564 924 l 564 858 l 906 858 l 906 732 l 750 732 l 750 854 l 718 793 l 244 793 l 244 732 m 1107 250 l 947 250 l 947 786 l 1107 786 l 1107 250 m 1303 928 l 1303 75 l 1049 75 l 1018 138 l 1143 138 l 1143 928 l 1303 928 m 571 638 l 571 582 l 917 582 l 879 515 l 571 515 l 571 464 l 917 464 l 879 399 l 571 399 l 571 340 l 906 340 l 906 74 l 86 74 l 86 340 l 410 340 l 410 399 l 86 399 l 86 464 l 410 464 l 410 515 l 86 515 l 86 582 l 410 582 l 410 638 l 86 638 l 86 704 l 410 704 l 410 758 l 571 758 l 571 704 l 917 704 l 879 638 l 571 638 m 719 272 l 233 272 l 233 146 l 761 146 l 761 315 l 719 272 z "},"剿":{"ha":1389,"x_min":93,"x_max":1294,"o":"m 428 275 l 93 275 l 93 335 l 428 335 l 428 368 l 119 368 l 119 732 l 735 732 l 699 671 l 586 671 l 586 581 l 735 581 l 735 732 l 893 732 l 893 368 l 586 368 l 586 335 l 919 335 l 885 275 l 586 275 l 586 74 l 428 74 l 428 275 m 1049 74 l 1013 135 l 1136 135 l 1136 928 l 1294 928 l 1294 74 l 1049 74 m 1092 885 l 1092 188 l 933 188 l 933 885 l 1092 885 m 825 251 l 919 74 l 761 74 l 667 251 l 825 251 m 906 928 l 853 842 l 906 756 l 747 756 l 694 842 l 747 928 l 906 928 m 615 928 l 561 842 l 615 756 l 457 756 l 403 842 l 457 928 l 615 928 m 324 928 l 271 842 l 324 756 l 165 756 l 113 842 l 165 928 l 324 928 m 251 74 l 93 74 l 185 244 l 343 244 l 251 74 m 278 581 l 428 581 l 428 671 l 278 671 l 278 581 m 428 429 l 428 519 l 278 519 l 278 429 l 428 429 m 586 519 l 586 429 l 735 429 l 735 519 l 586 519 z "},"劈":{"ha":1389,"x_min":86,"x_max":1303,"o":"m 1303 388 l 1303 74 l 907 74 l 943 136 l 1153 136 l 1153 324 l 663 324 l 458 74 l 267 74 l 469 324 l 86 324 l 86 388 l 1303 388 m 256 422 l 94 422 l 149 653 l 149 928 l 561 928 l 515 864 l 310 864 l 310 771 l 561 771 l 561 928 l 718 928 l 718 708 l 310 708 l 310 649 l 256 422 m 308 639 l 718 639 l 718 422 l 308 422 l 308 639 m 1286 679 l 1250 617 l 754 617 l 754 679 l 1053 679 l 1114 793 l 1246 793 l 1185 679 l 1286 679 m 946 422 l 946 482 l 754 482 l 754 547 l 946 547 l 946 582 l 1089 582 l 1089 547 l 1286 547 l 1250 482 l 1089 482 l 1089 422 l 946 422 m 1261 828 l 750 828 l 750 892 l 947 892 l 935 928 l 1082 928 l 1092 892 l 1293 892 l 1261 828 m 950 707 l 821 707 l 774 793 l 908 793 l 950 707 m 467 485 l 560 485 l 560 622 l 521 578 l 467 578 l 467 485 z "},"力":{"ha":1389,"x_min":186,"x_max":1203,"o":"m 835 82 l 813 149 l 1044 149 l 1044 728 l 703 728 l 403 86 l 219 86 l 519 728 l 186 728 l 186 794 l 550 794 l 608 918 l 792 918 l 733 794 l 1203 794 l 1203 82 l 835 82 z "},"劝":{"ha":1389,"x_min":126,"x_max":1261,"o":"m 140 654 l 299 654 l 371 531 l 406 589 l 406 844 l 369 782 l 140 782 l 140 847 l 565 847 l 565 589 l 521 515 l 450 396 l 617 115 l 458 115 l 371 263 l 285 115 l 126 115 l 292 396 l 140 654 m 1103 850 l 1067 783 l 897 783 l 793 74 l 635 74 l 739 783 l 622 783 l 622 850 l 749 850 l 761 928 l 919 928 l 907 850 l 1103 850 m 1103 850 l 1261 850 l 1261 74 l 963 74 l 926 139 l 1103 139 l 1103 850 z "},"办":{"ha":1389,"x_min":97,"x_max":1292,"o":"m 288 85 l 540 757 l 300 757 l 300 821 l 564 821 l 596 917 l 765 917 l 735 821 l 1072 821 l 1072 86 l 736 86 l 700 150 l 914 150 l 914 757 l 711 757 l 458 85 l 288 85 m 1083 601 l 1251 601 l 1292 204 l 1125 204 l 1083 601 m 263 204 l 97 204 l 311 633 l 479 633 l 263 204 z "},"功":{"ha":1389,"x_min":99,"x_max":1290,"o":"m 440 156 l 636 156 l 599 90 l 99 90 l 99 156 l 282 156 l 282 808 l 119 808 l 119 875 l 608 875 l 571 808 l 440 808 l 440 156 m 1290 801 l 1290 74 l 1000 74 l 964 139 l 1129 139 l 1129 735 l 938 735 l 799 74 l 638 74 l 776 735 l 619 735 l 619 801 l 790 801 l 818 926 l 978 926 l 951 801 l 1290 801 z "},"加":{"ha":1389,"x_min":140,"x_max":1247,"o":"m 1247 81 l 767 81 l 767 868 l 1247 868 l 1247 81 m 331 81 l 172 81 l 283 746 l 140 746 l 140 807 l 293 807 l 313 921 l 471 921 l 451 807 l 703 807 l 703 81 l 500 81 l 461 142 l 544 142 l 544 746 l 442 746 l 331 81 m 1051 807 l 925 807 l 925 142 l 1089 142 l 1089 864 l 1051 807 z "},"务":{"ha":1389,"x_min":138,"x_max":1251,"o":"m 153 468 l 153 558 l 525 675 l 346 722 l 326 686 l 138 686 l 272 925 l 458 925 l 447 904 l 1251 904 l 1251 815 l 838 685 l 1251 578 l 1251 488 l 681 635 l 153 468 m 153 76 l 313 351 l 153 351 l 153 417 l 350 417 l 392 488 l 586 488 l 544 417 l 1251 417 l 1251 76 l 865 76 l 829 142 l 1093 142 l 1093 413 l 1046 351 l 507 351 l 349 76 l 153 76 m 389 800 l 682 725 l 1039 838 l 410 838 l 389 800 z "},"劣":{"ha":1389,"x_min":85,"x_max":1303,"o":"m 721 469 l 1275 469 l 1275 74 l 883 74 l 851 138 l 1108 138 l 1108 408 l 669 408 l 389 74 l 178 74 l 456 408 l 125 408 l 125 469 l 506 469 l 569 546 l 785 546 l 721 469 m 1104 642 l 85 508 l 85 583 l 617 653 l 617 926 l 788 926 l 788 675 l 1104 717 l 1104 642 m 1139 656 l 1053 889 l 1214 889 l 1303 656 l 1139 656 m 325 663 l 161 663 l 258 889 l 419 889 l 325 663 z "},"动":{"ha":1389,"x_min":85,"x_max":1304,"o":"m 847 74 l 686 74 l 839 671 l 633 671 l 633 732 l 854 732 l 906 931 l 1067 931 l 1015 732 l 1304 732 l 1304 74 l 1301 74 l 1301 71 l 1018 71 l 983 135 l 1143 135 l 1143 671 l 1000 671 l 847 74 m 413 288 l 574 288 l 651 74 l 490 74 l 457 165 l 438 107 l 108 75 l 101 74 l 96 74 l 107 93 l 246 544 l 85 544 l 85 606 l 597 606 l 597 544 l 406 544 l 286 153 l 456 169 l 413 288 m 597 775 l 85 775 l 85 836 l 597 836 l 597 775 z "},"助":{"ha":1389,"x_min":122,"x_max":1265,"o":"m 681 911 l 681 176 l 729 181 l 729 176 l 803 296 l 804 296 l 804 735 l 703 735 l 703 800 l 804 800 l 804 926 l 963 926 l 963 800 l 1265 800 l 1265 74 l 1025 74 l 989 139 l 1107 139 l 1107 735 l 963 735 l 963 257 l 853 78 l 668 78 l 692 117 l 122 79 l 122 140 l 167 143 l 167 911 l 681 911 m 522 388 l 325 388 l 325 153 l 522 167 l 522 388 m 522 903 l 489 850 l 325 850 l 325 676 l 522 676 l 522 903 m 522 615 l 325 615 l 325 447 l 522 447 l 522 615 z "},"努":{"ha":1389,"x_min":89,"x_max":1300,"o":"m 136 813 l 89 813 l 89 874 l 146 874 l 153 928 l 311 928 l 304 874 l 439 874 l 439 928 l 597 928 l 597 874 l 656 874 l 656 813 l 597 813 l 597 721 l 604 719 l 451 599 l 643 467 l 461 467 l 365 531 l 285 467 l 101 467 l 264 597 l 119 694 l 136 813 m 622 432 l 576 379 l 1235 379 l 1235 72 l 933 72 l 910 133 l 1076 133 l 1076 318 l 525 318 l 317 72 l 135 72 l 342 318 l 94 318 l 94 379 l 394 379 l 439 432 l 622 432 m 692 467 l 910 625 l 692 793 l 874 793 l 1004 693 l 1142 793 l 1142 854 l 692 854 l 692 914 l 1300 914 l 1300 769 l 1096 624 l 1300 465 l 1118 465 l 1000 556 l 874 467 l 692 467 m 296 813 l 282 717 l 351 668 l 439 739 l 439 813 l 296 813 z "},"劫":{"ha":1389,"x_min":89,"x_max":1299,"o":"m 976 928 l 969 822 l 1299 822 l 1299 74 l 1085 74 l 1049 135 l 1140 135 l 1140 761 l 965 761 l 921 74 l 763 74 l 807 761 l 726 761 l 726 822 l 811 822 l 818 928 l 976 928 m 89 553 l 332 553 l 332 761 l 125 761 l 125 822 l 332 822 l 332 928 l 490 928 l 490 822 l 697 822 l 661 761 l 490 761 l 490 553 l 733 553 l 697 492 l 461 492 l 263 135 l 535 135 l 499 74 l 104 74 l 104 135 l 303 492 l 89 492 l 89 553 m 735 74 l 576 74 l 517 354 l 675 354 l 735 74 z "},"励":{"ha":1389,"x_min":92,"x_max":1296,"o":"m 304 861 l 304 761 l 703 761 l 665 694 l 504 694 l 504 581 l 704 581 l 704 74 l 515 74 l 479 140 l 543 140 l 543 515 l 504 515 l 504 300 l 450 74 l 292 74 l 343 306 l 343 694 l 304 694 l 304 300 l 250 74 l 92 74 l 143 306 l 143 926 l 708 926 l 672 861 l 304 861 m 1296 74 l 1078 74 l 1042 140 l 1136 140 l 1136 742 l 988 742 l 988 300 l 958 74 l 800 74 l 851 306 l 851 742 l 728 742 l 728 808 l 851 808 l 851 926 l 988 926 l 988 808 l 1296 808 l 1296 74 z "},"劲":{"ha":1389,"x_min":97,"x_max":1292,"o":"m 696 74 l 817 778 l 721 778 l 721 842 l 828 842 l 842 928 l 1010 928 l 994 842 l 1292 842 l 1292 79 l 1011 79 l 974 142 l 1133 142 l 1133 778 l 983 778 l 863 74 l 696 74 m 97 474 l 325 664 l 322 667 l 331 668 l 497 807 l 497 861 l 150 861 l 150 926 l 640 926 l 640 776 l 488 656 l 661 474 l 506 474 l 400 585 l 258 474 l 97 474 m 646 74 l 111 74 l 111 140 l 315 140 l 315 369 l 111 369 l 111 435 l 678 435 l 646 369 l 469 369 l 469 140 l 678 140 l 646 74 z "},"劳":{"ha":1389,"x_min":85,"x_max":1303,"o":"m 85 713 l 1303 713 l 1303 547 l 1147 547 l 1147 650 l 244 650 l 244 547 l 85 547 l 85 713 m 297 808 l 85 808 l 85 875 l 297 875 l 297 928 l 456 928 l 456 875 l 919 875 l 919 928 l 1075 928 l 1075 875 l 1301 875 l 1265 808 l 1075 808 l 1075 742 l 919 742 l 919 808 l 456 808 l 456 742 l 297 742 l 297 808 m 618 631 l 571 510 l 1233 510 l 1233 74 l 847 74 l 810 139 l 1072 139 l 1072 444 l 546 444 l 400 74 l 203 74 l 350 444 l 132 444 l 132 510 l 376 510 l 424 631 l 618 631 z "},"势":{"ha":1389,"x_min":97,"x_max":1290,"o":"m 383 442 l 557 442 l 524 400 l 1224 400 l 1224 93 l 888 93 l 851 156 l 1065 156 l 1065 336 l 475 336 l 271 76 l 97 76 l 300 336 l 110 336 l 110 400 l 350 400 l 383 442 m 522 749 l 661 697 q 683 744 672 721 q 704 790 693 767 l 522 790 l 522 854 l 733 854 q 744 879 739 867 q 754 903 749 892 l 913 903 q 901 876 906 888 q 892 854 896 865 l 1065 854 l 1031 790 l 863 790 q 849 760 856 774 q 834 729 842 746 q 817 693 826 713 q 794 647 807 674 l 901 607 l 901 533 l 767 583 q 743 531 756 560 q 715 465 731 501 l 521 465 l 488 526 l 583 526 q 604 574 592 547 q 632 633 617 601 l 522 674 l 522 749 m 397 924 l 397 858 l 513 858 l 488 796 l 397 796 l 397 685 l 507 707 l 507 636 l 397 614 l 397 454 l 135 454 l 106 514 l 242 514 l 242 582 l 118 558 l 118 626 l 242 653 l 242 796 l 118 796 l 118 858 l 242 858 l 242 924 l 397 924 m 1221 522 l 1290 522 l 1249 465 l 1065 465 l 1065 854 l 1221 854 l 1221 522 z "},"勃":{"ha":1389,"x_min":96,"x_max":1293,"o":"m 879 746 l 775 746 l 775 811 l 886 811 l 886 928 l 1042 928 l 1042 811 l 1293 811 l 1293 74 l 1022 74 l 990 135 l 1135 135 l 1135 746 l 1035 746 l 871 74 l 713 74 l 879 746 m 399 378 l 471 508 l 174 508 l 174 569 l 665 569 l 575 407 l 713 431 l 713 369 l 558 343 l 558 74 l 185 74 l 151 138 l 399 138 l 399 315 l 106 265 l 106 325 l 399 376 l 399 378 m 251 600 l 96 600 l 96 743 l 344 743 l 344 826 l 139 826 l 139 892 l 344 892 l 344 928 l 506 928 l 506 892 l 713 892 l 676 826 l 506 826 l 506 743 l 744 743 l 744 604 l 589 604 l 589 739 l 554 679 l 251 679 l 251 600 z "},"勇":{"ha":1389,"x_min":111,"x_max":1278,"o":"m 111 928 l 1278 928 l 1278 864 l 1057 757 l 1117 757 l 1082 692 l 776 692 l 776 633 l 1117 633 l 1117 757 l 1278 757 l 1278 401 l 1117 401 l 1117 443 l 776 443 l 776 401 l 617 401 l 617 443 l 272 443 l 272 401 l 111 401 l 111 757 l 499 757 l 386 840 l 615 840 l 728 757 l 746 757 l 963 863 l 111 863 l 111 928 m 649 350 l 1278 350 l 1278 74 l 958 74 l 925 138 l 1117 138 l 1117 285 l 583 285 l 368 74 l 139 74 l 354 285 l 111 285 l 111 350 l 419 350 l 454 383 l 683 383 l 649 350 m 617 692 l 272 692 l 272 633 l 617 633 l 617 692 m 617 508 l 617 567 l 272 567 l 272 508 l 617 508 m 776 567 l 776 508 l 1117 508 l 1117 567 l 776 567 z "},"勉":{"ha":1389,"x_min":119,"x_max":1269,"o":"m 131 74 l 210 318 l 131 318 l 131 706 l 363 706 l 447 813 l 300 813 l 292 797 l 119 797 l 189 925 l 360 925 l 335 878 l 500 878 l 500 879 l 671 879 l 671 878 l 669 876 l 536 706 l 564 706 l 528 640 l 504 640 l 504 379 l 564 379 l 564 706 l 722 706 l 722 318 l 610 318 l 610 139 l 1269 139 l 1233 72 l 451 72 l 451 318 l 415 318 l 338 74 l 131 74 m 696 185 l 843 726 l 739 726 l 739 792 l 861 792 l 897 928 l 1092 928 l 1056 792 l 1250 792 l 1250 185 l 989 185 l 951 251 l 1090 251 l 1090 726 l 1039 726 l 893 185 l 696 185 m 289 640 l 289 379 l 346 379 l 346 640 l 289 640 z "},"勋":{"ha":1389,"x_min":101,"x_max":1286,"o":"m 860 683 l 722 683 l 722 746 l 874 746 l 914 924 l 1072 924 l 1032 746 l 1286 746 l 1286 78 l 935 78 l 971 140 l 1135 140 l 1135 683 l 1018 683 l 881 78 l 722 78 l 860 683 m 688 683 l 153 683 l 153 910 l 688 910 l 688 683 m 522 463 l 447 325 l 543 325 l 672 78 l 500 78 l 410 256 l 314 78 l 140 78 l 350 463 l 522 463 m 254 357 l 101 357 l 101 643 l 725 643 l 725 357 l 574 357 l 574 631 l 532 582 l 254 582 l 254 357 m 529 899 l 488 850 l 314 850 l 314 749 l 529 749 l 529 899 z "},"勒":{"ha":1389,"x_min":143,"x_max":1246,"o":"m 974 82 l 953 147 l 1088 147 l 1088 728 l 976 728 l 858 85 l 700 85 l 818 728 l 701 728 l 701 793 l 831 793 l 854 918 l 1013 918 l 989 793 l 1246 793 l 1246 82 l 974 82 m 501 621 l 501 582 l 689 582 l 689 340 l 501 340 l 501 268 l 703 268 l 669 203 l 501 203 l 501 82 l 344 82 l 344 203 l 143 203 l 143 268 l 344 268 l 344 340 l 150 340 l 150 582 l 344 582 l 344 621 l 501 621 m 350 851 l 493 851 l 493 918 l 647 918 l 647 851 l 703 851 l 669 789 l 647 789 l 647 638 l 493 638 l 493 789 l 350 789 l 350 703 l 489 703 l 454 638 l 194 638 l 194 789 l 143 789 l 143 851 l 194 851 l 194 918 l 350 918 l 350 851 m 538 569 l 501 540 l 501 404 l 538 404 l 538 569 m 304 404 l 344 404 l 344 521 l 304 521 l 304 404 z "},"勘":{"ha":1389,"x_min":85,"x_max":1303,"o":"m 907 75 l 742 75 l 886 746 l 722 746 l 722 781 l 672 781 l 672 471 l 722 471 l 722 410 l 290 410 l 290 207 l 411 382 l 535 382 l 403 192 l 290 192 l 290 163 l 722 163 l 722 101 l 132 101 l 132 410 l 85 410 l 85 471 l 163 471 l 163 781 l 85 781 l 85 840 l 163 840 l 163 917 l 321 917 l 321 840 l 513 840 l 513 917 l 672 917 l 672 840 l 722 840 l 722 806 l 899 806 l 925 926 l 1090 926 l 1064 806 l 1303 806 l 1303 74 l 1076 74 l 1042 136 l 1140 136 l 1140 746 l 1051 746 l 907 75 m 506 306 l 629 306 l 704 192 l 581 192 l 506 306 m 321 471 l 513 471 l 513 533 l 321 533 l 321 471 m 321 594 l 513 594 l 513 657 l 321 657 l 321 594 m 321 718 l 513 718 l 513 781 l 321 781 l 321 718 z "},"募":{"ha":1389,"x_min":110,"x_max":1279,"o":"m 1251 251 l 1138 251 l 1138 79 l 801 79 l 764 142 l 979 142 l 979 308 l 571 308 l 418 74 l 219 74 l 381 308 l 357 308 l 315 250 l 138 250 l 258 418 l 114 418 l 114 475 l 300 475 l 314 494 l 492 494 l 478 475 l 1279 475 l 1238 418 l 436 418 l 403 372 l 424 372 l 453 414 l 635 414 l 606 372 l 968 372 l 951 397 l 1151 397 l 1251 251 m 1006 667 l 1006 764 l 1161 764 l 1161 506 l 240 506 l 240 764 l 1006 764 l 969 699 l 399 699 l 399 667 l 1006 667 m 1081 888 l 1278 888 l 1239 825 l 1081 825 l 1081 775 l 926 775 l 926 825 l 461 825 l 461 775 l 307 775 l 307 825 l 110 825 l 110 888 l 307 888 l 307 928 l 461 928 l 461 888 l 926 888 l 926 928 l 1081 928 l 1081 888 m 399 601 l 399 575 l 1006 575 l 1006 601 l 399 601 z "},"勤":{"ha":1389,"x_min":132,"x_max":1256,"o":"m 493 478 l 565 478 l 565 636 l 699 636 l 699 411 l 493 411 l 493 365 l 715 365 l 679 299 l 493 299 l 493 251 l 688 251 l 651 186 l 493 186 l 493 147 l 715 153 l 679 88 l 138 74 l 138 139 l 360 144 l 360 186 l 165 186 l 165 251 l 360 251 l 360 299 l 138 299 l 138 365 l 360 365 l 360 411 l 153 411 l 153 636 l 360 636 l 360 682 l 174 682 l 174 796 l 132 796 l 132 863 l 174 863 l 174 928 l 307 928 l 307 863 l 531 863 l 531 928 l 664 928 l 664 863 l 724 863 l 688 796 l 664 796 l 664 682 l 493 682 l 493 636 l 565 636 l 529 571 l 493 571 l 493 478 m 996 139 l 1100 139 l 1100 796 l 964 796 l 947 272 l 892 74 l 736 74 l 792 274 l 808 796 l 747 796 l 747 863 l 810 863 l 813 928 l 968 928 l 965 863 l 1256 863 l 1256 74 l 1032 74 l 996 139 m 531 796 l 307 796 l 307 747 l 531 747 l 531 796 m 360 571 l 288 571 l 288 478 l 360 478 l 360 571 z "},"勺":{"ha":1389,"x_min":147,"x_max":1240,"o":"m 343 619 l 147 619 l 263 919 l 458 919 l 428 839 l 1240 839 l 1240 82 l 874 82 l 838 146 l 1060 146 l 1060 776 l 403 776 l 343 619 m 551 290 l 426 574 l 618 574 l 746 290 l 551 290 z "},"勾":{"ha":1389,"x_min":169,"x_max":1218,"o":"m 363 258 l 735 258 l 707 194 l 172 194 l 172 297 l 365 706 l 569 706 l 363 258 m 964 194 l 781 194 l 651 497 l 839 497 l 964 194 m 1218 840 l 1218 76 l 883 76 l 842 139 l 1057 139 l 1057 778 l 169 778 l 256 924 l 438 924 l 390 840 l 1218 840 z "},"勿":{"ha":1389,"x_min":128,"x_max":1260,"o":"m 1260 836 l 1260 76 l 889 76 l 854 139 l 1097 139 l 1097 771 l 382 771 l 304 603 l 128 603 l 272 925 l 453 925 l 413 836 l 1260 836 m 1008 715 l 674 76 l 488 76 l 824 715 l 1008 715 m 676 715 l 335 76 l 156 76 l 499 715 l 676 715 z "},"匀":{"ha":1389,"x_min":161,"x_max":1226,"o":"m 1004 517 l 978 429 l 161 88 l 161 161 l 1004 517 m 1226 814 l 1226 93 l 885 93 l 846 154 l 1068 154 l 1068 753 l 196 753 l 349 914 l 535 914 l 435 814 l 1226 814 m 190 656 l 397 656 l 649 449 l 435 449 l 190 656 z "},"包":{"ha":1389,"x_min":118,"x_max":1269,"o":"m 1024 785 l 118 785 l 218 926 l 397 926 l 342 851 l 1182 851 l 1182 228 l 913 290 l 913 361 l 1024 335 l 1024 785 m 872 322 l 346 322 l 346 142 l 1269 142 l 1214 74 l 183 74 l 183 658 l 707 658 l 654 593 l 346 593 l 346 386 l 707 386 l 707 658 l 872 658 l 872 322 z "},"匆":{"ha":1389,"x_min":165,"x_max":1224,"o":"m 1224 863 l 1224 81 l 889 81 l 849 143 l 1063 143 l 1063 799 l 1015 799 l 850 383 l 1021 203 l 790 203 l 782 211 l 728 72 l 557 72 l 661 338 l 586 417 l 450 72 l 279 72 l 467 543 l 381 632 l 347 554 l 165 554 l 325 928 l 508 928 l 479 863 l 1224 863 m 510 651 l 568 799 l 453 799 l 389 651 l 510 651 m 844 799 l 738 799 l 654 588 l 729 510 l 844 799 z "},"匈":{"ha":1389,"x_min":139,"x_max":1249,"o":"m 393 850 l 1249 850 l 1249 72 l 946 72 l 906 136 l 1088 136 l 1088 786 l 357 786 l 324 725 l 139 725 l 253 928 l 436 928 l 393 850 m 235 628 l 353 628 l 290 700 l 465 700 l 600 544 l 728 700 l 903 700 l 843 628 l 971 628 l 971 164 l 813 164 l 813 175 l 235 164 l 235 628 m 694 233 l 606 336 l 517 229 l 694 233 m 690 440 l 813 297 l 813 590 l 690 440 m 393 582 l 393 290 l 515 440 l 393 582 z "},"匕":{"ha":1389,"x_min":228,"x_max":1160,"o":"m 1124 83 l 228 83 l 228 918 l 419 918 l 419 497 l 1088 706 l 1064 615 l 853 550 l 419 415 l 419 149 l 1160 149 l 1124 83 z "},"化":{"ha":1389,"x_min":72,"x_max":1315,"o":"m 792 79 l 792 539 l 501 425 l 501 568 l 792 683 l 792 926 l 969 926 l 969 753 l 1238 860 l 1236 717 l 969 610 l 969 176 l 1315 176 l 1258 79 l 792 79 m 179 542 l 72 542 l 225 922 l 390 922 l 268 621 l 340 621 l 340 74 l 179 74 l 179 542 z "},"北":{"ha":1389,"x_min":113,"x_max":1275,"o":"m 600 76 l 435 76 l 435 208 l 267 76 l 113 76 l 435 322 l 435 625 l 132 625 l 132 689 l 435 689 l 435 925 l 600 925 l 600 76 m 929 628 l 1243 864 l 1243 754 l 929 518 l 929 143 l 1275 143 l 1236 76 l 763 76 l 763 925 l 929 925 l 929 628 z "},"匙":{"ha":1389,"x_min":86,"x_max":1301,"o":"m 739 458 l 561 458 l 561 357 l 746 357 l 717 296 l 561 296 l 561 135 l 1301 135 l 1272 74 l 411 74 l 260 164 l 244 74 l 86 74 l 144 413 l 303 413 l 281 289 l 403 215 l 403 458 l 97 458 l 97 519 l 768 519 l 739 458 m 557 867 l 279 867 l 279 779 l 588 779 l 588 928 l 746 928 l 746 569 l 121 569 l 121 928 l 588 928 l 557 867 m 1254 700 l 975 581 l 975 251 l 1276 251 l 1247 192 l 817 192 l 817 900 l 975 900 l 975 685 l 1254 804 l 1254 700 m 279 631 l 588 631 l 588 718 l 279 718 l 279 631 z "},"匠":{"ha":1389,"x_min":115,"x_max":1272,"o":"m 1238 867 l 274 867 l 274 135 l 1260 135 l 1224 74 l 115 74 l 115 928 l 1272 928 l 1238 867 m 519 700 l 519 556 l 1269 556 l 1235 494 l 1038 494 l 1038 219 l 879 219 l 879 494 l 519 494 l 519 219 l 339 219 l 303 281 l 361 281 l 361 761 l 1269 761 l 1235 700 l 519 700 z "},"匣":{"ha":1389,"x_min":139,"x_max":1249,"o":"m 706 174 l 706 368 l 358 368 l 358 822 l 1053 822 l 1019 763 l 864 763 l 864 626 l 1053 626 l 1053 822 l 1211 822 l 1211 368 l 864 368 l 864 174 l 706 174 m 1213 75 l 139 75 l 139 925 l 1249 925 l 1213 860 l 299 860 l 299 143 l 1249 143 l 1213 75 m 706 429 l 706 567 l 517 567 l 517 429 l 706 429 m 864 567 l 864 429 l 1053 429 l 1053 567 l 864 567 m 517 763 l 517 626 l 706 626 l 706 763 l 517 763 z "},"匪":{"ha":1389,"x_min":85,"x_max":1304,"o":"m 246 142 l 1304 142 l 1267 74 l 85 74 l 85 928 l 1304 928 l 1267 863 l 246 863 l 246 142 m 556 169 l 556 276 l 294 276 l 294 338 l 556 338 l 556 467 l 315 467 l 315 528 l 556 528 l 556 651 l 301 651 l 301 711 l 556 711 l 556 824 l 714 824 l 714 169 l 556 169 m 993 824 l 993 711 l 1261 711 l 1240 651 l 993 651 l 993 521 l 1247 521 l 1226 460 l 993 460 l 993 338 l 1268 338 l 1247 276 l 993 276 l 993 169 l 835 169 l 835 824 l 993 824 z "},"匹":{"ha":1389,"x_min":85,"x_max":1304,"o":"m 1304 142 l 1267 74 l 85 74 l 85 928 l 1303 928 l 1265 863 l 1011 863 l 1011 356 l 1181 356 l 1143 289 l 856 289 l 856 863 l 601 863 l 601 528 l 521 292 l 368 292 l 446 528 l 446 863 l 246 863 l 246 142 l 1304 142 z "},"区":{"ha":1389,"x_min":179,"x_max":1210,"o":"m 1174 68 l 179 68 l 179 932 l 1210 932 l 1174 867 l 340 867 l 340 136 l 1210 136 l 1174 68 m 618 782 l 776 607 l 935 782 l 1131 782 l 875 497 l 1157 186 l 960 186 l 776 389 l 594 186 l 397 186 l 678 497 l 422 782 l 618 782 z "},"医":{"ha":1389,"x_min":138,"x_max":1250,"o":"m 138 921 l 1203 921 l 1203 854 l 299 854 l 299 146 l 1250 146 l 1214 79 l 138 79 l 138 921 m 426 182 l 589 456 l 367 456 l 367 522 l 628 522 l 701 644 l 340 644 l 453 794 l 603 794 l 543 711 l 1185 711 l 1147 644 l 886 644 l 814 522 l 1188 522 l 1151 456 l 775 456 l 614 182 l 426 182 m 1000 182 l 840 372 l 1040 372 l 1189 182 l 1000 182 z "},"匾":{"ha":1389,"x_min":101,"x_max":1286,"o":"m 1250 79 l 101 79 l 101 922 l 1286 922 l 1250 856 l 808 856 l 854 788 l 1211 788 l 1211 557 l 536 557 l 536 519 l 1074 519 l 1044 465 l 1007 465 l 1007 421 l 1074 421 l 1074 519 l 1210 519 l 1210 179 l 1074 179 l 1074 256 l 1007 256 l 1007 179 l 888 179 l 888 256 l 822 256 l 822 179 l 703 179 l 703 256 l 650 256 l 650 179 l 514 179 l 514 407 l 464 179 l 304 179 l 375 511 l 375 788 l 688 788 l 640 856 l 269 856 l 269 144 l 1286 144 l 1250 79 m 1018 722 l 536 722 l 536 624 l 1044 624 l 1044 786 l 1018 722 m 1007 361 l 1007 314 l 1074 314 l 1074 361 l 1007 361 m 888 314 l 888 361 l 822 361 l 822 314 l 888 314 m 888 465 l 822 465 l 822 421 l 888 421 l 888 465 m 703 314 l 703 361 l 650 361 l 650 314 l 703 314 m 650 465 l 650 421 l 703 421 l 703 465 l 650 465 z "},"匿":{"ha":1389,"x_min":104,"x_max":1283,"o":"m 1246 538 l 651 538 l 614 486 l 1019 486 l 983 419 l 631 419 l 631 239 l 1019 239 l 1019 486 l 1183 486 l 1183 174 l 467 174 l 467 281 l 463 275 l 294 275 l 483 538 l 289 538 l 289 604 l 531 604 l 583 676 l 476 676 l 476 718 l 289 718 l 289 779 l 476 779 l 476 828 l 635 828 l 635 779 l 874 779 l 874 828 l 1032 828 l 1032 779 l 1246 779 l 1200 718 l 1032 718 l 1032 679 l 874 679 l 874 718 l 635 718 l 635 697 l 767 697 l 699 604 l 1283 604 l 1246 538 m 1246 68 l 104 68 l 104 933 l 1282 933 l 1246 868 l 264 868 l 264 136 l 1282 136 l 1246 68 z "},"十":{"ha":1389,"x_min":125,"x_max":1263,"o":"m 1263 643 l 1226 578 l 764 578 l 764 74 l 603 74 l 603 578 l 125 578 l 125 643 l 603 643 l 603 926 l 764 926 l 764 643 l 1263 643 z "},"千":{"ha":1389,"x_min":160,"x_max":1228,"o":"m 1192 461 l 771 461 l 771 74 l 615 74 l 615 461 l 160 461 l 160 526 l 615 526 l 615 817 l 235 781 l 235 840 l 1139 928 l 1139 867 l 771 832 l 771 526 l 1228 526 l 1192 461 z "},"升":{"ha":1389,"x_min":119,"x_max":1269,"o":"m 1269 599 l 1233 536 l 1115 536 l 1115 75 l 929 75 l 929 536 l 531 536 l 531 411 l 376 75 l 171 75 l 342 431 l 342 536 l 119 536 l 119 599 l 342 599 l 342 836 q 274 832 303 833 q 190 828 213 829 q 181 828 171 826 q 151 826 169 828 l 151 889 q 293 897 242 894 q 372 901 344 900 q 408 903 399 903 q 427 905 418 904 q 451 906 436 906 q 501 909 465 907 q 602 915 538 911 q 776 925 667 918 l 740 860 q 531 847 619 851 l 531 599 l 929 599 l 929 915 l 1115 915 l 1115 599 l 1269 599 m 182 828 q 196 829 190 828 q 182 828 192 829 z "},"午":{"ha":1389,"x_min":114,"x_max":1274,"o":"m 651 407 l 114 407 l 114 472 l 651 472 l 651 765 l 367 765 l 307 594 l 138 594 l 249 924 l 422 924 l 390 832 l 1218 832 l 1182 765 l 810 765 l 810 472 l 1274 472 l 1236 407 l 810 407 l 810 76 l 651 76 l 651 407 z "},"卉":{"ha":1389,"x_min":151,"x_max":1238,"o":"m 1196 407 l 1061 407 l 1061 74 l 889 74 l 889 407 l 471 407 l 471 353 l 374 74 l 199 74 l 296 353 l 296 407 l 151 407 l 151 468 l 296 468 l 296 656 l 471 656 l 471 468 l 889 468 l 889 656 l 1061 656 l 1061 468 l 1238 468 l 1196 407 m 1142 763 l 774 763 l 774 597 l 601 597 l 601 763 l 213 763 l 213 824 l 601 824 l 601 928 l 774 928 l 774 824 l 1176 824 l 1142 763 z "},"半":{"ha":1389,"x_min":125,"x_max":1263,"o":"m 763 557 l 763 301 l 1263 301 l 1228 238 l 763 238 l 763 82 l 611 82 l 611 238 l 125 238 l 125 301 l 611 301 l 611 557 l 183 557 l 183 621 l 611 621 l 611 918 l 763 918 l 763 621 l 1189 621 l 1153 557 l 763 557 m 936 669 l 1024 876 l 1179 876 l 1092 669 l 936 669 m 181 869 l 336 869 l 424 661 l 268 661 l 181 869 z "},"华":{"ha":1389,"x_min":92,"x_max":1297,"o":"m 335 683 l 444 683 l 444 435 l 282 435 l 282 624 l 92 624 l 318 913 l 513 913 l 335 683 m 615 338 l 615 424 l 781 424 l 781 338 l 1297 338 l 1268 276 l 781 276 l 781 75 l 615 75 l 615 276 l 138 276 l 138 338 l 615 338 m 731 669 l 731 925 l 893 925 l 893 735 l 1268 901 l 1236 813 l 893 657 l 893 521 l 1297 521 l 1267 457 l 731 457 l 731 583 l 574 524 l 574 596 l 731 669 z "},"协":{"ha":1389,"x_min":85,"x_max":1303,"o":"m 1303 265 l 1144 265 l 1088 660 l 1088 75 l 869 75 l 831 136 l 929 136 l 929 782 l 806 782 l 806 403 l 694 75 l 515 75 l 647 403 l 647 782 l 418 782 l 418 843 l 647 843 l 647 926 l 806 926 l 806 843 l 1088 843 l 1088 660 l 1253 660 l 1303 265 m 149 683 l 85 683 l 85 744 l 149 744 l 149 926 l 307 926 l 307 744 l 390 744 l 351 683 l 307 683 l 307 75 l 149 75 l 149 683 m 526 265 l 361 265 l 421 403 l 421 660 l 586 660 l 586 403 l 526 265 z "},"卑":{"ha":1389,"x_min":101,"x_max":1288,"o":"m 1213 396 l 583 396 l 444 271 l 632 271 l 632 361 l 790 361 l 790 271 l 1288 271 l 1236 206 l 790 206 l 790 76 l 632 76 l 632 206 l 101 206 l 101 271 l 228 271 l 367 396 l 151 396 l 151 861 l 313 861 l 313 814 l 386 924 l 567 924 l 513 851 l 1053 851 l 1004 790 l 746 790 l 746 656 l 1053 656 l 1053 851 l 1213 851 l 1213 396 m 588 790 l 313 790 l 313 656 l 588 656 l 588 790 m 588 594 l 313 594 l 313 458 l 588 458 l 588 594 m 1053 594 l 746 594 l 746 458 l 1053 458 l 1053 594 z "},"卒":{"ha":1389,"x_min":114,"x_max":1275,"o":"m 1053 410 l 896 575 l 785 410 l 751 410 l 751 325 l 1275 325 l 1239 260 l 751 260 l 751 75 l 590 75 l 590 260 l 114 260 l 114 325 l 590 325 l 590 410 l 610 410 l 653 475 l 525 475 l 426 575 l 314 410 l 138 410 l 381 769 l 557 769 l 457 622 l 556 622 l 672 503 l 851 769 l 1028 769 l 928 622 l 1026 622 l 1226 410 l 1053 410 m 769 853 l 1244 853 l 1207 789 l 133 789 l 133 853 l 613 853 l 613 926 l 769 926 l 769 853 z "},"卓":{"ha":1389,"x_min":125,"x_max":1263,"o":"m 181 382 l 181 753 l 611 753 l 611 928 l 772 928 l 772 868 l 1199 868 l 1163 803 l 772 803 l 772 753 l 1207 753 l 1207 382 l 764 382 l 764 267 l 1263 267 l 1226 200 l 764 200 l 764 74 l 603 74 l 603 200 l 125 200 l 125 267 l 603 267 l 603 382 l 181 382 m 1049 449 l 1049 546 l 338 546 l 338 449 l 1049 449 m 338 608 l 1049 608 l 1049 740 l 1011 686 l 338 686 l 338 608 z "},"单":{"ha":1389,"x_min":126,"x_max":1261,"o":"m 456 933 l 457 931 l 517 836 l 899 836 l 954 931 l 1111 931 l 1054 836 l 1218 836 l 1218 363 l 767 363 l 767 271 l 1261 271 l 1225 210 l 767 210 l 767 67 l 614 67 l 614 210 l 126 210 l 126 271 l 614 271 l 614 363 l 168 363 l 168 836 l 360 836 l 301 931 l 299 933 l 456 933 m 614 424 l 614 572 l 324 572 l 324 424 l 614 424 m 614 775 l 324 775 l 324 633 l 614 633 l 614 775 m 1063 424 l 1063 633 l 1063 775 l 767 775 l 767 633 l 1063 633 l 1008 572 l 767 572 l 767 424 l 1063 424 z "},"卖":{"ha":1389,"x_min":149,"x_max":1240,"o":"m 149 753 l 597 753 l 597 818 l 232 818 l 232 881 l 597 881 l 597 928 l 774 928 l 774 881 l 1169 881 l 1138 818 l 774 818 l 774 753 l 1240 753 l 1188 611 l 1021 611 l 1051 690 l 149 690 l 149 753 m 481 331 l 167 331 l 167 393 l 551 393 l 579 418 l 392 418 l 260 533 l 399 533 l 268 649 l 485 649 l 615 533 l 478 533 l 593 431 l 775 592 l 989 592 l 765 393 l 1182 393 l 1147 331 l 694 331 l 404 74 l 190 74 l 481 331 m 746 294 l 971 294 l 1235 74 l 1008 74 l 746 294 z "},"南":{"ha":1389,"x_min":108,"x_max":1281,"o":"m 763 864 l 1281 864 l 1244 799 l 763 799 l 763 719 l 1075 719 l 1040 656 l 314 656 l 314 74 l 160 74 l 160 719 l 603 719 l 603 799 l 108 799 l 108 864 l 603 864 l 603 928 l 763 928 l 763 864 m 992 458 l 772 458 l 772 374 l 1028 374 l 992 308 l 772 308 l 772 74 l 614 74 l 614 308 l 365 308 l 365 374 l 614 374 l 614 458 l 365 458 l 365 525 l 740 525 l 778 621 l 947 621 l 910 525 l 1028 525 l 992 458 m 1075 719 l 1233 719 l 1233 74 l 982 74 l 947 138 l 1075 138 l 1075 719 m 517 535 l 463 621 l 633 621 l 690 535 l 517 535 z "},"博":{"ha":1389,"x_min":85,"x_max":1304,"o":"m 718 74 l 557 74 l 478 214 l 639 214 l 718 74 m 181 700 l 85 700 l 85 765 l 181 765 l 181 928 l 339 928 l 339 765 l 426 765 l 397 700 l 339 700 l 339 74 l 181 74 l 181 700 m 601 385 l 450 385 l 450 771 l 801 771 l 801 815 l 461 815 l 461 882 l 801 882 l 801 926 l 953 926 l 953 882 l 1072 882 l 1050 928 l 1211 928 l 1233 882 l 1304 882 l 1267 815 l 953 815 l 953 771 l 1303 771 l 1303 385 l 1150 385 l 1150 453 l 953 453 l 953 385 l 801 385 l 801 453 l 601 453 l 601 385 m 801 518 l 801 590 l 601 590 l 601 518 l 801 518 m 1150 518 l 1150 590 l 953 590 l 953 518 l 1150 518 m 953 707 l 953 656 l 1150 656 l 1150 751 l 1111 707 l 953 707 m 601 707 l 601 656 l 801 656 l 801 707 l 601 707 m 1235 363 l 1235 315 l 1304 315 l 1267 250 l 1235 250 l 1235 74 l 779 74 l 749 135 l 1076 135 l 1076 250 l 461 250 l 461 315 l 1076 315 l 1076 363 l 1235 363 z "},"卜":{"ha":1389,"x_min":322,"x_max":1067,"o":"m 1067 261 l 876 261 l 618 744 l 810 744 l 1067 261 m 506 925 l 506 76 l 322 76 l 322 925 l 506 925 z "},"占":{"ha":1389,"x_min":158,"x_max":1229,"o":"m 1229 524 l 1229 76 l 158 76 l 158 524 l 510 524 l 510 925 l 668 925 l 668 797 l 1229 797 l 1178 735 l 668 735 l 668 524 l 1229 524 m 317 460 l 317 138 l 1072 138 l 1072 494 l 1044 460 l 317 460 z "},"卡":{"ha":1389,"x_min":85,"x_max":1304,"o":"m 1304 572 l 1263 511 l 85 511 l 85 572 l 546 572 l 546 928 l 704 928 l 704 781 l 1138 781 l 1096 719 l 704 719 l 704 572 l 1304 572 m 546 483 l 704 483 l 704 74 l 546 74 l 546 483 m 988 399 l 1061 175 l 894 175 l 819 399 l 988 399 z "},"卢":{"ha":1389,"x_min":146,"x_max":1243,"o":"m 1086 442 l 1086 725 l 1243 725 l 1243 381 l 400 381 l 400 300 l 310 74 l 146 74 l 236 300 l 236 725 l 550 725 l 550 928 l 721 928 l 721 868 l 1238 868 l 1200 807 l 721 807 l 721 725 l 1086 725 l 1047 664 l 400 664 l 400 442 l 1086 442 z "},"卤":{"ha":1389,"x_min":163,"x_max":1225,"o":"m 1058 135 l 1058 669 l 1225 669 l 1225 74 l 163 74 l 163 669 l 438 669 l 438 928 l 604 928 l 604 832 l 1190 832 l 1157 771 l 604 771 l 604 669 l 1058 669 l 1014 607 l 329 607 l 329 135 l 1058 135 m 790 356 l 994 169 l 801 169 l 693 268 l 586 169 l 392 169 l 596 356 l 392 543 l 586 543 l 693 444 l 801 543 l 994 543 l 790 356 z "},"卦":{"ha":1389,"x_min":99,"x_max":1290,"o":"m 1135 322 l 1047 671 l 1047 76 l 890 76 l 890 924 l 1047 924 l 1047 754 l 1183 754 l 1290 321 l 1135 322 m 390 544 l 99 544 l 99 607 l 390 607 l 390 742 l 147 742 l 147 804 l 390 804 l 390 910 l 549 910 l 549 804 l 793 804 l 751 742 l 549 742 l 549 607 l 842 607 l 800 544 l 549 544 l 549 403 l 793 403 l 751 340 l 549 340 l 549 164 l 844 176 l 844 111 l 101 78 l 101 144 l 401 157 l 390 157 l 390 340 l 147 340 l 147 403 l 390 403 l 390 544 z "},"卧":{"ha":1389,"x_min":94,"x_max":1293,"o":"m 799 142 l 749 75 l 254 75 l 254 74 l 94 74 l 94 928 l 799 928 l 749 863 l 536 863 l 536 665 l 624 665 l 574 600 l 254 600 l 254 404 l 624 404 l 624 665 l 782 665 l 782 338 l 536 338 l 536 142 l 799 142 m 1011 74 l 853 74 l 853 928 l 1011 928 l 1011 74 m 1293 338 l 1135 338 l 1032 715 l 1190 715 l 1293 338 m 378 863 l 254 863 l 254 665 l 378 665 l 378 863 m 254 142 l 378 142 l 378 338 l 254 338 l 254 142 z "},"卫":{"ha":1389,"x_min":144,"x_max":1243,"o":"m 1203 75 l 144 75 l 144 135 l 529 135 l 529 861 l 163 861 l 163 926 l 1050 926 l 1010 861 l 688 861 l 688 135 l 1243 135 l 1203 75 m 1208 192 l 944 192 l 908 257 l 1050 257 l 1050 926 l 1208 926 l 1208 192 z "},"卯":{"ha":1389,"x_min":207,"x_max":1182,"o":"m 886 72 l 738 72 l 738 928 l 1182 928 l 1182 188 l 956 265 l 956 331 l 1035 308 l 1035 864 l 886 864 l 886 72 m 456 292 l 207 292 l 207 926 l 651 926 l 615 861 l 365 861 l 365 358 l 489 358 l 489 725 l 649 725 l 649 247 l 572 72 l 394 72 l 489 268 l 489 353 l 456 292 z "},"印":{"ha":1389,"x_min":117,"x_max":1272,"o":"m 669 899 l 1272 899 l 1272 203 l 935 203 l 901 267 l 1114 267 l 1114 833 l 825 833 l 825 75 l 669 75 l 669 899 m 117 882 l 632 926 l 632 861 l 272 829 l 272 599 l 632 599 l 632 532 l 272 532 l 272 267 l 632 300 l 632 235 l 117 186 l 117 882 z "},"危":{"ha":1389,"x_min":92,"x_max":1296,"o":"m 267 74 l 92 74 l 189 286 l 189 685 l 999 685 l 1035 775 l 207 775 l 275 928 l 458 928 l 419 840 l 1218 840 l 1218 775 l 1179 685 l 1292 685 l 1254 619 l 358 619 l 358 274 l 267 74 m 621 135 l 1296 135 l 1257 74 l 453 74 l 453 532 l 1218 532 l 1218 264 l 788 264 l 749 329 l 1057 329 l 1057 469 l 621 469 l 621 135 z "},"即":{"ha":1389,"x_min":147,"x_max":1240,"o":"m 669 453 l 306 453 l 306 189 l 510 251 l 438 414 l 596 414 l 735 101 l 576 101 l 536 192 l 147 74 l 147 926 l 306 926 l 306 726 l 511 726 l 511 867 l 346 867 l 306 926 l 669 926 l 669 453 m 1240 232 l 972 278 l 972 338 l 1082 319 l 1082 867 l 921 867 l 921 74 l 763 74 l 763 926 l 1240 926 l 1240 232 m 306 514 l 511 514 l 511 667 l 306 667 l 306 514 z "}}}
